<svg width="55" height="71" viewBox="0 0 55 71" fill="none" xmlns="http://www.w3.org/2000/svg">
<path d="M54.0317 12.8575L42.1204 0.96669C41.5047 0.346444 40.6651 0 39.7863 0H3.30246C2.42367 0 1.58406 0.346444 0.968349 0.96669C0.347038 1.58135 0 2.41952 0 3.2968V66.981C0 67.8527 0.347038 68.6908 0.968349 69.3111C1.58966 69.9313 2.42367 70.2778 3.30246 70.2778H51.6975C52.5707 70.2778 53.4103 69.9313 54.0317 69.3111C54.653 68.6908 55 67.8583 55 66.981V15.1876C55 14.3159 54.653 13.4778 54.0317 12.8575ZM41.8013 3.74383L51.2497 13.176L41.8013 3.74383ZM52.8002 15.372V66.9866C52.8002 67.2771 52.6827 67.5565 52.4756 67.7633C52.2685 67.97 51.9886 68.0874 51.6975 68.0874H3.29687C2.69235 68.0874 2.19418 67.5956 2.19418 66.9866V3.2968C2.19418 2.69332 2.68675 2.19601 3.29687 2.19601H39.6016" fill="#010101"/>
<path d="M44.747 42.7778H10.2475C9.64944 42.7778 9.16663 43.4602 9.16663 44.3055C9.16663 45.1509 9.64944 45.8333 10.2475 45.8333H44.7524C45.3505 45.8333 45.8333 45.1509 45.8333 44.3055C45.8333 43.4602 45.3505 42.7778 44.7524 42.7778H44.747Z" fill="#010101"/>
<path d="M20.3682 51.9445H10.1873C9.62256 51.9445 9.16663 52.6269 9.16663 53.4722C9.16663 54.3176 9.62256 55 10.1873 55H20.3682C20.9329 55 21.3888 54.3176 21.3888 53.4722C21.3888 52.6269 20.9329 51.9445 20.3682 51.9445Z" fill="#010101"/>
<path d="M45.0678 51.9445H37.4321C37.0086 51.9445 36.6666 52.6269 36.6666 53.4722C36.6666 54.3176 37.0086 55 37.4321 55H45.0678C45.4913 55 45.8333 54.3176 45.8333 53.4722C45.8333 52.6269 45.4913 51.9445 45.0678 51.9445Z" fill="#010101"/>
<path d="M10.2603 30.5555H23.3508C23.6394 30.5555 23.917 30.4535 24.1224 30.2738C24.3278 30.0941 24.4444 29.8512 24.4444 29.5986V16.2348C24.4444 15.9822 24.3278 15.7393 24.1224 15.5595C23.917 15.3798 23.6394 15.2778 23.3508 15.2778H10.2603C9.65516 15.2778 9.16663 15.7053 9.16663 16.2348V29.5986C9.16663 29.8512 9.28321 30.0941 9.48861 30.2738C9.69402 30.4535 9.9716 30.5555 10.2603 30.5555Z" fill="#8A1538"/>
<path d="M51.9445 15.2778H43.847C43.2554 15.2778 42.7778 14.7999 42.7778 14.2079V6.11108" fill="#010101"/>
<path d="M39.7222 0V11.4567C39.7222 12.467 40.1237 13.4385 40.8426 14.1574C41.5615 14.8762 42.5264 15.2778 43.5432 15.2778H54.9999" fill="#8A1538"/>
</svg>
