<svg width="479" height="451" viewBox="0 0 479 451" fill="none" xmlns="http://www.w3.org/2000/svg">
<g filter="url(#filter0_d_1_285)">
<path d="M474.319 308.021C439.859 382.123 364.798 433.476 277.738 433.476C158.043 433.476 61 336.433 61 216.738C61 97.0425 158.043 0 277.738 0C280.042 0 282.345 3.6473e-07 284.553 0.0959871L262.668 50.585L262.38 51.3529C178.2 59.6077 112.353 130.638 112.353 217.026C112.353 308.981 186.839 383.467 278.794 383.467C301.927 383.467 321.796 378.188 328.611 375.884C377.948 359.47 404.536 321.843 413.559 307.541C418.838 310.421 429.109 315.028 442.835 315.316C446.962 315.412 459.825 315.604 473.071 308.597C473.551 308.501 473.935 308.213 474.319 308.021Z" fill="#E2C4CD"/>
<path fill-rule="evenodd" clip-rule="evenodd" d="M227.569 224.944C227.569 248.125 246.397 266.917 269.622 266.917C292.847 266.917 311.675 248.125 311.675 224.944C311.675 201.762 292.847 182.97 269.622 182.97C246.397 182.97 227.569 201.762 227.569 224.944Z" fill="#ECF6FF"/>
<path d="M269.622 212.813V298.665" stroke="#B6D4FF" stroke-width="8"/>
<path d="M269.622 252.619L260.26 243.276" stroke="#B6D4FF" stroke-width="8"/>
<path d="M269.268 224.573L264.448 219.762" stroke="#B6D4FF" stroke-width="8"/>
<path d="M269.622 238.679L278.594 229.725" stroke="#B6D4FF" stroke-width="8"/>
<rect width="166.999" height="126.292" transform="matrix(-1 0 0 1 353.204 177.502)" stroke="#8A1538"/>
<path fill-rule="evenodd" clip-rule="evenodd" d="M58.2902 253.909C58.2902 273.895 71.3656 282.864 87.4309 282.864C103.495 282.864 116.57 273.895 116.57 253.909C116.57 216.679 100.667 181.912 87.4309 181.912C74.1931 181.912 58.2902 216.679 58.2902 253.909Z" fill="#ECF6FF"/>
<path d="M87.4302 221.55V299.453" stroke="#CCE3FF" stroke-width="8" stroke-linecap="square"/>
<path d="M86.9 269.748L76.0785 258.946" stroke="#CCE3FF" stroke-width="8" stroke-linecap="square"/>
<path d="M87.0767 234.997L80.3521 228.285" stroke="#CCE3FF" stroke-width="8" stroke-linecap="square"/>
<path d="M87.7835 253.974L97.7604 244.016" stroke="#CCE3FF" stroke-width="8" stroke-linecap="square"/>
<rect width="166.999" height="126.292" transform="matrix(-1 0 0 1 171 177.502)" stroke="#8A1538"/>
<path fill-rule="evenodd" clip-rule="evenodd" d="M125.572 246.766C125.572 266.99 138.782 278.272 155.987 278.272C173.193 278.272 186.403 266.99 186.403 246.766C186.403 204.186 166.99 155.098 155.987 155.098C144.985 155.098 125.572 204.186 125.572 246.766Z" fill="#CCE3FF"/>
<path d="M155.987 216.685V310.029" stroke="#ECF6FF" stroke-width="8" stroke-linecap="square"/>
<path d="M155.624 266.134L144.859 255.378" stroke="#ECF6FF" stroke-width="8" stroke-linecap="square"/>
<path d="M156.889 245.641L165.697 236.84" stroke="#ECF6FF" stroke-width="8" stroke-linecap="square"/>
<path d="M155.457 231.854L148.733 225.136" stroke="#ECF6FF" stroke-width="8" stroke-linecap="square"/>
<rect width="166.999" height="220.704" transform="matrix(-1 0 0 1 239.418 122.081)" stroke="#8A1538"/>
<path fill-rule="evenodd" clip-rule="evenodd" d="M165.944 320.174L157.619 358.955H152.111L160.437 320.174H165.944Z" fill="#CCE3FF"/>
<path fill-rule="evenodd" clip-rule="evenodd" d="M299.786 320.174H157.233V314.175H299.786V320.174Z" fill="#D7EBFF"/>
<path fill-rule="evenodd" clip-rule="evenodd" d="M187.46 341.899H159.667V335.9H187.46V341.899Z" fill="#D7EBFF"/>
<path fill-rule="evenodd" clip-rule="evenodd" d="M270.332 280.693L276.58 314.175H269.04L262.793 280.693H270.332Z" fill="#CCE3FF"/>
<path fill-rule="evenodd" clip-rule="evenodd" d="M161.667 280.693L167.914 314.175H160.375L154.127 280.693H161.667Z" fill="#CCE3FF"/>
<path fill-rule="evenodd" clip-rule="evenodd" d="M190.662 320.174H157.234V314.175H190.662V320.174Z" fill="#B6D4FF"/>
<path fill-rule="evenodd" clip-rule="evenodd" d="M146.608 302.519L147.726 308.519H155.267L154.147 302.519H146.608Z" fill="#CCE3FF"/>
<path fill-rule="evenodd" clip-rule="evenodd" d="M154.147 302.519L155.267 308.519H282.144L281.025 302.519H154.147Z" fill="#D7EBFF"/>
<path fill-rule="evenodd" clip-rule="evenodd" d="M144.573 291.606L145.69 297.605H153.231L152.111 291.606H144.573Z" fill="#CCE3FF"/>
<path fill-rule="evenodd" clip-rule="evenodd" d="M152.111 291.606L153.231 297.605H280.109L278.989 291.606H152.111Z" fill="#D7EBFF"/>
<path fill-rule="evenodd" clip-rule="evenodd" d="M150.076 280.694L151.193 286.693H143.655L142.537 280.694H150.076Z" fill="#CCE3FF"/>
<path fill-rule="evenodd" clip-rule="evenodd" d="M276.952 280.694L278.071 286.693H151.193L150.076 280.694H276.952Z" fill="#D7EBFF"/>
<path fill-rule="evenodd" clip-rule="evenodd" d="M187.46 320.174L195.786 358.955H190.278L181.953 320.174H187.46Z" fill="#CCE3FF"/>
<path fill-rule="evenodd" clip-rule="evenodd" d="M275.003 320.174L266.678 358.955H261.171L269.496 320.174H275.003Z" fill="#CCE3FF"/>
<path fill-rule="evenodd" clip-rule="evenodd" d="M296.52 341.899H268.726V335.9H296.52V341.899Z" fill="#D7EBFF"/>
<path fill-rule="evenodd" clip-rule="evenodd" d="M296.52 320.174L304.845 358.955H299.337L291.012 320.174H296.52Z" fill="#CCE3FF"/>
<rect width="261.902" height="245.227" transform="matrix(-1 0 0 1 354.675 197.12)" stroke="#8A1538"/>
<path fill-rule="evenodd" clip-rule="evenodd" d="M239.307 134.044C239.307 138.401 236.508 141.933 233.055 141.933C229.602 141.933 226.803 138.401 226.803 134.044C226.803 129.687 229.602 126.155 233.055 126.155C236.508 126.155 239.307 129.687 239.307 134.044Z" fill="#19141E"/>
<path d="M224.512 165.297L224.25 156.236C224.25 156.236 235.227 157.113 237.575 155.889C237.575 155.889 240.446 141.057 237.022 132.843L236.953 132.523L213.788 129.805L212.489 143.139C211.709 140.83 205.269 138.213 203.586 141.519C199.937 148.682 212.982 153.506 212.982 153.506L211.657 165.406" fill="#F5E8D3"/>
<path opacity="0.398926" fill-rule="evenodd" clip-rule="evenodd" d="M224.25 156.236L216.848 154.644L224.215 159.636L224.25 156.236Z" fill="black"/>
<path fill-rule="evenodd" clip-rule="evenodd" d="M230.167 142.97L232.725 149.242L229.66 149.282L230.167 142.97Z" fill="#405FD3"/>
<path fill-rule="evenodd" clip-rule="evenodd" d="M227.439 143.211C227.592 144.056 227.033 144.864 226.191 145.017C225.348 145.17 224.542 144.609 224.39 143.764C224.238 142.92 224.797 142.111 225.639 141.958C226.481 141.806 227.287 142.366 227.439 143.211Z" fill="#0D0B6D"/>
<path fill-rule="evenodd" clip-rule="evenodd" d="M236.035 143.211C236.187 144.056 235.628 144.864 234.786 145.017C233.944 145.17 233.138 144.609 232.985 143.764C232.833 142.92 233.392 142.111 234.234 141.958C235.076 141.806 235.882 142.366 236.035 143.211Z" fill="#0D0B6D"/>
<path d="M214.21 145.415C212.013 141.644 208.835 140.494 207.409 140.157C206.84 138.508 206.406 136.595 206.102 134.561C205.285 129.116 209.231 124.148 212.419 122.722C215.646 121.278 221.21 119.278 229.354 121.993C234.83 123.82 238.33 119.447 241.552 121.314C247.057 124.507 241.936 138.486 227.976 134.935C217.989 132.395 217.733 133.032 217.647 134.878C217.37 140.847 216.442 144.358 214.21 145.415Z" fill="#2F2F3D"/>
<path fill-rule="evenodd" clip-rule="evenodd" d="M225.909 149.515C225.909 149.515 226.893 151.308 229.02 151.266L225.909 149.515Z" fill="white"/>
<path fill-rule="evenodd" clip-rule="evenodd" d="M229.424 143.286C229.424 145.25 227.837 146.842 225.879 146.842C223.921 146.842 222.334 145.25 222.334 143.286C222.334 141.322 223.921 139.73 225.879 139.73C227.837 139.73 229.424 141.322 229.424 143.286Z" stroke="#252535"/>
<path fill-rule="evenodd" clip-rule="evenodd" d="M238.351 143.286C238.351 145.25 236.763 146.842 234.806 146.842C232.848 146.842 231.26 145.25 231.26 143.286C231.26 141.322 232.848 139.73 234.806 139.73C236.763 139.73 238.351 141.322 238.351 143.286Z" stroke="#252535"/>
<path d="M230.972 143.451H229.439" stroke="#252535" stroke-width="4"/>
<path d="M222.334 143.286H213.577" stroke="#252535"/>
<path fill-rule="evenodd" clip-rule="evenodd" d="M233.628 368.95L233.714 361.519L224.147 356.693L222.759 377.936H255.904C250.264 371.574 233.628 368.95 233.628 368.95ZM191.17 369.24L191.256 360.893L185.019 365.979L180 368.778L178.344 377.937H201.03C198.177 370.156 191.17 369.24 191.17 369.24Z" fill="#0D0B6D"/>
<path fill-rule="evenodd" clip-rule="evenodd" d="M191.256 360.893L181.69 358.013L180 368.778L191.17 369.239L191.256 360.893ZM233.714 361.519L224.147 358.64L223.376 368.488L233.628 368.95L233.714 361.519Z" fill="#E576C6"/>
<path d="M235.085 359.082L234.864 365.979H222.245L222.466 359.061C221.053 358.494 220.042 357.128 220.008 355.514L217.977 252.21L196.028 356.504C195.719 357.971 194.633 359.11 193.253 359.53L192.428 365.979H179.196L180.335 358.859C179.233 358.004 178.595 356.597 178.814 355.094L199.021 216.866L217.282 216.866L217.281 216.813H239.398L238.072 355.32C238.054 357.142 236.789 358.665 235.085 359.082Z" fill="#2F2F3D"/>
<path opacity="0.197824" fill-rule="evenodd" clip-rule="evenodd" d="M217.865 253.847L221.737 236.653L218.823 288.78L217.865 253.847Z" fill="black"/>
<path d="M203.746 216.996L205.865 217.342L182.752 358.207L180.626 357.851L203.746 216.996Z" fill="#EFEFEF"/>
<path fill-rule="evenodd" clip-rule="evenodd" d="M269.776 169.484L269.625 166.862C269.625 166.862 269.628 165.037 269.864 163.067C269.924 162.573 270.054 162.056 270.194 161.504C270.61 159.856 271.105 157.895 270.022 155.289C268.577 151.815 272.033 154.214 272.798 155.867C273.094 156.505 273.18 157.471 273.265 158.429C273.364 159.536 273.462 160.634 273.882 161.202C274.544 160.843 274.984 160.375 274.984 160.375L282.434 150.76C282.674 150.437 283.117 150.34 283.472 150.531L283.873 150.748C284.295 150.978 284.429 151.516 284.159 151.908C283.642 152.663 282.74 153.936 281.797 155.267C280.086 157.681 278.241 160.285 278.319 160.326L278.516 160.565L287.265 151.386C287.539 151.081 287.997 151.026 288.334 151.259L288.86 151.621C289.242 151.884 289.324 152.41 289.039 152.773C288.106 153.971 285.796 156.568 283.874 158.729C282.21 160.599 280.836 162.143 280.894 162.175L281.155 162.426L289.3 155.268C289.588 154.948 290.08 154.912 290.414 155.181L290.812 155.504C291.161 155.785 291.213 156.296 290.928 156.64L283.235 163.837L283.457 164.185L290.135 159.516C290.442 159.245 290.903 159.245 291.213 159.513L291.398 159.68C291.726 159.97 291.763 160.468 291.477 160.804C291.023 161.339 290.123 162.042 289.05 162.88C287.816 163.845 286.353 164.988 285.076 166.26C284.372 166.961 283.805 167.648 283.231 168.345L283.23 168.345C282.292 169.482 281.333 170.643 279.728 171.929C278.77 172.699 277.903 173.147 277.078 173.573C276.962 173.634 276.846 173.693 276.731 173.754L269.776 169.484ZM209.736 163.467C209.736 163.467 214.882 163.457 218.597 163.445C222.311 163.432 226.981 164.994 226.981 164.994C226.981 164.994 229.412 170.456 220.969 169.961C212.527 169.466 209.736 163.467 209.736 163.467ZM181.587 185.568C181.587 185.568 173.348 197.939 173.535 204.819C173.756 212.93 199.673 232.861 199.673 232.861L206.39 227.388L190.074 204.633L196.007 191.989L181.587 185.568Z" fill="#F5E8D3"/>
<path d="M204.438 217.469L208.451 222.855L196.366 233.391C196.366 233.391 174.189 217.133 173.504 204.385C173.068 196.266 180.169 184.675 180.169 184.675C180.169 184.675 189.083 170.426 199.387 165.617C201.501 164.63 206.628 163.807 209.736 163.467C210.689 163.363 210.119 163.734 210.446 164.363C210.788 165.019 211.828 165.992 212.547 166.719C214.045 168.232 216.996 169.378 218.581 169.613C219.789 169.791 222.124 170.069 223.247 169.918C224.37 169.767 225.591 169.26 225.918 168.959C226.244 168.657 226.729 168.28 226.981 167.7C227.233 167.119 227.22 167.285 227.22 166.75C227.22 166.214 227.193 166.293 227.14 166.038C227.088 165.783 227.088 165.63 227.057 165.498C226.92 164.915 226.981 164.994 226.981 164.994C233.064 166.832 236.145 167.512 238.361 170.185L255.295 182.072L266.882 166.95L281.832 176.99C281.832 176.99 268.595 201.658 259.002 204.385C251.274 206.582 243.445 199.75 240.693 197.009L243.963 213.615C244.487 216.482 241.977 217.567 239.741 217.466L204.438 217.469Z" fill="#72A065"/>
<path opacity="0.201242" fill-rule="evenodd" clip-rule="evenodd" d="M240.641 197.019L238.617 189.019L244.082 199.953L240.641 197.019Z" fill="black"/>
<path opacity="0.200591" d="M202.938 215.541L193.5 202.153L204.9 184.861" stroke="black" stroke-width="5"/>
<rect x="117" y="86" width="206.199" height="312.745" stroke="#8A1538"/>
</g>
<defs>
<filter id="filter0_d_1_285" x="0.000244141" y="0" width="478.318" height="450.347" filterUnits="userSpaceOnUse" color-interpolation-filters="sRGB">
<feFlood flood-opacity="0" result="BackgroundImageFix"/>
<feColorMatrix in="SourceAlpha" type="matrix" values="0 0 0 0 0 0 0 0 0 0 0 0 0 0 0 0 0 0 127 0" result="hardAlpha"/>
<feOffset dy="4"/>
<feGaussianBlur stdDeviation="2"/>
<feComposite in2="hardAlpha" operator="out"/>
<feColorMatrix type="matrix" values="0 0 0 0 0 0 0 0 0 0 0 0 0 0 0 0 0 0 0.25 0"/>
<feBlend mode="normal" in2="BackgroundImageFix" result="effect1_dropShadow_1_285"/>
<feBlend mode="normal" in="SourceGraphic" in2="effect1_dropShadow_1_285" result="shape"/>
</filter>
</defs>
</svg>
