<svg width="101" height="109" viewBox="0 0 101 109" fill="none" xmlns="http://www.w3.org/2000/svg">
<path d="M89.5605 66.744C82.0937 82.8009 65.8289 93.9283 46.9642 93.9283C21.0278 93.9283 0 72.9005 0 46.9642C0 21.0278 21.0278 0 46.9642 0C47.4633 0 47.9625 7.9032e-08 48.4409 0.0207991L43.6987 10.9611L43.6363 11.1275C25.3956 12.9162 11.1275 28.3075 11.1275 47.0266C11.1275 66.952 27.2675 83.092 47.193 83.092C52.2055 83.092 56.5109 81.9481 57.9876 81.4489C68.6783 77.8923 74.4397 69.7391 76.3948 66.64C77.5387 67.264 79.7642 68.2624 82.7385 68.3247C83.6328 68.3455 86.4199 68.3871 89.2902 66.8688C89.3941 66.848 89.4774 66.7856 89.5605 66.744Z" fill="#231F20"/>
<path d="M73.795 40.8907C73.2751 40.3707 73.0671 39.9964 73.3999 39.2476C74.003 37.8749 74.2942 36.3149 74.2942 34.443C74.2942 27.1426 68.3041 21.194 60.9204 21.194C60.4837 21.194 60.0469 21.194 59.6101 21.194C58.7158 21.194 57.8214 21.194 56.9478 21.194C53.0376 21.194 49.0026 21.194 45.03 21.1732C45.0092 21.1732 44.9884 21.1732 44.9884 21.1732C43.99 21.1732 43.4077 21.506 42.9085 22.3796C39.6639 27.9121 36.336 33.5071 33.1122 38.9148C32.1346 40.5579 31.1571 42.201 30.1795 43.8442C28.5572 46.5688 19.676 63.312 19.5928 63.4784L19.5096 63.6448L19.6968 63.6656C20.4872 63.7904 21.2983 63.832 22.0887 63.8112C24.023 63.7488 26.0613 63.728 28.1204 63.7904C28.5572 63.7904 28.994 63.8112 29.4515 63.832C29.4931 63.832 29.5555 63.832 29.5971 63.832C30.5955 63.832 31.2195 63.4576 31.781 62.5217C34.7345 57.5299 37.7503 52.4758 40.6622 47.588C43.4909 42.825 46.4235 37.9165 49.2938 33.0703C49.7722 32.2799 50.2921 31.9887 51.2281 32.0095C52.6008 32.0511 53.9736 32.0095 55.3255 31.9887C55.9495 31.9679 56.5735 31.9679 57.1974 31.9679C57.551 31.9679 57.8838 31.9679 58.2374 31.9471C58.6534 31.9471 59.0485 31.9263 59.4645 31.9263C59.9429 31.9263 60.4421 31.9263 60.9204 31.9679C61.9396 32.0303 62.7924 32.5919 63.2083 33.4655C63.6035 34.2974 63.5203 35.2334 63.0003 35.9821C62.4596 36.7517 61.69 37.1261 60.6085 37.1261H60.5877C60.1509 37.1261 59.7141 37.1261 59.2981 37.1261C58.9861 37.2093 58.6742 37.2509 58.3206 37.2509C56.5942 37.2301 54.8679 37.2717 53.1416 37.2509C52.788 37.3965 52.4968 37.6669 52.2681 38.0828C51.1241 40.0588 49.9386 42.0555 48.7738 43.969C48.1915 44.9257 47.6091 45.9033 47.0475 46.86C46.9643 47.0056 46.9019 47.172 46.8187 47.38C46.7771 47.484 46.7355 47.588 46.6939 47.7128L46.6315 47.8376L46.6107 47.8792H52.58C55.5127 47.8792 58.4454 47.8792 61.378 47.8792C61.6692 47.8792 61.9396 47.8792 62.2308 47.8792C62.3348 47.8792 62.4388 47.8792 62.5428 47.8792C63.2083 47.8792 63.8739 47.8792 64.5187 47.9C65.7874 47.9624 66.7442 48.8359 66.9106 50.1047C67.077 51.3318 66.3282 52.4758 65.1426 52.8293C64.6851 52.9749 64.1651 52.9749 63.6867 52.9957C63.5203 52.9957 63.3539 52.9957 63.1875 52.9957C63.1043 53.0373 63.0211 53.0581 62.9172 53.0997C62.4388 53.2453 61.9188 53.2661 61.4196 53.2661C58.279 53.2661 55.1175 53.2869 51.9769 53.2869C56.0535 53.2869 60.0261 53.2869 63.6867 53.2869C64.1859 53.2869 64.7267 53.2661 65.2258 53.1205C66.5362 52.7253 67.3473 51.4566 67.181 50.1047C67.0146 48.7319 65.9122 47.7336 64.5395 47.692C63.7699 47.6504 62.9795 47.6712 62.2308 47.6712C61.9396 47.6712 61.6692 47.6712 61.378 47.6712C58.4454 47.6712 55.5127 47.6712 52.58 47.6712H46.9851C47.0059 47.6088 47.0267 47.5464 47.0475 47.5048C47.1099 47.3176 47.1723 47.172 47.2555 47.0264C47.8379 46.0697 48.3994 45.0921 48.9818 44.1354C50.1466 42.201 51.3321 40.2251 52.476 38.2492C52.8504 37.6045 53.2456 37.3965 54.036 37.4173C55.4087 37.4589 56.8022 37.4381 58.1334 37.4381C58.9237 37.4381 59.7557 37.4381 60.5669 37.4381C61.7316 37.4381 62.6052 37.0429 63.1875 36.1901C63.7699 35.3582 63.8531 34.3182 63.4163 33.4031C62.9587 32.4463 62.0228 31.8223 60.8996 31.7599C60.0053 31.6975 59.0693 31.7183 58.1958 31.7391C57.8422 31.7391 57.5094 31.7599 57.1558 31.7599C56.5319 31.7599 55.9079 31.7807 55.2839 31.7807C53.9528 31.8015 52.5592 31.8223 51.2073 31.8015C50.8953 31.8015 50.6457 31.8223 50.3961 31.8847C49.8346 32.0303 49.4186 32.3839 49.0442 33.0079C46.1739 37.8541 43.2413 42.7626 40.4126 47.5256C37.5008 52.4134 34.4849 57.4883 31.5314 62.4593C30.9907 63.3744 30.4499 63.6864 29.4307 63.6448C29.1396 63.6448 28.8484 63.624 28.5572 63.624C27.5588 63.6032 26.5605 63.5824 25.5829 63.5824C24.3766 63.5824 23.2118 63.6032 22.0679 63.6448C21.3607 63.6656 20.6328 63.624 19.9048 63.5408C20.8408 61.7937 28.8692 46.6728 30.4083 44.0938C31.3858 42.4506 32.3634 40.8075 33.341 39.1644C36.5648 33.7566 39.8926 28.1409 43.1373 22.6292C43.6157 21.818 44.1148 21.5476 45.0508 21.5476C49.0234 21.5892 53.0584 21.5892 56.9686 21.5684C58.2998 21.5684 59.6101 21.5684 60.9412 21.5684C61.1492 21.5684 61.3364 21.5684 61.5444 21.5892C68.4913 21.9012 74.0446 27.6001 74.0446 34.5678C74.0446 36.3981 73.7534 37.9373 73.1711 39.2684C72.7759 40.1419 73.0463 40.6411 73.6078 41.2027C76.6861 44.2601 78.0588 48.4407 77.3725 52.6629C77.0397 54.7428 76.2285 56.6564 75.0222 58.2787C73.8158 59.901 72.2351 61.2321 70.3216 62.1889C68.6785 63.0001 66.9522 63.4784 65.205 63.6032C64.8931 63.624 64.6019 63.6448 64.2899 63.6448C55.5335 63.6448 46.7979 63.6448 38.3535 63.6448C38.1663 63.6448 37.9583 63.624 37.7087 63.624C37.6256 63.624 37.5424 63.624 37.4384 63.6032C37.4592 63.5408 37.48 63.4992 37.5008 63.4368C37.584 63.2704 37.6256 63.1457 37.688 63.0417C38.2287 62.1265 38.7903 61.1905 39.3519 60.2754C40.5582 58.2787 41.7854 56.2196 42.9917 54.1605C43.3037 53.6197 43.6573 53.3909 44.2396 53.3493C43.9485 53.3493 43.6573 53.3493 43.3869 53.3493C43.1581 53.4949 42.9501 53.7237 42.7629 54.0357C41.5566 56.074 40.3294 58.1539 39.1231 60.1506C38.5615 61.0657 38.0207 62.0017 37.4592 62.9169C37.376 63.0417 37.3344 63.1873 37.2512 63.3536C37.2096 63.4576 37.168 63.5616 37.1056 63.6864L37.0224 63.8528H37.2096C37.376 63.8528 37.5424 63.8736 37.6672 63.8736C37.9167 63.8944 38.1247 63.8944 38.3327 63.8944C46.5483 63.8944 55.0551 63.8944 63.5827 63.8944H64.2691C65.309 63.8944 66.349 63.7696 67.3889 63.52C68.4081 63.2704 69.4272 62.8961 70.4048 62.4177C74.2734 60.5042 76.8941 56.9475 77.5805 52.7045C78.35 48.2536 76.9357 44.0106 73.795 40.8907Z" fill="#616264"/>
<path d="M68.1585 62.3762C67.2225 62.8546 66.2449 63.2081 65.2466 63.4577C64.7266 63.5825 64.1858 63.6865 63.6659 63.7489C63.1459 63.8113 62.6259 63.8529 62.0851 63.8529C53.412 63.8529 44.7596 63.8529 36.0864 63.8529C35.7744 63.8529 35.4624 63.8321 34.9632 63.8113C35.1296 63.4577 35.2128 63.2497 35.3168 63.0417C37.0847 60.0467 38.8734 57.0724 40.6206 54.0774C40.9949 53.4326 41.4525 53.183 42.2013 53.183C42.6173 53.183 43.0124 53.183 43.4284 53.183C43.7196 53.183 44.0108 53.183 44.2812 53.183C46.4235 53.183 48.545 53.2038 50.6873 53.2038C51.1033 53.2038 51.5192 53.2038 51.956 53.2038C55.0967 53.2038 58.2581 53.2038 61.3988 53.183C61.8979 53.183 62.4179 53.1622 62.8963 53.0166C62.9795 52.9958 63.0835 52.9542 63.1667 52.9126C64.269 52.455 64.9138 51.3111 64.7682 50.1048C64.6018 48.8984 63.7283 47.9625 62.5219 47.7961C62.4387 47.7753 62.3347 47.7753 62.2515 47.7753C61.1908 47.7337 60.1508 47.7545 59.0901 47.7545C54.9303 47.7545 50.7705 47.7545 46.6107 47.7545H44.4684C44.614 47.3801 44.6972 47.1305 44.822 46.9017C46.5691 43.9483 48.3578 41.0156 50.0633 38.0413C50.4793 37.3134 50.9577 37.1054 51.748 37.1262C52.2056 37.147 52.6632 37.147 53.1208 37.147C54.8471 37.1678 56.5734 37.1262 58.2997 37.147C58.6533 37.147 58.9653 37.1054 59.2773 37.0222C59.9012 36.8558 60.4212 36.5022 60.8164 35.9198C61.8772 34.4015 61.1076 32.4048 59.4437 31.8224C59.1941 31.7392 58.9237 31.6768 58.6325 31.656C57.3846 31.5728 56.1366 31.6352 54.8887 31.656C53.3912 31.6768 51.8936 31.7184 50.4169 31.7184C49.9177 31.7184 49.4185 31.7184 48.9194 31.6976C47.9418 31.6768 47.3802 31.9888 46.8811 32.8416C41.0573 42.7627 35.1712 52.6422 29.3267 62.5634C29.0979 62.9377 28.8691 63.2289 28.5987 63.4369C28.4531 63.5409 28.3075 63.6241 28.1412 63.6865C27.85 63.7905 27.5172 63.8321 27.122 63.8113C24.6677 63.7281 22.1926 63.7281 19.7384 63.8113C18.9272 63.8321 18.1368 63.7905 17.3465 63.6657C17.3465 63.6657 26.3108 46.6521 27.954 43.8651C32.2178 36.6478 36.5024 29.4305 40.7246 22.1925C41.2237 21.3397 41.7645 21.0277 42.7629 21.0277C48.0666 21.0901 53.3704 21.0485 58.6741 21.0485C59.0069 21.0485 59.3189 21.0693 59.6517 21.0901C60.2964 21.1317 60.9412 21.2357 61.5444 21.3605C67.4929 22.6709 71.9439 27.9538 71.9439 34.2975C71.9439 35.9614 71.7151 37.5838 71.0495 39.1021C70.6959 39.8924 70.8831 40.3292 71.4655 40.9116C77.9548 47.4841 76.2701 58.3204 68.1585 62.3762Z" fill="#811319"/>
<path fill-rule="evenodd" clip-rule="evenodd" d="M88.4999 46.0905C87.9591 46.6105 88.1463 47.6713 88.9158 48.5032C89.6854 49.3144 90.7462 49.564 91.2869 49.044C91.8277 48.524 91.6405 47.4633 90.871 46.6313C90.1014 45.8202 89.0406 45.5706 88.4999 46.0905Z" fill="#811319"/>
<path fill-rule="evenodd" clip-rule="evenodd" d="M90.0391 65.496C89.9767 65.5168 89.9351 65.5584 89.8727 65.5792C89.7895 65.6208 89.7063 65.6832 89.6023 65.7248C86.732 67.2431 83.945 67.2015 83.0506 67.1807C80.0972 67.1183 77.8509 66.0992 76.7069 65.496C77.1437 65.5168 77.7261 65.5168 78.3916 65.5168H78.4124C78.5996 65.5168 78.7868 65.5168 78.9948 65.496C79.4732 65.496 80.7835 65.4544 81.7819 65.3296C82.8426 65.2048 84.465 64.872 86.4617 63.8945C87.5432 64.4976 88.7704 65.0592 90.0391 65.496Z" fill="#811319"/>
<path fill-rule="evenodd" clip-rule="evenodd" d="M90.1845 43.4074C96.237 51.4982 93.6164 52.143 81.8025 47.0472C88.7494 50.7911 91.0581 56.9476 89.0406 61.0866C90.4757 61.8353 92.1396 62.4593 93.4916 62.6257C95.3219 60.4418 96.4034 57.6755 96.4866 54.7221C96.5698 50.1047 94.1779 45.7785 90.1845 43.4074Z" fill="#811319"/>
<path fill-rule="evenodd" clip-rule="evenodd" d="M97.0484 56.5524C99.0867 58.1747 100.231 60.1714 99.9811 61.8977C99.7939 63.1665 99.1907 63.624 98.026 64.352C98.8995 64.04 99.7731 63.3953 100.335 62.3345C98.2964 69.9885 80.8044 63.0833 82.2395 56.6356C81.5532 58.7155 82.7179 60.2754 82.9051 60.5666C82.2395 59.9426 81.7612 58.6323 81.6572 57.7587C81.574 56.9892 81.7196 56.2612 82.1147 55.5748C83.0715 53.9317 85.2762 53.3493 87.5849 53.3493C87.7305 53.5989 87.8761 53.8485 88.0009 54.1189C88.0217 54.1605 88.0425 54.2021 88.0632 54.2229C86.5033 54.4101 85.2762 55.0549 84.777 56.1364C84.1322 57.5507 84.7562 58.8195 85.921 59.8802C87.2105 61.0658 89.2904 62.0433 91.0167 62.6881C89.124 62.2929 87.4185 61.4609 85.7338 60.5874C88.5 62.7505 96.0293 65.2464 97.818 61.3778C98.3588 60.2338 97.922 58.8195 96.8196 57.5715C96.9236 57.2179 96.986 56.8852 97.0484 56.5524Z" fill="#231F20"/>
<path fill-rule="evenodd" clip-rule="evenodd" d="M98.7746 50.8328C98.941 52.1223 98.7122 51.8935 100.002 52.0599C98.7122 52.2263 98.941 51.9975 98.7746 53.2871C98.6082 51.9975 98.837 52.2263 97.5475 52.0599C98.8162 51.8935 98.5874 52.1223 98.7746 50.8328Z" fill="#231F20"/>
<path d="M97.5475 53.2871H100.002V50.8328H97.5475V53.2871Z" fill="#231F20"/>
<path fill-rule="evenodd" clip-rule="evenodd" d="M96.3826 45.4042C96.549 46.6938 96.3202 46.465 97.6098 46.6314C96.3202 46.7978 96.549 46.569 96.3826 47.8585C96.2162 46.569 96.445 46.7978 95.1555 46.6314C96.445 46.4442 96.2162 46.673 96.3826 45.4042Z" fill="#231F20"/>
<path d="M95.1555 47.8585H97.6098V45.4042H95.1555V47.8585Z" fill="#231F20"/>
<path fill-rule="evenodd" clip-rule="evenodd" d="M99.7729 46.6522C99.9393 47.9417 99.7105 47.7129 101 47.8793C99.7105 48.0457 99.9393 47.8169 99.7729 49.1064C99.6065 47.8169 99.8353 48.0457 98.5458 47.8793C99.8353 47.7129 99.6065 47.9417 99.7729 46.6522Z" fill="#231F20"/>
<path d="M98.5458 49.1064H101V46.6522H98.5458V49.1064Z" fill="#231F20"/>
<path d="M7.05088 101.936C8.54841 101.936 9.67156 102.789 10.0459 104.141H8.36122C8.09084 103.6 7.63326 103.33 7.05088 103.33C6.11493 103.33 5.47016 104.037 5.47016 105.139C5.47016 106.262 6.11493 106.949 7.05088 106.949C7.63326 106.949 8.11163 106.678 8.36122 106.137H10.0459C9.69236 107.51 8.54841 108.342 7.05088 108.342C5.19977 108.342 3.88943 107.032 3.88943 105.139C3.86864 103.267 5.17897 101.936 7.05088 101.936Z" fill="#030505"/>
<path d="M14.8714 107.198H12.5211L12.1467 108.321H10.5452L12.8331 102.019H14.601L16.8889 108.321H15.2665L14.8714 107.198ZM13.7066 103.704L12.9371 106.013H14.497L13.7066 103.704Z" fill="#030505"/>
<path d="M22.9205 102.019V108.321H21.3814L18.8231 104.432V108.321H17.284V102.019H18.8231L21.3814 105.929V102.019H22.9205Z" fill="#030505"/>
<path d="M29.4514 105.16C29.4514 107.032 28.1619 108.321 26.1444 108.321H23.7733V102.019H26.1444C28.1619 102.019 29.4514 103.288 29.4514 105.16ZM26.0612 106.99C27.226 106.99 27.8915 106.325 27.8915 105.16C27.8915 103.995 27.2052 103.329 26.0612 103.329H25.3332V106.99H26.0612Z" fill="#030505"/>
<path d="M30.325 102.019H31.8641V108.321H30.325V102.019Z" fill="#030505"/>
<path d="M38.3951 105.16C38.3951 107.032 37.1056 108.321 35.0881 108.321H32.717V102.019H35.0881C37.1056 102.019 38.3951 103.288 38.3951 105.16ZM35.0049 106.99C36.1696 106.99 36.8352 106.325 36.8352 105.16C36.8352 103.995 36.1488 103.329 35.0049 103.329H34.2769V106.99H35.0049Z" fill="#030505"/>
<path d="M43.1788 107.198H40.8285L40.4541 108.321H38.8526L41.1405 102.019H42.9084L45.1963 108.321H43.574L43.1788 107.198ZM42.0141 103.704L41.2445 106.013H42.8044L42.0141 103.704Z" fill="#030505"/>
<path d="M45.2379 102.019H50.1049V103.246H48.4409V108.321H46.9018V103.246H45.2379V102.019Z" fill="#030505"/>
<path d="M54.452 103.246H52.1225V104.515H54.1816V105.701H52.1225V107.073H54.452V108.3H50.5834V101.998H54.452V103.246Z" fill="#030505"/>
<path d="M57.5926 108.384C56.2406 108.384 55.1799 107.718 55.1383 106.429H56.7814C56.823 106.907 57.135 107.157 57.5718 107.157C58.0293 107.157 58.2997 106.928 58.2997 106.574C58.2997 105.409 55.1383 106.033 55.1591 103.808C55.1591 102.622 56.1366 101.957 57.4678 101.957C58.8405 101.957 59.7765 102.643 59.8389 103.85H58.1749C58.1541 103.454 57.863 103.205 57.447 103.184C57.0726 103.184 56.8022 103.371 56.8022 103.766C56.8022 104.869 59.9221 104.37 59.9221 106.47C59.8805 107.489 59.0485 108.384 57.5926 108.384Z" fill="#030505"/>
<path d="M65.4962 108.321H62.5636V102.019H65.3923C66.6818 102.019 67.4306 102.664 67.4306 103.662C67.4306 104.432 66.973 104.91 66.3698 105.097C67.0978 105.243 67.5761 105.888 67.5761 106.616C67.5761 107.635 66.8066 108.321 65.4962 108.321ZM65.1011 103.246H64.1027V104.557H65.1011C65.6002 104.557 65.8914 104.328 65.8914 103.891C65.8706 103.475 65.6002 103.246 65.1011 103.246ZM65.2051 105.68H64.0819V107.073H65.2051C65.725 107.073 66.0162 106.844 66.0162 106.387C66.0162 105.95 65.7042 105.68 65.2051 105.68Z" fill="#811319"/>
<path d="M72.1727 107.198H69.8224L69.4481 108.321H67.8465L70.1344 102.019H71.9023L74.1902 108.321H72.5679L72.1727 107.198ZM70.9872 103.704L70.2176 106.013H71.7776L70.9872 103.704Z" fill="#811319"/>
<path d="M78.9115 103.184L76.2076 107.052H78.9115V108.3H74.4605V107.136L77.1644 103.267H74.4605V102.019H78.9115V103.184Z" fill="#811319"/>
<path d="M83.6328 107.198H81.2825L80.9082 108.321H79.3066L81.5945 102.019H83.3624L85.6503 108.321H84.0072L83.6328 107.198ZM82.4473 103.704L81.6777 106.013H83.2377L82.4473 103.704Z" fill="#811319"/>
<path d="M89.9558 107.198H87.6055L87.2311 108.321H85.6296L87.9175 102.019H89.6854L91.9733 108.321H90.351L89.9558 107.198ZM88.7703 103.704L88.0007 106.013H89.5606L88.7703 103.704Z" fill="#811319"/>
<path d="M94.9267 102.019C96.4659 102.019 97.2354 102.913 97.2354 103.995C97.2354 104.785 96.7986 105.534 95.8419 105.825L97.2978 108.321H95.5715L94.2612 105.95H93.8868V108.321H92.3476V102.019H94.9267ZM94.8435 103.288H93.8868V104.848H94.8435C95.4259 104.848 95.6963 104.557 95.6963 104.057C95.6755 103.6 95.4051 103.288 94.8435 103.288Z" fill="#811319"/>
</svg>
