<svg width="41" height="38" viewBox="0 0 41 38" fill="none" xmlns="http://www.w3.org/2000/svg">
<path d="M36.0944 26.899C33.0852 33.3702 26.5302 37.8547 18.9274 37.8547C8.47456 37.8547 0 29.3802 0 18.9274C0 8.47456 8.47456 0 18.9274 0C19.1285 0 19.3297 3.18512e-08 19.5225 0.00838239L17.6113 4.4175L17.5862 4.48456C10.2349 5.20544 4.48456 11.4084 4.48456 18.9525C4.48456 26.9828 10.9893 33.4875 19.0196 33.4875C21.0397 33.4875 22.7749 33.0265 23.37 32.8253C27.6785 31.3919 30.0004 28.106 30.7884 26.8571C31.2494 27.1085 32.1463 27.5109 33.345 27.536C33.7055 27.5444 34.8287 27.5612 35.9855 26.9493C36.0274 26.9409 36.0609 26.9157 36.0944 26.899Z" fill="#231F20"/>
<path d="M29.7409 16.4793C29.5313 16.2697 29.4475 16.1188 29.5816 15.8171C29.8247 15.2638 29.942 14.6351 29.942 13.8807C29.942 10.9385 27.5279 8.54117 24.5522 8.54117C24.3762 8.54117 24.2001 8.54117 24.0241 8.54117C23.6637 8.54117 23.3032 8.54117 22.9512 8.54117C21.3753 8.54117 19.7491 8.54117 18.1481 8.53279C18.1397 8.53279 18.1313 8.53279 18.1313 8.53279C17.7289 8.53279 17.4942 8.66691 17.2931 9.01897C15.9854 11.2487 14.6442 13.5035 13.345 15.6829C12.951 16.3451 12.557 17.0074 12.1631 17.6696C11.5092 18.7676 7.92997 25.5154 7.89645 25.5825L7.86292 25.6496L7.93836 25.6579C8.25689 25.7082 8.5838 25.725 8.90233 25.7166C9.68189 25.6915 10.5034 25.6831 11.3332 25.7082C11.5092 25.7082 11.6853 25.7166 11.8697 25.725C11.8864 25.725 11.9116 25.725 11.9284 25.725C12.3307 25.725 12.5822 25.5741 12.8085 25.1969C13.9988 23.1851 15.2142 21.1482 16.3878 19.1784C17.5278 17.2588 18.7097 15.2806 19.8664 13.3275C20.0592 13.009 20.2688 12.8916 20.646 12.9C21.1992 12.9168 21.7525 12.9 22.2973 12.8916C22.5488 12.8832 22.8003 12.8832 23.0517 12.8832C23.1942 12.8832 23.3284 12.8832 23.4709 12.8749C23.6385 12.8749 23.7978 12.8665 23.9654 12.8665C24.1582 12.8665 24.3594 12.8665 24.5522 12.8832C24.9629 12.9084 25.3066 13.1347 25.4742 13.4868C25.6335 13.8221 25.6 14.1993 25.3904 14.501C25.1725 14.8112 24.8623 14.9621 24.4264 14.9621H24.4181C24.242 14.9621 24.066 14.9621 23.8984 14.9621C23.7726 14.9956 23.6469 15.0124 23.5044 15.0124C22.8087 15.004 22.1129 15.0207 21.4172 15.0124C21.2747 15.071 21.1573 15.18 21.0651 15.3476C20.6041 16.144 20.1263 16.9487 19.6569 17.7199C19.4222 18.1054 19.1875 18.4994 18.9612 18.885C18.9276 18.9437 18.9025 19.0107 18.8689 19.0946C18.8522 19.1365 18.8354 19.1784 18.8187 19.2287L18.7935 19.279L18.7851 19.2957H21.1909C22.3728 19.2957 23.5547 19.2957 24.7366 19.2957C24.8539 19.2957 24.9629 19.2957 25.0803 19.2957C25.1222 19.2957 25.1641 19.2957 25.206 19.2957C25.4742 19.2957 25.7425 19.2957 26.0023 19.3041C26.5137 19.3293 26.8992 19.6813 26.9663 20.1926C27.0334 20.6872 26.7316 21.1482 26.2538 21.2907C26.0694 21.3494 25.8598 21.3494 25.667 21.3578C25.6 21.3578 25.5329 21.3578 25.4659 21.3578C25.4323 21.3746 25.3988 21.3829 25.3569 21.3997C25.1641 21.4584 24.9545 21.4668 24.7534 21.4668C23.4876 21.4668 22.2135 21.4751 20.9478 21.4751C22.5907 21.4751 24.1917 21.4751 25.667 21.4751C25.8682 21.4751 26.0862 21.4668 26.2873 21.4081C26.8154 21.2488 27.1423 20.7375 27.0753 20.1926C27.0082 19.6394 26.5639 19.2371 26.0107 19.2203C25.7006 19.2035 25.382 19.2119 25.0803 19.2119C24.9629 19.2119 24.8539 19.2119 24.7366 19.2119C23.5547 19.2119 22.3728 19.2119 21.1909 19.2119H18.936C18.9444 19.1868 18.9528 19.1616 18.9612 19.1449C18.9863 19.0694 19.0114 19.0107 19.045 18.9521C19.2797 18.5665 19.506 18.1725 19.7407 17.7869C20.2101 17.0074 20.6879 16.211 21.1489 15.4147C21.2998 15.1549 21.4591 15.071 21.7776 15.0794C22.3309 15.0962 22.8925 15.0878 23.4289 15.0878C23.7475 15.0878 24.0828 15.0878 24.4097 15.0878C24.8791 15.0878 25.2312 14.9285 25.4659 14.5849C25.7006 14.2496 25.7341 13.8304 25.5581 13.4616C25.3737 13.076 24.9964 12.8246 24.5438 12.7994C24.1834 12.7743 23.8062 12.7826 23.4541 12.791C23.3116 12.791 23.1775 12.7994 23.035 12.7994C22.7835 12.7994 22.532 12.8078 22.2806 12.8078C21.7441 12.8162 21.1825 12.8246 20.6376 12.8162C20.5119 12.8162 20.4113 12.8246 20.3107 12.8497C20.0844 12.9084 19.9167 13.0509 19.7659 13.3024C18.6091 15.2554 17.4272 17.2337 16.2872 19.1532C15.1137 21.1231 13.8982 23.1684 12.7079 25.1718C12.49 25.5406 12.272 25.6663 11.8613 25.6496C11.7439 25.6496 11.6266 25.6412 11.5092 25.6412C11.1069 25.6328 10.7045 25.6244 10.3106 25.6244C9.82439 25.6244 9.35497 25.6328 8.89394 25.6496C8.60894 25.6579 8.31556 25.6412 8.02218 25.6076C8.39939 24.9035 11.635 18.8096 12.2553 17.7701C12.6492 17.1079 13.0432 16.4457 13.4372 15.7835C14.7364 13.6041 16.0776 11.3409 17.3853 9.11956C17.5781 8.79264 17.7792 8.68367 18.1564 8.68367C19.7575 8.70044 21.3837 8.70044 22.9595 8.69206C23.496 8.69206 24.0241 8.69206 24.5606 8.69206C24.6444 8.69206 24.7198 8.69206 24.8037 8.70044C27.6034 8.82617 29.8414 11.1229 29.8414 13.931C29.8414 14.6687 29.7241 15.289 29.4894 15.8254C29.3301 16.1775 29.4391 16.3787 29.6654 16.605C30.906 17.8372 31.4592 19.5221 31.1826 21.2237C31.0485 22.0619 30.7216 22.8331 30.2354 23.4869C29.7492 24.1407 29.1122 24.6772 28.341 25.0628C27.6788 25.3897 26.9831 25.5825 26.2789 25.6328C26.1532 25.6412 26.0359 25.6496 25.9101 25.6496C22.3812 25.6496 18.8606 25.6496 15.4573 25.6496C15.3819 25.6496 15.2981 25.6412 15.1975 25.6412C15.1639 25.6412 15.1304 25.6412 15.0885 25.6328C15.0969 25.6076 15.1053 25.5909 15.1137 25.5657C15.1472 25.4987 15.1639 25.4484 15.1891 25.4065C15.407 25.0376 15.6334 24.6604 15.8597 24.2916C16.3459 23.4869 16.8404 22.6571 17.3266 21.8272C17.4523 21.6093 17.5948 21.5171 17.8295 21.5003C17.7122 21.5003 17.5948 21.5003 17.4859 21.5003C17.3937 21.559 17.3098 21.6512 17.2344 21.7769C16.7482 22.5984 16.2537 23.4366 15.7675 24.2413C15.5412 24.6101 15.3232 24.9874 15.0969 25.3562C15.0634 25.4065 15.0466 25.4651 15.0131 25.5322C14.9963 25.5741 14.9795 25.616 14.9544 25.6663L14.9209 25.7334H14.9963C15.0634 25.7334 15.1304 25.7418 15.1807 25.7418C15.2813 25.7501 15.3651 25.7501 15.4489 25.7501C18.76 25.7501 22.1884 25.7501 25.6251 25.7501H25.9017C26.3209 25.7501 26.74 25.6999 27.1591 25.5993C27.5698 25.4987 27.9806 25.3478 28.3745 25.155C29.9337 24.3838 30.9898 22.9504 31.2665 21.2404C31.5766 19.4466 31.0066 17.7366 29.7409 16.4793Z" fill="#616264"/>
<path d="M27.4692 25.1387C27.092 25.3315 26.698 25.474 26.2957 25.5746C26.0861 25.6249 25.8682 25.6668 25.6586 25.6919C25.449 25.7171 25.2395 25.7338 25.0215 25.7338C21.5261 25.7338 18.039 25.7338 14.5436 25.7338C14.4179 25.7338 14.2921 25.7254 14.0909 25.7171C14.158 25.5746 14.1915 25.4907 14.2334 25.4069C14.9459 24.1999 15.6668 23.0012 16.3709 21.7941C16.5218 21.5343 16.7062 21.4337 17.008 21.4337C17.1757 21.4337 17.3349 21.4337 17.5026 21.4337C17.6199 21.4337 17.7373 21.4337 17.8462 21.4337C18.7096 21.4337 19.5646 21.4421 20.428 21.4421C20.5957 21.4421 20.7633 21.4421 20.9393 21.4421C22.2051 21.4421 23.4792 21.4421 24.7449 21.4337C24.9461 21.4337 25.1557 21.4253 25.3484 21.3666C25.382 21.3582 25.4239 21.3415 25.4574 21.3247C25.9017 21.1403 26.1615 20.6793 26.1029 20.1931C26.0358 19.7069 25.6837 19.3297 25.1976 19.2627C25.164 19.2543 25.1221 19.2543 25.0886 19.2543C24.6611 19.2375 24.242 19.2459 23.8145 19.2459C22.138 19.2459 20.4615 19.2459 18.7851 19.2459H17.9217C17.9804 19.095 18.0139 18.9944 18.0642 18.9022C18.7683 17.7119 19.4892 16.53 20.1765 15.3313C20.3442 15.0379 20.537 14.9541 20.8555 14.9625C21.0399 14.9709 21.2243 14.9709 21.4087 14.9709C22.1045 14.9793 22.8002 14.9625 23.4959 14.9709C23.6384 14.9709 23.7642 14.9541 23.8899 14.9206C24.1414 14.8535 24.3509 14.711 24.5102 14.4763C24.9377 13.8644 24.6276 13.0597 23.957 12.825C23.8564 12.7915 23.7474 12.7663 23.6301 12.7579C23.1271 12.7244 22.6242 12.7496 22.1212 12.7579C21.5177 12.7663 20.9142 12.7831 20.319 12.7831C20.1179 12.7831 19.9167 12.7831 19.7155 12.7747C19.3215 12.7663 19.0952 12.8921 18.894 13.2357C16.547 17.2341 14.1748 21.2157 11.8193 25.2141C11.7271 25.365 11.6349 25.4824 11.5259 25.5662C11.4673 25.6081 11.4086 25.6416 11.3415 25.6668C11.2242 25.7087 11.0901 25.7254 10.9308 25.7171C9.94168 25.6835 8.94418 25.6835 7.95506 25.7171C7.62815 25.7254 7.30962 25.7087 6.99109 25.6584C6.99109 25.6584 10.6039 18.8016 11.2661 17.6784C12.9845 14.7697 14.7112 11.861 16.4129 8.94398C16.614 8.6003 16.832 8.47456 17.2343 8.47456C19.3718 8.49971 21.5093 8.48295 23.6468 8.48295C23.7809 8.48295 23.9067 8.49133 24.0408 8.49971C24.3007 8.51648 24.5605 8.55839 24.8036 8.60868C27.2009 9.13677 28.9948 11.2659 28.9948 13.8225C28.9948 14.4931 28.9026 15.1469 28.6343 15.7588C28.4918 16.0774 28.5673 16.2534 28.802 16.4881C31.4173 19.1369 30.7383 23.5041 27.4692 25.1387Z" fill="#811319"/>
<path fill-rule="evenodd" clip-rule="evenodd" d="M35.667 18.5752C35.449 18.7847 35.5245 19.2122 35.8346 19.5475C36.1448 19.8744 36.5723 19.975 36.7902 19.7655C37.0081 19.5559 36.9327 19.1284 36.6226 18.7931C36.3124 18.4662 35.8849 18.3656 35.667 18.5752Z" fill="#811319"/>
<path fill-rule="evenodd" clip-rule="evenodd" d="M36.2874 26.3966C36.2622 26.405 36.2455 26.4218 36.2203 26.4301C36.1868 26.4469 36.1533 26.4721 36.1114 26.4888C34.9546 27.1007 33.8314 27.084 33.4709 27.0756C32.2806 27.0504 31.3753 26.6397 30.9143 26.3966C31.0903 26.405 31.325 26.405 31.5933 26.405H31.6017C31.6771 26.405 31.7525 26.405 31.8364 26.3966C32.0292 26.3966 32.5572 26.3799 32.9596 26.3296C33.3871 26.2793 34.0409 26.1451 34.8456 25.7512C35.2815 25.9943 35.7761 26.2206 36.2874 26.3966Z" fill="#811319"/>
<path fill-rule="evenodd" clip-rule="evenodd" d="M36.346 17.4943C38.7853 20.7551 37.7291 21.0149 32.9679 18.9612C35.7676 20.4701 36.698 22.9512 35.885 24.6193C36.4633 24.9211 37.1339 25.1726 37.6788 25.2396C38.4164 24.3595 38.8523 23.2446 38.8858 22.0543C38.9194 20.1934 37.9554 18.4499 36.346 17.4943Z" fill="#811319"/>
<path fill-rule="evenodd" clip-rule="evenodd" d="M39.1124 22.7916C39.9339 23.4454 40.3949 24.2501 40.2943 24.9458C40.2189 25.4572 39.9758 25.6416 39.5064 25.935C39.8585 25.8092 40.2105 25.5494 40.4368 25.1219C39.6154 28.2066 32.5658 25.4236 33.1442 22.8251C32.8676 23.6633 33.337 24.292 33.4124 24.4094C33.1442 24.1579 32.9514 23.6298 32.9095 23.2777C32.876 22.9676 32.9346 22.6742 33.0939 22.3976C33.4795 21.7354 34.368 21.5007 35.2985 21.5007C35.3571 21.6013 35.4158 21.7019 35.4661 21.8108C35.4745 21.8276 35.4829 21.8444 35.4912 21.8527C34.8626 21.9282 34.368 22.188 34.1668 22.6239C33.907 23.1939 34.1585 23.7052 34.6279 24.1327C35.1476 24.6105 35.9858 25.0045 36.6815 25.2644C35.9188 25.1051 35.2314 24.7698 34.5524 24.4177C35.6673 25.2895 38.7017 26.2954 39.4226 24.7363C39.6405 24.2752 39.4645 23.7052 39.0202 23.2023C39.0621 23.0598 39.0873 22.9257 39.1124 22.7916Z" fill="#231F20"/>
<path fill-rule="evenodd" clip-rule="evenodd" d="M39.8078 20.4869C39.8749 21.0066 39.7826 20.9144 40.3024 20.9815C39.7826 21.0486 39.8749 20.9563 39.8078 21.4761C39.7407 20.9563 39.8329 21.0486 39.3132 20.9815C39.8246 20.9144 39.7324 21.0066 39.8078 20.4869Z" fill="#231F20"/>
<path d="M39.3132 21.4761H40.3024V20.4869H39.3132V21.4761Z" fill="#231F20"/>
<path fill-rule="evenodd" clip-rule="evenodd" d="M38.8439 18.2989C38.911 18.8186 38.8188 18.7264 39.3385 18.7935C38.8188 18.8606 38.911 18.7683 38.8439 19.2881C38.7769 18.7683 38.8691 18.8606 38.3494 18.7935C38.8691 18.7181 38.7769 18.8103 38.8439 18.2989Z" fill="#231F20"/>
<path d="M38.3494 19.2881H39.3385V18.2989H38.3494V19.2881Z" fill="#231F20"/>
<path fill-rule="evenodd" clip-rule="evenodd" d="M40.2101 18.8018C40.2772 19.3216 40.185 19.2293 40.7047 19.2964C40.185 19.3635 40.2772 19.2713 40.2101 19.791C40.1431 19.2713 40.2353 19.3635 39.7156 19.2964C40.2353 19.2293 40.1431 19.3216 40.2101 18.8018Z" fill="#231F20"/>
<path d="M39.7156 19.791H40.7047V18.8018H39.7156V19.791Z" fill="#231F20"/>
</svg>
