<svg width="15" height="17" viewBox="0 0 15 17" fill="none" xmlns="http://www.w3.org/2000/svg">
    <path
        d="M14.2095 13.0725C13.7583 12.6703 13.3634 12.2092 13.0352 11.7017C12.6769 11.0011 12.4622 10.2361 12.4036 9.4514V7.14029C12.4067 5.90783 11.9596 4.71665 11.1464 3.79057C10.3332 2.86449 9.20976 2.26724 7.98724 2.11105V1.50754C7.98724 1.3419 7.92143 1.18304 7.80431 1.06591C7.68718 0.948782 7.52832 0.88298 7.36267 0.88298C7.19703 0.88298 7.03817 0.948782 6.92104 1.06591C6.80391 1.18304 6.73811 1.3419 6.73811 1.50754V2.12041C5.52654 2.28786 4.4167 2.88871 3.61415 3.81169C2.8116 4.73466 2.37074 5.9172 2.3732 7.14029V9.4514C2.31461 10.2361 2.09988 11.0011 1.74162 11.7017C1.41923 12.2081 1.0306 12.6691 0.586066 13.0725C0.536163 13.1163 0.496167 13.1703 0.468741 13.2308C0.441315 13.2913 0.427086 13.3569 0.427002 13.4233V14.0596C0.427002 14.1837 0.476292 14.3027 0.564028 14.3904C0.651764 14.4781 0.77076 14.5274 0.894838 14.5274H13.9007C14.0248 14.5274 14.1438 14.4781 14.2315 14.3904C14.3192 14.3027 14.3685 14.1837 14.3685 14.0596V13.4233C14.3684 13.3569 14.3542 13.2913 14.3268 13.2308C14.2994 13.1703 14.2594 13.1163 14.2095 13.0725ZM1.4001 13.5918C1.83538 13.1713 2.21863 12.7001 2.54162 12.1882C2.9929 11.3422 3.25621 10.4086 3.31355 9.4514V7.14029C3.295 6.592 3.38697 6.04559 3.58398 5.53359C3.781 5.02158 4.07903 4.55446 4.46033 4.16003C4.84164 3.76561 5.29841 3.45195 5.80346 3.23773C6.30851 3.02351 6.8515 2.91311 7.4001 2.91311C7.9487 2.91311 8.49169 3.02351 8.99674 3.23773C9.50179 3.45195 9.95856 3.76561 10.3399 4.16003C10.7212 4.55446 11.0192 5.02158 11.2162 5.53359C11.4132 6.04559 11.5052 6.592 11.4867 7.14029V9.4514C11.544 10.4086 11.8073 11.3422 12.2586 12.1882C12.5816 12.7001 12.9648 13.1713 13.4001 13.5918H1.4001Z"
        fill="white" />
    <path
        d="M7.42104 16.0901C7.71574 16.0833 7.99856 15.9725 8.21945 15.7773C8.44034 15.5821 8.58507 15.315 8.62806 15.0234H6.16724C6.21143 15.323 6.36294 15.5963 6.59358 15.7925C6.82421 15.9887 7.11827 16.0945 7.42104 16.0901Z"
        fill="white" />
</svg>