<svg width="14" height="16" viewBox="0 0 14 16" fill="none" xmlns="http://www.w3.org/2000/svg">
    <path
        d="M1 3.82353C1 2.26692 2.26778 1 3.82353 1C5.37928 1 6.64706 2.26692 6.64706 3.82353C6.64706 4.87831 6.06514 5.80102 5.20292 6.28666C4.79481 6.51585 4.32536 6.64706 3.82353 6.64706C3.3217 6.64706 2.85225 6.51585 2.44414 6.28666C1.58106 5.80102 1 4.87831 1 3.82353V3.82353Z"
        stroke="white" />
    <path
        d="M4.0682 12.8761C4.0682 11.1126 5.15604 9.62462 6.64706 9.15017C6.32676 8.76948 5.86505 8.52942 5.35269 8.52942H2.74884C1.78464 8.52942 1 9.37674 1 10.418V15.0658C1 15.0949 1.0217 15.1177 1.04801 15.1177H4.72853C4.31286 14.4841 4.0682 13.7114 4.0682 12.8761Z"
        stroke="white" stroke-width="0.9" />
    <path
        d="M8.1821 15.1452L6.19014 13.1436C5.93483 12.8824 5.93692 12.4633 6.19468 12.2046C6.45209 11.9459 6.86924 11.9438 7.12909 12.2L8.65123 13.7299L12.1653 10.1987C12.2895 10.0722 12.459 10.0007 12.6358 10C12.8123 9.9993 12.9822 10.0698 13.1074 10.1952C13.2323 10.3211 13.3024 10.4917 13.3017 10.6691C13.301 10.8468 13.2298 11.0171 13.1043 11.1419L9.1207 15.1449C8.99618 15.27 8.82737 15.3401 8.65123 15.3401C8.47509 15.3401 8.30627 15.2696 8.18175 15.1449L8.1821 15.1452Z"
        fill="white" />
</svg>