<svg width="515" height="673" viewBox="0 0 515 673" fill="none" xmlns="http://www.w3.org/2000/svg">
<path d="M514 336.642C476.808 416.619 395.794 472.045 301.831 472.045C172.643 472.045 67.9055 367.307 67.9055 238.12C67.9055 108.932 172.643 4.19458 301.831 4.19458C304.317 4.19458 306.803 4.19458 309.186 4.29818L285.566 58.7909L285.255 59.6197C194.399 68.5291 123.331 145.192 123.331 238.43C123.331 337.678 203.723 418.07 302.97 418.07C327.937 418.07 349.382 412.372 356.738 409.886C409.987 392.17 438.684 351.56 448.422 336.124C454.12 339.232 465.205 344.204 480.02 344.515C484.474 344.619 498.357 344.826 512.653 337.263C513.171 337.16 513.586 336.849 514 336.642Z" fill="#E2C4CD"/>
<path d="M247.685 41.5107V316.981" stroke="#ECF6FF" stroke-width="22"/>
<path d="M251.768 31.634V317.871" stroke="#DCEEFF" stroke-width="17"/>
<path d="M158.885 30.4028V318.567" stroke="#B6D4FF" stroke-width="20"/>
<path d="M333.723 32.7578V315.997" stroke="#ECF6FF" stroke-width="22"/>
<path fill-rule="evenodd" clip-rule="evenodd" d="M344.389 318.567H162.016V30.4025H344.389V318.567ZM333.255 307.419H173.15V41.5507H333.255V307.419Z" fill="#DCEEFF"/>
<path fill-rule="evenodd" clip-rule="evenodd" d="M379.795 332.771H153.902V318.567H379.795V332.771Z" fill="#CCE3FF"/>
<path fill-rule="evenodd" clip-rule="evenodd" d="M206.431 332.771H150.476V318.567H206.431V332.771Z" fill="#B6D4FF"/>
<path d="M330.542 131.138H162.016" stroke="#DCEEFF" stroke-width="17"/>
<path d="M330.542 220.647H162.016" stroke="#DCEEFF" stroke-width="17"/>
<path fill-rule="evenodd" clip-rule="evenodd" d="M215.525 302.028C216.315 308.671 219.675 314.528 224.584 318.567H256.684C261.593 314.528 264.954 308.671 265.748 302.028H215.525Z" fill="#B6D4FF"/>
<path fill-rule="evenodd" clip-rule="evenodd" d="M215.525 288.221C217.019 300.776 227.692 310.517 240.636 310.517C253.58 310.517 264.253 300.776 265.747 288.221H215.525Z" fill="#B6D4FF"/>
<path fill-rule="evenodd" clip-rule="evenodd" d="M309.752 308.15L304.302 254.976H287.261L281.811 308.15C281.24 313.723 285.607 318.567 291.202 318.567H300.362C305.956 318.567 310.324 313.723 309.752 308.15Z" fill="#CCE3FF"/>
<path fill-rule="evenodd" clip-rule="evenodd" d="M341.181 405.657V406.498C341.181 413.516 335.743 419.201 329.041 419.201H233.947C219.278 419.201 207.99 405.11 210.014 389.32L220.751 301.344C221.68 294.058 227.409 288.636 234.179 288.636H262.363C269.128 288.636 274.857 294.058 275.792 301.344L286.528 389.32C286.61 389.949 286.668 390.577 286.703 391.2L286.76 391.19C286.76 391.19 288.746 405.657 307.205 405.657H341.181Z" fill="#DCEEFF"/>
<path fill-rule="evenodd" clip-rule="evenodd" d="M239.945 518.3C239.945 522.787 236.311 526.425 231.83 526.425C227.348 526.425 223.716 522.787 223.716 518.3C223.716 513.814 227.348 510.175 231.83 510.175C236.311 510.175 239.945 513.814 239.945 518.3Z" fill="#B6D4FF"/>
<path fill-rule="evenodd" clip-rule="evenodd" d="M313.993 519.93H233.799C230.728 519.93 228.214 517.413 228.214 514.338C228.214 511.263 230.728 508.746 233.799 508.746H313.993C317.065 508.746 319.578 511.263 319.578 514.338C319.578 517.413 317.065 519.93 313.993 519.93Z" fill="#CCE3FF"/>
<path fill-rule="evenodd" clip-rule="evenodd" d="M269.781 517.27H278.011V418.862H269.781V517.27Z" fill="#CCE3FF"/>
<path fill-rule="evenodd" clip-rule="evenodd" d="M302.095 418.862L273.896 431.72L245.697 418.862H302.095Z" fill="#CCE3FF"/>
<path fill-rule="evenodd" clip-rule="evenodd" d="M274.52 519.93H264.114C261.042 519.93 258.529 517.413 258.529 514.338C258.529 511.263 261.042 508.746 264.114 508.746H274.52C277.591 508.746 280.104 511.263 280.104 514.338C280.104 517.413 277.591 519.93 274.52 519.93Z" fill="#B6D4FF"/>
<path fill-rule="evenodd" clip-rule="evenodd" d="M267.694 518.3C267.694 522.787 264.06 526.425 259.579 526.425C255.097 526.425 251.464 522.787 251.464 518.3C251.464 513.814 255.097 510.175 259.579 510.175C264.06 510.175 267.694 513.814 267.694 518.3Z" fill="#B6D4FF"/>
<path fill-rule="evenodd" clip-rule="evenodd" d="M324.614 518.3C324.614 522.787 320.981 526.425 316.499 526.425C312.017 526.425 308.385 522.787 308.385 518.3C308.385 513.814 312.017 510.175 316.499 510.175C320.981 510.175 324.614 513.814 324.614 518.3Z" fill="#B6D4FF"/>
<path fill-rule="evenodd" clip-rule="evenodd" d="M158.084 411.593C158.084 420.851 152.447 428.357 145.494 428.357C138.54 428.357 132.903 420.851 132.903 411.593C132.903 402.334 138.54 394.829 145.494 394.829C152.447 394.829 158.084 402.334 158.084 411.593Z" fill="#CCE3FF"/>
<path d="M145.588 499.644V412.445" stroke="#DCEEFF" stroke-width="9"/>
<path fill-rule="evenodd" clip-rule="evenodd" d="M132.029 436.219C137.974 442.156 139.179 450.579 134.72 455.032C130.261 459.485 121.826 458.282 115.881 452.345C109.935 446.407 108.73 437.984 113.189 433.531C117.649 429.078 126.083 430.282 132.029 436.219Z" fill="#CCE3FF"/>
<path fill-rule="evenodd" clip-rule="evenodd" d="M174.48 448.417C179.275 453.205 177.979 462.262 171.587 468.645C165.195 475.029 156.126 476.322 151.332 471.535" fill="#CCE3FF"/>
<path d="M168.021 456.851L145.96 478.945" stroke="#DCEEFF" stroke-width="9"/>
<path d="M161.647 435.723L145.525 451.634" stroke="#DCEEFF" stroke-width="9"/>
<path d="M128.784 470.648L145.627 487.657" stroke="#DCEEFF" stroke-width="9"/>
<path d="M122.979 443.421L145.494 466.173" stroke="#DCEEFF" stroke-width="9"/>
<path fill-rule="evenodd" clip-rule="evenodd" d="M152.339 529.59H138.837C128.465 529.59 119.98 521.117 119.98 510.76V493.041H171.195V510.76C171.195 521.117 162.71 529.59 152.339 529.59Z" fill="#ECF6FF"/>
<path d="M171.195 502.889H119.98" stroke="#DCEEFF" stroke-width="9"/>
<path d="M171.195 512.768H119.98" stroke="#DCEEFF" stroke-width="9"/>
<path d="M245.534 226.516C226.4 229.185 234.416 251.222 239.794 263.12C246.106 277.086 240.577 286.45 240.577 286.45L211.001 275.95C221.856 262.145 209.868 254.457 212.819 237.998C215.467 223.233 229.836 216.572 238.915 216.886C243.446 217.043 247.155 218.21 250.091 219.706C250.203 219.763 250.309 219.824 250.411 219.888C255.774 214.381 263.198 211.089 271.779 211.089C289.425 211.089 305.279 225.011 305.279 243.497C305.279 261.983 290.974 276.968 273.328 276.968C255.682 276.968 241.378 261.983 241.378 243.497C241.378 237.179 242.868 231.394 245.534 226.516Z" fill="#19141E"/>
<path fill-rule="evenodd" clip-rule="evenodd" d="M276.449 277.852C276.449 277.852 269.888 278.046 267.092 276.519L276.101 282.175L276.449 277.852Z" fill="#CF3E83"/>
<path d="M300.91 253.123C299.926 260.736 297.374 271.463 291.072 275.653C287.728 277.876 281.639 278.15 276.448 277.851L275.261 292.591L258.323 285.619C258.323 285.619 259.952 269.351 260.658 263.115C257.253 260.03 251.453 258.599 251.442 253.357C251.442 251.541 252.503 248.4 256.42 248.39C261.677 248.385 260.926 254.687 260.926 254.687C261.578 254.94 262.231 254.925 262.882 254.693C268.087 254.476 282.565 252.297 292.409 235.476C293.558 241.138 295.946 248.195 300.91 253.123Z" fill="#FEF8F9"/>
<path fill-rule="evenodd" clip-rule="evenodd" d="M290.713 254.673L294.468 263.776L290.112 263.689L290.713 254.673Z" fill="#405FD3"/>
<path fill-rule="evenodd" clip-rule="evenodd" d="M286.715 255.068C286.621 256.886 285.552 258.303 284.326 258.233C283.1 258.162 282.182 256.631 282.276 254.812C282.37 252.993 283.439 251.577 284.665 251.647C285.891 251.718 286.809 253.25 286.715 255.068Z" fill="#0D0B6D"/>
<path fill-rule="evenodd" clip-rule="evenodd" d="M298.227 254.777C298.133 256.596 297.064 258.013 295.838 257.942C294.612 257.872 293.694 256.34 293.788 254.522C293.881 252.703 294.951 251.286 296.176 251.356C297.402 251.427 298.32 252.959 298.227 254.777Z" fill="#0D0B6D"/>
<path d="M289.043 268.049C289.043 268.049 286.204 268.966 283.36 265.803" stroke="#1C295E" stroke-width="3"/>
<path opacity="0.402786" fill-rule="evenodd" clip-rule="evenodd" d="M276.439 277.852C276.439 277.852 269.878 278.046 267.081 276.518L276.09 282.175L276.439 277.852Z" fill="black"/>
<path fill-rule="evenodd" clip-rule="evenodd" d="M250.073 360.622L246.567 360.57C246.567 360.57 246.572 360.515 246.577 360.398C247.784 360.484 248.952 360.555 250.073 360.622Z" fill="#C83820"/>
<path d="M321.519 398.618L309.944 400.068L291.302 370.912L290.621 361.22L262.221 360.799L250.099 360.622H250.073C248.952 360.555 247.784 360.485 246.577 360.398C231.309 359.333 210.154 356.364 208.703 348.144C206.07 333.256 225.991 304.364 228.346 301.015C228.493 300.807 228.568 300.695 228.568 300.695C231.907 295.925 235.267 292.216 238.403 290.242C244.502 286.401 250.221 285.558 255.655 285.574L257.111 275.024L279.281 278.084L278.073 286.852C284.583 287.476 289.013 288.75 293.158 292.555C306.469 304.775 307.448 350.539 307.448 350.539L321.519 398.618Z" fill="#8A1538"/>
<path fill-rule="evenodd" clip-rule="evenodd" d="M262.221 360.799V361.002C262.221 361.002 257.137 361.012 250.099 360.622L262.221 360.799Z" fill="#C83820"/>
<path opacity="0.201149" d="M290.214 361.103C291.841 340.429 303.109 336.057 294.99 312.872" stroke="black" stroke-width="3"/>
<path fill-rule="evenodd" clip-rule="evenodd" d="M309.382 386.679L267.044 381.799C265.657 381.639 264.744 380.276 265.124 378.933L281.853 319.83C282.155 318.761 283.187 318.07 284.291 318.197L326.629 323.077C328.015 323.237 328.929 324.6 328.548 325.943L311.82 385.046C311.517 386.115 310.485 386.806 309.382 386.679Z" fill="#18181C"/>
<path d="M271.786 364.592C271.866 364.614 271.948 364.636 272.03 364.659C274.972 365.462 277.978 365.947 282.16 365.396C284.85 365.045 287.162 364.585 287.136 364.156C287.062 363.071 285.757 362.828 285.757 362.828L283.245 362.949L280.829 362.806C280.829 362.806 291.93 360.707 291.93 360.381C291.895 359.236 290.073 358.772 290.073 358.772C290.073 358.772 293.891 358.164 293.847 357.557C293.743 356.013 292.039 355.896 292.039 355.896C292.039 355.896 292.511 355.488 292.464 355.11C292.277 353.588 289.561 353.336 288.268 353.15C288.268 353.15 283.87 353.089 282.559 352.763C279.114 351.903 277.063 351.135 275.776 350.493L284.373 320.12C284.676 319.052 285.708 318.361 286.811 318.488L329.149 323.368C330.536 323.527 331.449 324.891 331.068 326.233L314.34 385.337C314.038 386.405 313.006 387.096 311.902 386.97L269.564 382.09C268.178 381.929 267.264 380.566 267.644 379.224L271.786 364.592Z" fill="#FCBDA4"/>
<path fill-rule="evenodd" clip-rule="evenodd" d="M291.93 360.382C291.896 359.236 290.073 358.772 290.073 358.772C290.073 358.772 293.891 358.165 293.847 357.557C293.743 356.013 292.039 355.896 292.039 355.896C292.039 355.896 292.512 355.488 292.464 355.11C292.291 353.7 289.949 353.38 288.577 353.193C288.467 353.178 288.364 353.163 288.268 353.15C288.268 353.15 283.87 353.089 282.559 352.764C276.026 351.132 274.508 349.831 273.705 349.098C273.681 349.076 273.657 349.054 273.634 349.033C273.568 348.971 273.506 348.915 273.445 348.864C273.49 348.815 273.541 348.734 273.594 348.648C273.67 348.528 273.75 348.401 273.823 348.348L274.939 344.257C274.122 344.345 273.323 344.373 272.531 344.4C271.42 344.438 270.323 344.476 269.211 344.681C266.178 345.241 264.382 345.944 264.382 345.944L260.513 347.267L257.706 357.653C258.769 358.598 261.315 360.464 263.042 361.405C266.377 363.221 267.846 363.591 270.1 364.158C270.478 364.253 270.879 364.354 271.315 364.468C271.364 364.481 271.414 364.494 271.464 364.507C271.648 364.555 271.836 364.605 272.03 364.659C274.972 365.462 277.978 365.947 282.16 365.396C284.85 365.045 287.162 364.585 287.136 364.156C287.062 363.071 285.757 362.828 285.757 362.828L283.245 362.95L280.829 362.806C280.829 362.806 291.93 360.707 291.93 360.382ZM327.691 406.594C327.219 405.667 323.978 401.774 321.318 398.643L310.239 400.031C308.97 407.514 314.241 418.207 314.241 418.207C314.241 418.207 311.499 416.535 310.954 417.997C310.711 418.648 310.161 423.848 320.431 424.198C321.522 424.236 324.144 422.018 324.144 422.018C324.144 422.018 322.232 425.67 325.16 426.387C325.16 426.387 329.88 419.315 329.952 417.742C330.025 416.168 328.51 408.203 327.691 406.594Z" fill="#EBD4D8"/>
<path opacity="0.148065" d="M316.338 403.936C316.338 403.936 317.779 409.38 322.725 411.076C324.455 411.669 324.023 418.672 328.261 417.834" stroke="black" stroke-width="3"/>
<path fill-rule="evenodd" clip-rule="evenodd" d="M288.675 323.994C288.341 325.041 287.63 325.75 287.086 325.577C286.541 325.404 286.37 324.414 286.704 323.367C287.037 322.319 287.748 321.61 288.293 321.783C288.837 321.956 289.008 322.946 288.675 323.994Z" fill="#020101"/>
<path opacity="0.200498" d="M246.028 316.971L235.342 334.666L261.912 345.179" stroke="black" stroke-width="3"/>
<path fill-rule="evenodd" clip-rule="evenodd" d="M403.845 455.684L398.613 445.387L386.022 447.284L403.148 475.357L440.713 450.427C427.784 447.543 403.845 455.684 403.845 455.684ZM345.02 509.953L346.33 498.521L334.824 493.18L333.123 525.92L378.547 525.841C369.386 516.341 345.02 509.953 345.02 509.953Z" fill="#0D0B6D"/>
<path fill-rule="evenodd" clip-rule="evenodd" d="M399.938 446.847L387.177 449.512L394.525 461.3L405.105 454.85L399.938 446.847ZM346.342 500.853L334.273 496.056L333.902 509.89L346.239 510.343L346.342 500.853Z" fill="#D99292"/>
<path d="M364.582 435.928L358.335 503.732H329.402L330.686 405.285L275.461 405.665C259.706 405.665 244.469 392.135 245.561 376.411L247.279 360.401L331.616 335.486C347.229 331.956 352.642 336.619 362.764 354.638L407.456 446.248L382.904 462.654L364.582 435.928Z" fill="#2F2F3D"/>
<path opacity="0.150484" fill-rule="evenodd" clip-rule="evenodd" d="M338.662 366.231L275.461 405.665L330.686 405.285L329.402 503.732H358.335L368.254 396.065C370.701 376.475 358.441 366.231 338.662 366.231Z" fill="#18181C"/>
</svg>
