<svg width="603" height="681" viewBox="0 0 603 681" fill="none" xmlns="http://www.w3.org/2000/svg">
<g filter="url(#filter0_d_1_593)">
<path d="M598 336.642C560.808 416.619 479.794 472.045 385.831 472.045C256.643 472.045 151.906 367.307 151.906 238.12C151.906 108.932 256.643 4.19458 385.831 4.19458C388.317 4.19458 390.803 4.19458 393.186 4.29818L369.566 58.7909L369.255 59.6197C278.399 68.5291 207.331 145.192 207.331 238.43C207.331 337.678 287.723 418.07 386.97 418.07C411.937 418.07 433.382 412.372 440.738 409.886C493.987 392.17 522.684 351.56 532.422 336.124C538.12 339.232 549.205 344.204 564.02 344.515C568.474 344.619 582.357 344.826 596.653 337.263C597.171 337.16 597.586 336.849 598 336.642Z" fill="#E2C4CD"/>
<path d="M331.685 41.5107V316.981" stroke="#ECF6FF" stroke-width="22"/>
<path d="M335.768 31.634V317.871" stroke="#DCEEFF" stroke-width="17"/>
<path d="M242.885 30.4028V318.567" stroke="#B6D4FF" stroke-width="20"/>
<path d="M417.723 32.7578V315.997" stroke="#ECF6FF" stroke-width="22"/>
<path fill-rule="evenodd" clip-rule="evenodd" d="M428.389 318.567H246.016V30.4025H428.389V318.567ZM417.255 307.419H257.15V41.5507H417.255V307.419Z" fill="#DCEEFF"/>
<path fill-rule="evenodd" clip-rule="evenodd" d="M463.795 332.771H237.902V318.567H463.795V332.771Z" fill="#CCE3FF"/>
<path fill-rule="evenodd" clip-rule="evenodd" d="M290.431 332.771H234.476V318.567H290.431V332.771Z" fill="#B6D4FF"/>
<path d="M414.542 131.138H246.016" stroke="#DCEEFF" stroke-width="17"/>
<path d="M414.542 220.647H246.016" stroke="#DCEEFF" stroke-width="17"/>
<path fill-rule="evenodd" clip-rule="evenodd" d="M299.525 302.028C300.315 308.671 303.675 314.528 308.584 318.567H340.684C345.593 314.528 348.954 308.671 349.748 302.028H299.525Z" fill="#B6D4FF"/>
<path fill-rule="evenodd" clip-rule="evenodd" d="M299.525 288.221C301.019 300.776 311.692 310.517 324.636 310.517C337.58 310.517 348.253 300.776 349.747 288.221H299.525Z" fill="#B6D4FF"/>
<path fill-rule="evenodd" clip-rule="evenodd" d="M393.752 308.15L388.302 254.976H371.261L365.811 308.15C365.24 313.723 369.607 318.567 375.202 318.567H384.362C389.956 318.567 394.324 313.723 393.752 308.15Z" fill="#CCE3FF"/>
<path fill-rule="evenodd" clip-rule="evenodd" d="M425.181 405.657V406.498C425.181 413.516 419.743 419.201 413.041 419.201H317.947C303.278 419.201 291.99 405.11 294.014 389.32L304.751 301.344C305.68 294.058 311.409 288.636 318.179 288.636H346.363C353.128 288.636 358.857 294.058 359.792 301.344L370.528 389.32C370.61 389.949 370.668 390.577 370.703 391.2L370.76 391.19C370.76 391.19 372.746 405.657 391.205 405.657H425.181Z" fill="#DCEEFF"/>
<path fill-rule="evenodd" clip-rule="evenodd" d="M323.945 518.3C323.945 522.787 320.311 526.425 315.83 526.425C311.348 526.425 307.716 522.787 307.716 518.3C307.716 513.814 311.348 510.175 315.83 510.175C320.311 510.175 323.945 513.814 323.945 518.3Z" fill="#B6D4FF"/>
<path fill-rule="evenodd" clip-rule="evenodd" d="M397.993 519.93H317.799C314.728 519.93 312.214 517.413 312.214 514.338C312.214 511.263 314.728 508.746 317.799 508.746H397.993C401.065 508.746 403.578 511.263 403.578 514.338C403.578 517.413 401.065 519.93 397.993 519.93Z" fill="#CCE3FF"/>
<path fill-rule="evenodd" clip-rule="evenodd" d="M353.781 517.27H362.011V418.862H353.781V517.27Z" fill="#CCE3FF"/>
<path fill-rule="evenodd" clip-rule="evenodd" d="M386.095 418.862L357.896 431.72L329.697 418.862H386.095Z" fill="#CCE3FF"/>
<path fill-rule="evenodd" clip-rule="evenodd" d="M358.52 519.93H348.114C345.042 519.93 342.529 517.413 342.529 514.338C342.529 511.263 345.042 508.746 348.114 508.746H358.52C361.591 508.746 364.104 511.263 364.104 514.338C364.104 517.413 361.591 519.93 358.52 519.93Z" fill="#B6D4FF"/>
<path fill-rule="evenodd" clip-rule="evenodd" d="M351.694 518.3C351.694 522.787 348.06 526.425 343.579 526.425C339.097 526.425 335.464 522.787 335.464 518.3C335.464 513.814 339.097 510.175 343.579 510.175C348.06 510.175 351.694 513.814 351.694 518.3Z" fill="#B6D4FF"/>
<path fill-rule="evenodd" clip-rule="evenodd" d="M408.614 518.3C408.614 522.787 404.981 526.425 400.499 526.425C396.017 526.425 392.385 522.787 392.385 518.3C392.385 513.814 396.017 510.175 400.499 510.175C404.981 510.175 408.614 513.814 408.614 518.3Z" fill="#B6D4FF"/>
<path fill-rule="evenodd" clip-rule="evenodd" d="M242.084 411.593C242.084 420.851 236.447 428.357 229.494 428.357C222.54 428.357 216.903 420.851 216.903 411.593C216.903 402.334 222.54 394.829 229.494 394.829C236.447 394.829 242.084 402.334 242.084 411.593Z" fill="#CCE3FF"/>
<path d="M229.588 499.644V412.445" stroke="#DCEEFF" stroke-width="9"/>
<path fill-rule="evenodd" clip-rule="evenodd" d="M216.029 436.219C221.974 442.156 223.179 450.579 218.72 455.032C214.261 459.485 205.826 458.282 199.881 452.345C193.935 446.407 192.73 437.984 197.189 433.531C201.649 429.078 210.083 430.282 216.029 436.219Z" fill="#CCE3FF"/>
<path fill-rule="evenodd" clip-rule="evenodd" d="M258.48 448.417C263.275 453.205 261.979 462.262 255.587 468.645C249.195 475.029 240.126 476.322 235.332 471.535" fill="#CCE3FF"/>
<path d="M252.021 456.851L229.96 478.945" stroke="#DCEEFF" stroke-width="9"/>
<path d="M245.647 435.723L229.525 451.634" stroke="#DCEEFF" stroke-width="9"/>
<path d="M212.784 470.648L229.627 487.657" stroke="#DCEEFF" stroke-width="9"/>
<path d="M206.979 443.421L229.494 466.173" stroke="#DCEEFF" stroke-width="9"/>
<path fill-rule="evenodd" clip-rule="evenodd" d="M236.339 529.59H222.837C212.465 529.59 203.98 521.117 203.98 510.76V493.041H255.195V510.76C255.195 521.117 246.71 529.59 236.339 529.59Z" fill="#ECF6FF"/>
<path d="M255.195 502.889H203.98" stroke="#DCEEFF" stroke-width="9"/>
<path d="M255.195 512.768H203.98" stroke="#DCEEFF" stroke-width="9"/>
<path d="M329.534 226.516C310.4 229.185 318.416 251.222 323.794 263.12C330.106 277.086 324.577 286.45 324.577 286.45L295.001 275.95C305.856 262.145 293.868 254.457 296.819 237.998C299.467 223.233 313.836 216.572 322.915 216.886C327.446 217.043 331.155 218.21 334.091 219.706C334.203 219.763 334.309 219.824 334.411 219.888C339.774 214.381 347.198 211.089 355.779 211.089C373.425 211.089 389.279 225.011 389.279 243.497C389.279 261.983 374.974 276.968 357.328 276.968C339.682 276.968 325.378 261.983 325.378 243.497C325.378 237.179 326.868 231.394 329.534 226.516Z" fill="#19141E"/>
<path fill-rule="evenodd" clip-rule="evenodd" d="M360.449 277.852C360.449 277.852 353.888 278.046 351.092 276.519L360.101 282.175L360.449 277.852Z" fill="#CF3E83"/>
<path d="M384.91 253.123C383.926 260.736 381.374 271.463 375.072 275.653C371.728 277.876 365.639 278.15 360.448 277.851L359.261 292.591L342.323 285.619C342.323 285.619 343.952 269.351 344.658 263.115C341.253 260.03 335.453 258.599 335.442 253.357C335.442 251.541 336.503 248.4 340.42 248.39C345.677 248.385 344.926 254.687 344.926 254.687C345.578 254.94 346.231 254.925 346.882 254.693C352.087 254.476 366.565 252.297 376.409 235.476C377.558 241.138 379.946 248.195 384.91 253.123Z" fill="#FEF8F9"/>
<path fill-rule="evenodd" clip-rule="evenodd" d="M374.713 254.673L378.468 263.776L374.112 263.689L374.713 254.673Z" fill="#405FD3"/>
<path fill-rule="evenodd" clip-rule="evenodd" d="M370.715 255.068C370.621 256.886 369.552 258.303 368.326 258.233C367.1 258.162 366.182 256.631 366.276 254.812C366.37 252.993 367.439 251.577 368.665 251.647C369.891 251.718 370.809 253.25 370.715 255.068Z" fill="#0D0B6D"/>
<path fill-rule="evenodd" clip-rule="evenodd" d="M382.227 254.777C382.133 256.596 381.064 258.013 379.838 257.942C378.612 257.872 377.694 256.34 377.788 254.522C377.881 252.703 378.951 251.286 380.176 251.356C381.402 251.427 382.32 252.959 382.227 254.777Z" fill="#0D0B6D"/>
<path d="M373.043 268.049C373.043 268.049 370.204 268.966 367.36 265.803" stroke="#1C295E" stroke-width="3"/>
<path opacity="0.402786" fill-rule="evenodd" clip-rule="evenodd" d="M360.439 277.852C360.439 277.852 353.878 278.046 351.081 276.518L360.09 282.175L360.439 277.852Z" fill="black"/>
<path fill-rule="evenodd" clip-rule="evenodd" d="M334.073 360.622L330.567 360.57C330.567 360.57 330.572 360.515 330.577 360.398C331.784 360.484 332.952 360.555 334.073 360.622Z" fill="#C83820"/>
<path d="M405.519 398.618L393.944 400.068L375.302 370.912L374.621 361.22L346.221 360.799L334.099 360.622H334.073C332.952 360.555 331.784 360.485 330.577 360.398C315.309 359.333 294.154 356.364 292.703 348.144C290.07 333.256 309.991 304.364 312.346 301.015C312.493 300.807 312.568 300.695 312.568 300.695C315.907 295.925 319.267 292.216 322.403 290.242C328.502 286.401 334.221 285.558 339.655 285.574L341.111 275.024L363.281 278.084L362.073 286.852C368.583 287.476 373.013 288.75 377.158 292.555C390.469 304.775 391.448 350.539 391.448 350.539L405.519 398.618Z" fill="#8A1538"/>
<path fill-rule="evenodd" clip-rule="evenodd" d="M346.221 360.799V361.002C346.221 361.002 341.137 361.012 334.099 360.622L346.221 360.799Z" fill="#C83820"/>
<path opacity="0.201149" d="M374.214 361.103C375.841 340.429 387.109 336.057 378.99 312.872" stroke="black" stroke-width="3"/>
<path fill-rule="evenodd" clip-rule="evenodd" d="M393.382 386.679L351.044 381.799C349.657 381.639 348.744 380.276 349.124 378.933L365.853 319.83C366.155 318.761 367.187 318.07 368.291 318.197L410.629 323.077C412.015 323.237 412.929 324.6 412.548 325.943L395.82 385.046C395.517 386.115 394.485 386.806 393.382 386.679Z" fill="#18181C"/>
<path d="M355.786 364.592C355.866 364.614 355.948 364.636 356.03 364.659C358.972 365.462 361.978 365.947 366.16 365.396C368.85 365.045 371.162 364.585 371.136 364.156C371.062 363.071 369.757 362.828 369.757 362.828L367.245 362.949L364.829 362.806C364.829 362.806 375.93 360.707 375.93 360.381C375.895 359.236 374.073 358.772 374.073 358.772C374.073 358.772 377.891 358.164 377.847 357.557C377.743 356.013 376.039 355.896 376.039 355.896C376.039 355.896 376.511 355.488 376.464 355.11C376.277 353.588 373.561 353.336 372.268 353.15C372.268 353.15 367.87 353.089 366.559 352.763C363.114 351.903 361.063 351.135 359.776 350.493L368.373 320.12C368.676 319.052 369.708 318.361 370.811 318.488L413.149 323.368C414.536 323.527 415.449 324.891 415.068 326.233L398.34 385.337C398.038 386.405 397.006 387.096 395.902 386.97L353.564 382.09C352.178 381.929 351.264 380.566 351.644 379.224L355.786 364.592Z" fill="#FCBDA4"/>
<path fill-rule="evenodd" clip-rule="evenodd" d="M375.93 360.382C375.896 359.236 374.073 358.772 374.073 358.772C374.073 358.772 377.891 358.165 377.847 357.557C377.743 356.013 376.039 355.896 376.039 355.896C376.039 355.896 376.512 355.488 376.464 355.11C376.291 353.7 373.949 353.38 372.577 353.193C372.467 353.178 372.364 353.163 372.268 353.15C372.268 353.15 367.87 353.089 366.559 352.764C360.026 351.132 358.508 349.831 357.705 349.098C357.681 349.076 357.657 349.054 357.634 349.033C357.568 348.971 357.506 348.915 357.445 348.864C357.49 348.815 357.541 348.734 357.594 348.648C357.67 348.528 357.75 348.401 357.823 348.348L358.939 344.257C358.122 344.345 357.323 344.373 356.531 344.4C355.42 344.438 354.323 344.476 353.211 344.681C350.178 345.241 348.382 345.944 348.382 345.944L344.513 347.267L341.706 357.653C342.769 358.598 345.315 360.464 347.042 361.405C350.377 363.221 351.846 363.591 354.1 364.158C354.478 364.253 354.879 364.354 355.315 364.468C355.364 364.481 355.414 364.494 355.464 364.507C355.648 364.555 355.836 364.605 356.03 364.659C358.972 365.462 361.978 365.947 366.16 365.396C368.85 365.045 371.162 364.585 371.136 364.156C371.062 363.071 369.757 362.828 369.757 362.828L367.245 362.95L364.829 362.806C364.829 362.806 375.93 360.707 375.93 360.382ZM411.691 406.594C411.219 405.667 407.978 401.774 405.318 398.643L394.239 400.031C392.97 407.514 398.241 418.207 398.241 418.207C398.241 418.207 395.499 416.535 394.954 417.997C394.711 418.648 394.161 423.848 404.431 424.198C405.522 424.236 408.144 422.018 408.144 422.018C408.144 422.018 406.232 425.67 409.16 426.387C409.16 426.387 413.88 419.315 413.952 417.742C414.025 416.168 412.51 408.203 411.691 406.594Z" fill="#EBD4D8"/>
<path opacity="0.148065" d="M400.338 403.936C400.338 403.936 401.779 409.38 406.725 411.076C408.455 411.669 408.023 418.672 412.261 417.834" stroke="black" stroke-width="3"/>
<path fill-rule="evenodd" clip-rule="evenodd" d="M372.675 323.994C372.341 325.041 371.63 325.75 371.086 325.577C370.541 325.404 370.37 324.414 370.704 323.367C371.037 322.319 371.748 321.61 372.293 321.783C372.837 321.956 373.008 322.946 372.675 323.994Z" fill="#020101"/>
<path opacity="0.200498" d="M330.028 316.971L319.342 334.666L345.912 345.179" stroke="black" stroke-width="3"/>
<path fill-rule="evenodd" clip-rule="evenodd" d="M487.845 455.684L482.613 445.387L470.022 447.284L487.148 475.357L524.713 450.427C511.784 447.543 487.845 455.684 487.845 455.684ZM429.02 509.953L430.33 498.521L418.824 493.18L417.123 525.92L462.547 525.841C453.386 516.341 429.02 509.953 429.02 509.953Z" fill="#0D0B6D"/>
<path fill-rule="evenodd" clip-rule="evenodd" d="M483.938 446.847L471.177 449.512L478.525 461.3L489.105 454.85L483.938 446.847ZM430.342 500.853L418.273 496.056L417.902 509.89L430.239 510.343L430.342 500.853Z" fill="#D99292"/>
<path d="M448.582 435.928L442.335 503.732H413.402L414.686 405.285L359.461 405.665C343.706 405.665 328.469 392.135 329.561 376.411L331.279 360.401L415.616 335.486C431.229 331.956 436.642 336.619 446.764 354.638L491.456 446.248L466.904 462.654L448.582 435.928Z" fill="#2F2F3D"/>
<path opacity="0.150484" fill-rule="evenodd" clip-rule="evenodd" d="M422.662 366.231L359.461 405.665L414.686 405.285L413.402 503.732H442.335L452.254 396.065C454.701 376.475 442.441 366.231 422.662 366.231Z" fill="#18181C"/>
</g>
<defs>
<filter id="filter0_d_1_593" x="80.6736" y="0" width="521.767" height="680.337" filterUnits="userSpaceOnUse" color-interpolation-filters="sRGB">
<feFlood flood-opacity="0" result="BackgroundImageFix"/>
<feColorMatrix in="SourceAlpha" type="matrix" values="0 0 0 0 0 0 0 0 0 0 0 0 0 0 0 0 0 0 127 0" result="hardAlpha"/>
<feOffset dy="4"/>
<feGaussianBlur stdDeviation="2"/>
<feComposite in2="hardAlpha" operator="out"/>
<feColorMatrix type="matrix" values="0 0 0 0 0 0 0 0 0 0 0 0 0 0 0 0 0 0 0.25 0"/>
<feBlend mode="normal" in2="BackgroundImageFix" result="effect1_dropShadow_1_593"/>
<feBlend mode="normal" in="SourceGraphic" in2="effect1_dropShadow_1_593" result="shape"/>
</filter>
</defs>
</svg>
