<svg width="36" height="36" viewBox="0 0 36 36" fill="none" xmlns="http://www.w3.org/2000/svg">
<circle cx="18" cy="18" r="17" stroke="#808080" stroke-width="2"/>
<path d="M10.1264 19.8694C10.5825 18.8305 12.2506 18.1099 13.8992 17.6364C14.6467 18.9514 16.0404 19.8358 17.6364 19.8358C19.2324 19.8358 20.626 18.9514 21.3735 17.6364C23.0222 18.1099 24.6902 18.8305 25.1463 19.8694C26.1227 22.0939 26.2727 28 26.2727 28H9.00001C9.00001 28 9.15006 22.0939 10.1264 19.8694Z" fill="#808080"/>
<path d="M13.3182 13.3182C13.3182 15.7027 15.2514 17.6364 17.6364 17.6364C20.0213 17.6364 21.9546 15.7031 21.9546 13.3182C21.9546 10.9332 20.0213 9 17.6364 9C15.2514 9 13.3182 10.9332 13.3182 13.3182Z" fill="#808080"/>
</svg>
