<svg width="36" height="36" viewBox="0 0 36 36" fill="none" xmlns="http://www.w3.org/2000/svg">
<circle cx="18" cy="18" r="17" stroke="#808080" stroke-width="2"/>
<path d="M22.0981 13.0922C22.0981 15.5271 20.2181 17.5015 17.8988 17.5015C15.5794 17.5015 13.6994 15.5275 13.6994 13.0922C13.6994 10.6569 15.5794 8.68286 17.8988 8.68286C20.2181 8.68286 22.0981 10.6569 22.0981 13.0922Z" fill="#808080"/>
<path d="M25.5946 20.0342C25.0077 18.7201 22.4073 17.9258 20.4344 17.5015L18.1087 18.94L15.783 17.5015C13.8105 17.9258 11.2101 18.7201 10.6228 20.0342C9.64958 22.2136 9.5 27.9999 9.5 27.9999H26.7174C26.7174 27.9999 26.5678 22.2136 25.5946 20.0342ZM18.1087 26.7864L17.1047 25.1581L17.5601 21.1503H18.658L19.1135 25.1581L18.1087 26.7864ZM18.7062 20.6998H17.512L17.1047 19.2827H19.1135L18.7062 20.6998Z" fill="#808080"/>
</svg>
