<svg width="33" height="33" viewBox="0 0 33 33" fill="none" xmlns="http://www.w3.org/2000/svg">
<path d="M16.035 0C7.194 0 0 7.192 0 16.034C0 24.876 7.194 32.068 16.035 32.068C24.876 32.068 32.07 24.876 32.07 16.034C32.07 7.192 24.876 0 16.035 0ZM16.035 31C7.783 31 1.07 24.286 1.07 16.034C1.07 7.782 7.783 1.068 16.035 1.068C24.287 1.068 31 7.782 31 16.034C31 24.286 24.287 31 16.035 31Z" fill="#8A1538"/>
<path d="M19.5349 7.03398H16.8669C13.4689 6.99998 13.0349 9.10298 13.0349 11.379V13.034H11.5349C11.4671 13.0249 11.3982 13.0316 11.3334 13.0535C11.2686 13.0755 11.2097 13.112 11.1613 13.1604C11.113 13.2088 11.0764 13.2676 11.0545 13.3324C11.0326 13.3972 11.0259 13.4662 11.0349 13.534V16.534C11.0259 16.6018 11.0326 16.6707 11.0545 16.7355C11.0764 16.8003 11.113 16.8592 11.1613 16.9076C11.2097 16.9559 11.2686 16.9925 11.3334 17.0144C11.3982 17.0363 11.4671 17.043 11.5349 17.034H13.0349V24.534C13.0266 24.6019 13.0339 24.6708 13.0563 24.7355C13.0786 24.8002 13.1155 24.8589 13.164 24.9071C13.2126 24.9553 13.2715 24.9918 13.3363 25.0138C13.4011 25.0358 13.4701 25.0427 13.5379 25.034H16.5929C16.8879 25.068 17.1269 24.829 17.0329 24.534L17.0349 17.034H19.5349C19.6027 17.043 19.6717 17.0363 19.7365 17.0144C19.8013 16.9925 19.8601 16.9559 19.9085 16.9076C19.9569 16.8592 19.9934 16.8003 20.0154 16.7355C20.0373 16.6707 20.044 16.6018 20.0349 16.534V13.534C20.044 13.4662 20.0373 13.3972 20.0154 13.3324C19.9934 13.2676 19.9569 13.2088 19.9085 13.1604C19.8601 13.112 19.8013 13.0755 19.7365 13.0535C19.6717 13.0316 19.6027 13.0249 19.5349 13.034H17.0319L17.0349 11.534C17.1319 10.895 17.1319 10.999 17.7249 11.034H19.5139C19.6529 11.003 19.8009 11.02 19.9049 10.919C20.0089 10.818 20.0689 10.68 20.0339 10.534V7.53398C20.0432 7.46623 20.0366 7.39727 20.0148 7.33247C19.993 7.26767 19.9566 7.20878 19.9083 7.16039C19.86 7.112 19.8011 7.07541 19.7364 7.05348C19.6716 7.03156 19.6027 7.02488 19.5349 7.03398ZM18.9999 9.97798L17.7459 9.92998C16.1929 9.92998 16.0629 10.773 16.0629 11.636L16.0589 13.532C16.0588 13.6022 16.0725 13.6717 16.0993 13.7366C16.1261 13.8015 16.1654 13.8605 16.215 13.9102C16.2646 13.9599 16.3235 13.9993 16.3883 14.0262C16.4532 14.0531 16.5227 14.067 16.5929 14.067H19.0349V15.999H16.5949C16.4532 15.999 16.3173 16.0552 16.217 16.1553C16.1167 16.2554 16.0602 16.3913 16.0599 16.533L16.0589 24.034H14.0349V16.534C14.0349 16.239 13.8339 16 13.5379 16H12.0349V14.068H13.5379C13.6081 14.0681 13.6776 14.0544 13.7424 14.0276C13.8073 14.0008 13.8663 13.9615 13.9159 13.912C14.0159 13.811 14.0339 13.675 14.0339 13.533V11.378C14.0339 9.13598 14.4869 8.06798 16.8659 8.06798H18.9989V9.97798H18.9999Z" fill="#8A1538"/>
</svg>
