<svg width="56" height="66" viewBox="0 0 56 66" fill="none" xmlns="http://www.w3.org/2000/svg">
<path d="M18.5 26C21.8152 26 24.9946 24.683 27.3388 22.3388C29.683 19.9946 31 16.8152 31 13.5C31 10.1848 29.683 7.00537 27.3388 4.66117C24.9946 2.31696 21.8152 1 18.5 1C15.1848 1 12.0054 2.31696 9.66117 4.66117C7.31696 7.00537 6 10.1848 6 13.5C6 16.8152 7.31696 19.9946 9.66117 22.3388C12.0054 24.683 15.1848 26 18.5 26ZM18.5 26C23.5325 26 27.93 27.9 31.0575 31.0575C32.9121 32.9372 34.2993 35.2261 35.1075 37.74M18.5 26C8.5 26 1 33.5 1 43.5V56H26" stroke="black"/>
<circle cx="38.5004" cy="48.5001" r="17.5" fill="#8A1538"/>
<path d="M48.0161 46.5737C47.7058 45.9722 47.2584 45.4271 46.6988 44.9689C46.1389 44.5094 45.4787 44.1442 44.7542 43.8932C44.0029 43.6319 43.1971 43.4982 42.3835 43.4998C41.2422 43.4998 40.1286 43.7614 39.1609 44.2557C38.9294 44.3739 38.7095 44.5037 38.5011 44.6452C38.2928 44.5037 38.0729 44.3739 37.8413 44.2557C36.8736 43.7614 35.7601 43.4998 34.6188 43.4998C33.7969 43.4998 33.0005 43.6316 32.2481 43.8932C31.5212 44.1452 30.866 44.5076 30.3034 44.9689C29.7432 45.4265 29.2956 45.9718 28.9862 46.5737C28.6644 47.1997 28.5 47.8645 28.5 48.5487C28.5 49.1941 28.6574 49.8667 28.97 50.5508C29.2316 51.1226 29.6066 51.7157 30.0858 52.3146C30.8452 53.2623 31.8893 54.2508 33.1857 55.2528C35.3341 56.9138 37.4617 58.0612 37.552 58.1078L38.1006 58.4024C38.3437 58.5322 38.6563 58.5322 38.8993 58.4024L39.448 58.1078C39.5383 58.0593 41.6635 56.9138 43.8143 55.2528C45.1107 54.2508 46.1548 53.2623 46.9141 52.3146C47.3934 51.7157 47.7707 51.1226 48.03 50.5508C48.3426 49.8667 48.5 49.1941 48.5 48.5487C48.5023 47.8645 48.3379 47.1997 48.0161 46.5737Z" fill="white"/>
</svg>
