<svg width="1374" height="492" viewBox="0 0 1374 492" fill="none" xmlns="http://www.w3.org/2000/svg">
<g filter="url(#filter0_d_1_1551)">
<rect x="4" width="1366" height="484" fill="#F6F7F9"/>
<path d="M42 52.5C72.5 54.3333 135.8 69.6 145 116C156.5 174 161.5 238.5 209.5 265C257.5 291.5 259.5 300 282.5 328C309.453 360.812 374 429.5 442 399.5C510 369.5 549.5 303 591 243.5C632.5 184 677 43 763.5 116C850 189 868 256.5 893 328C918 399.5 1018 439.5 1079 399.5C1127.8 367.5 1182 303.167 1203 275" stroke="black" stroke-opacity="0.3" stroke-dasharray="8 8"/>
<g clip-path="url(#clip0_1_1551)">
<path d="M1242.16 259.159C1237.45 260.553 1233.76 263.726 1231.58 267.731C1229.41 271.736 1228.75 276.573 1230.14 281.283C1231.53 285.999 1234.7 289.705 1238.69 291.889C1242.69 294.066 1247.51 294.721 1252.21 293.326C1256.91 291.932 1260.61 288.759 1262.79 284.754C1264.97 280.749 1265.61 275.912 1264.22 271.202C1262.83 266.486 1259.67 262.78 1255.67 260.596C1251.68 258.412 1246.85 257.765 1242.16 259.159ZM1250.02 296.278C1245.62 296.912 1241.26 296.051 1237.54 294.016C1233 291.541 1229.41 287.329 1227.83 281.973C1226.26 276.609 1226.99 271.117 1229.46 266.571C1231.92 262.019 1236.13 258.419 1241.47 256.833C1246.82 255.253 1252.3 255.993 1256.84 258.462C1261.37 260.93 1264.97 265.149 1266.54 270.505C1268.12 275.869 1267.39 281.361 1264.92 285.907C1262.89 289.641 1259.7 292.736 1255.67 294.6C1253.69 295.652 1250.02 296.271 1250.02 296.271L1250.02 296.278ZM1253.33 264.914C1252.74 264.594 1252.53 263.861 1252.85 263.271C1253.17 262.68 1253.9 262.467 1254.49 262.787C1258.19 264.807 1260.72 268.144 1261.83 271.9C1262.95 275.663 1262.62 279.846 1260.6 283.559C1260.28 284.149 1259.55 284.363 1258.96 284.043C1258.38 283.723 1258.16 282.99 1258.48 282.399C1260.18 279.269 1260.45 275.748 1259.53 272.583C1258.6 269.417 1256.46 266.614 1253.34 264.907L1253.33 264.914Z" fill="#B6D4FF"/>
<path d="M1252.22 293.326L1263.64 334.194" stroke="#B6D4FF" stroke-width="4" stroke-miterlimit="10"/>
<path d="M1334.01 365.36C1334.25 365.331 1333.92 364.044 1334.01 365.36V365.36Z" stroke="#C38EC0" stroke-miterlimit="10"/>
<path d="M1267 333.455C1267.14 330.801 1267 330.801 1266.34 328.546C1265.68 326.291 1264.36 323.111 1262.9 321.39C1261.45 319.668 1261.85 322.186 1262.24 324.306C1262.64 326.426 1262.77 325.9 1263.16 328.02C1263.56 330.14 1262.5 329.478 1261.85 327.621C1261.19 325.765 1261.58 324.441 1260.65 322.848C1259.73 321.255 1258.4 323.645 1256.95 326.561C1255.49 329.478 1256.55 331.2 1257.87 334.515C1259.19 337.83 1262.24 341.806 1262.24 341.806C1262.24 341.806 1266.23 338.783 1268.32 338.228C1268.32 338.228 1266.86 336.108 1267 333.455H1267Z" fill="#F5E8D3"/>
<path d="M1296.24 321.902C1297.41 320.991 1299.12 321.383 1298.85 323.467C1298.58 325.551 1297.54 326.853 1297.54 326.853C1297.54 326.853 1299.75 326.853 1299.88 329.457C1300.01 332.06 1300.27 332.971 1301.7 333.362C1303.13 333.753 1309.19 333.327 1309.19 333.327C1310.65 332.53 1309.27 329.008 1311.57 329.215C1311.92 329.243 1312.84 318.907 1312.49 318.871C1309.72 318.622 1313.15 316.218 1309.58 314.233C1306.01 312.241 1305.22 311.85 1298.84 311.452C1292.46 311.053 1293.45 314.767 1293.45 316.488C1293.45 317.292 1293.48 318.06 1293.5 318.665C1293.5 318.665 1296.49 320.607 1296.24 321.909L1296.24 321.902Z" fill="#0F2B4E"/>
<path d="M1285.12 389.675L1280.22 470.821L1284.32 471.084L1292.26 471.881L1296.36 472.144C1296.36 472.144 1302.57 409.294 1302.71 406.513C1302.84 403.731 1304.03 404.919 1304.03 404.919L1311.16 473.204L1315.39 472.408C1315.39 472.408 1324.81 470.878 1326.24 471.084C1327.82 469.228 1327.29 462.335 1327.29 462.335L1320.91 389.241C1320.91 389.241 1315.84 390.671 1301.81 390.635C1287.79 390.599 1285.1 389.682 1285.1 389.682L1285.12 389.675Z" fill="#0F2B4E"/>
<path d="M1337.49 413.008C1337.49 413.008 1335.9 414.601 1334.98 413.933C1334.98 413.933 1332.81 414.744 1332.33 413.534C1332.33 413.534 1330.08 413.534 1329.68 412.339C1329.29 411.144 1329.42 407.431 1329.42 407.431L1328.1 407.032L1327.97 397.621L1336.83 396.298C1336.83 396.298 1337.89 398.289 1338.94 400.808C1340 403.326 1340 406.506 1340 408.896C1340 411.286 1339.08 413.271 1337.49 413.008Z" fill="#F5E8D3"/>
<path d="M1315.41 472.408L1315.67 475.324C1315.67 475.324 1320.64 470.828 1325.59 473.468L1326.25 471.084C1324.82 470.878 1315.41 472.408 1315.41 472.408Z" fill="#F5E8D3"/>
<path d="M1334.05 365.808C1334.04 365.63 1334.03 365.488 1334.02 365.36C1333.76 365.395 1332.78 363.816 1329.69 355.066C1323.61 337.83 1316.86 338.626 1310.38 337.965C1310.52 336.905 1309.19 335.048 1309.19 335.048V333.327C1309.19 333.327 1305.58 333.583 1303.27 333.519L1296.77 334.202C1295.8 335.176 1295.31 337.701 1295.31 337.701C1284.73 339.025 1277.85 347.647 1277.85 347.647C1277.85 347.647 1274.15 338.363 1272.96 337.701C1271.76 337.04 1268.33 338.235 1268.33 338.235C1266.24 338.797 1262.25 341.813 1262.25 341.813L1260.79 343.535C1260.79 343.535 1267.93 361.967 1271.11 365.545C1274.29 369.123 1278.38 366.078 1280.24 365.146C1282.09 364.214 1285.79 361.967 1285.79 361.967C1285.79 361.967 1283.81 386.893 1283.94 388.351C1284.07 389.81 1285.13 389.675 1285.13 389.675C1285.13 389.675 1287.81 390.585 1301.84 390.628C1315.88 390.671 1320.93 389.234 1320.93 389.234C1320.93 389.234 1318.86 358.758 1317.95 355.372C1317.95 355.372 1318.6 348.991 1320.81 366.441C1323.01 383.891 1323.88 397.087 1323.88 397.087L1327.98 397.621L1336.84 396.298L1340.01 394.974C1340.01 394.974 1334.46 369.913 1334.06 365.808H1334.05Z" fill="#EBD4D8"/>
<path d="M1301.7 333.362C1300.27 332.971 1300.01 332.06 1299.88 329.457C1299.76 326.853 1297.54 326.853 1297.54 326.853C1297.54 326.853 1298.58 325.551 1298.85 323.467C1299.12 321.383 1297.41 320.991 1296.24 321.902C1296.51 320.6 1293.52 318.665 1293.51 318.658C1293.55 319.341 1293.58 319.796 1293.58 319.796C1290.14 320.195 1292.79 322.976 1292.79 322.976C1292.79 322.976 1292.79 325.096 1292.65 327.486C1292.52 329.869 1293.05 330.14 1294.77 331.996C1296.48 333.853 1297.14 332.658 1297.14 332.658L1297.28 333.853C1297.09 333.91 1296.92 334.031 1296.75 334.194L1303.26 333.511C1302.58 333.49 1302.01 333.447 1301.69 333.362H1301.7Z" fill="#F5E8D3"/>
<path d="M1313.9 480.823C1313.87 481.933 1313.95 482.751 1313.95 482.751H1327.97C1327.97 482.751 1328 481.904 1327.94 480.773C1324.02 479.856 1318.79 479.28 1313.9 480.823Z" fill="#0F2B4E"/>
<path d="M1327.95 480.773C1327.89 479.756 1327.75 478.518 1327.44 477.451C1326.78 475.196 1325.59 473.475 1325.59 473.475C1320.64 470.835 1315.67 475.331 1315.67 475.331C1314.29 476.548 1313.96 479.066 1313.9 480.83C1318.79 479.287 1324.03 479.863 1327.94 480.781L1327.95 480.773Z" fill="#EBD4D8"/>
<path d="M1282.98 471.134L1283.21 475.274C1283.21 475.274 1288.3 472.465 1293.16 475.274L1293.94 471.412C1292.52 471.156 1282.99 471.127 1282.99 471.127L1282.98 471.134Z" fill="#F5E8D3"/>
<path d="M1281.25 480.567C1281.18 481.677 1281.23 482.495 1281.23 482.495L1295.24 483C1295.24 483 1295.3 482.153 1295.28 481.022C1291.4 479.97 1286.18 479.201 1281.25 480.567Z" fill="#0F2B4E"/>
<path d="M1295.28 481.022C1295.26 480.005 1295.17 478.76 1294.9 477.679C1294.31 475.403 1293.15 475.274 1293.15 475.274C1288.3 472.465 1283.14 474.044 1283.14 474.044C1281.72 475.21 1281.36 478.803 1281.24 480.567C1286.17 479.201 1291.39 479.97 1295.27 481.022H1295.28Z" fill="#EBD4D8"/>
<path d="M1337.49 413.008C1337.95 409.565 1336.51 405.773 1336.51 405.773C1336.51 405.773 1337.95 409.558 1337.49 413.008Z" stroke="#E2D1B5" stroke-miterlimit="10"/>
<path d="M1334.98 413.94C1335.91 411.813 1334.04 405.78 1334.04 405.78C1334.04 405.78 1335.91 411.813 1334.98 413.94Z" stroke="#E2D1B5" stroke-miterlimit="10"/>
<path d="M1332.33 413.541C1332.7 410.888 1331.18 406.819 1331.18 406.819C1331.18 406.819 1332.7 410.888 1332.33 413.541Z" stroke="#E2D1B5" stroke-miterlimit="10"/>
<path d="M1286.63 355.109L1285.78 361.959" stroke="#DCADB5" stroke-miterlimit="10"/>
<path d="M1272.08 353.16C1272.08 353.16 1274.79 350.727 1277.85 347.647" stroke="#DCADB5" stroke-miterlimit="10"/>
<path d="M1296.21 326.426C1296.21 326.426 1296.92 327.074 1297.55 326.426C1298.17 325.779 1298.64 324.385 1298.85 323.46C1299.05 322.535 1297.96 320.714 1296.03 322.471" stroke="#0F2B4E" stroke-width="0.25" stroke-miterlimit="10"/>
</g>
<circle cx="61" cy="77" r="38" fill="#DCEEFF"/>
<circle cx="1315.5" cy="226.5" r="17.5" fill="#DCEEFF"/>
<circle cx="553.5" cy="458.5" r="8.5" fill="#D9D9D9"/>
<circle cx="827" cy="459" r="9" fill="#EBD4D8"/>
<path d="M140.07 330.767C135.062 341.537 124.153 349 111.5 349C94.1039 349 80 334.896 80 317.5C80 300.104 94.1039 286 111.5 286C111.835 286 112.17 286 112.49 286.014L109.31 293.352L109.268 293.463C97.0334 294.663 87.4635 304.986 87.4635 317.542C87.4635 330.906 98.289 341.732 111.653 341.732C115.015 341.732 117.903 340.965 118.894 340.63C126.064 338.244 129.928 332.776 131.24 330.697C132.007 331.116 133.5 331.785 135.495 331.827C136.095 331.841 137.964 331.869 139.889 330.851C139.959 330.837 140.015 330.795 140.07 330.767Z" fill="#E2C4CD" fill-opacity="0.6"/>
<path d="M1343.16 118.352C1332.55 141.18 1309.43 157 1282.61 157C1245.73 157 1215.84 127.105 1215.84 90.2308C1215.84 53.357 1245.73 23.4617 1282.61 23.4617C1283.31 23.4617 1284.02 23.4617 1284.7 23.4912L1277.96 39.0451L1277.87 39.2816C1251.94 41.8247 1231.66 63.7065 1231.66 90.3195C1231.66 118.648 1254.6 141.594 1282.93 141.594C1290.06 141.594 1296.18 139.968 1298.28 139.258C1313.48 134.201 1321.67 122.61 1324.45 118.204C1326.07 119.091 1329.24 120.511 1333.47 120.599C1334.74 120.629 1338.7 120.688 1342.78 118.529C1342.93 118.5 1343.05 118.411 1343.16 118.352Z" fill="#E2C4CD" fill-opacity="0.55"/>
<circle cx="209" cy="156" r="9" fill="#EBD4D8"/>
<circle cx="213.5" cy="128.5" r="4.5" fill="#D9D9D9"/>
</g>
<defs>
<filter id="filter0_d_1_1551" x="0" y="0" width="1374" height="492" filterUnits="userSpaceOnUse" color-interpolation-filters="sRGB">
<feFlood flood-opacity="0" result="BackgroundImageFix"/>
<feColorMatrix in="SourceAlpha" type="matrix" values="0 0 0 0 0 0 0 0 0 0 0 0 0 0 0 0 0 0 127 0" result="hardAlpha"/>
<feOffset dy="4"/>
<feGaussianBlur stdDeviation="2"/>
<feComposite in2="hardAlpha" operator="out"/>
<feColorMatrix type="matrix" values="0 0 0 0 0 0 0 0 0 0 0 0 0 0 0 0 0 0 0.25 0"/>
<feBlend mode="normal" in2="BackgroundImageFix" result="effect1_dropShadow_1_1551"/>
<feBlend mode="normal" in="SourceGraphic" in2="effect1_dropShadow_1_1551" result="shape"/>
</filter>
<clipPath id="clip0_1_1551">
<rect width="113" height="227" fill="white" transform="translate(1227 256)"/>
</clipPath>
</defs>
</svg>
