<svg width="24" height="18" viewBox="0 0 24 18" fill="none" xmlns="http://www.w3.org/2000/svg">
    <path
        d="M16.3791 12.2351L17.6256 12.0446L17.9491 8.61959C18.0348 7.09738 19.3478 5.93659 20.8605 6.03183C22.3822 6.12708 23.5335 7.43053 23.4478 8.9623L23.1051 12.5491C23.0385 13.6337 22.344 14.5753 21.3354 14.9559C21.0692 15.089 20.7739 15.1555 20.4695 15.1368L17.853 15.2603C17.596 15.2699 17.3676 15.0698 17.3581 14.8132C17.3485 14.5566 17.5486 14.3279 17.8052 14.3183L20.4403 14.1948H20.4877C20.64 14.2044 20.7826 14.1756 20.9157 14.1091L20.9727 14.0804C21.6481 13.8329 22.1143 13.2053 22.1522 12.4725L22.4949 8.88576C22.5519 7.88675 21.7908 7.0304 20.7917 6.96386C19.7927 6.90689 18.9364 7.66799 18.8698 8.67656L18.5271 12.2633V12.4251C18.5367 12.663 18.3653 12.8626 18.1274 12.9009L16.5004 13.1579C16.3008 13.1866 16.1577 13.3576 16.1577 13.5576V17.5249C16.1577 17.782 15.9485 18.0007 15.6819 18.0007C15.4153 18.0007 15.2061 17.7915 15.2061 17.5249V13.5576C15.2348 12.8918 15.7197 12.3303 16.3765 12.2351H16.3791Z"
        fill="#8A1538" />
    <path
        d="M20.5269 4.94718C19.1665 4.94718 18.0531 3.83423 18.0531 2.47337C18.0531 1.11252 19.166 0 20.5269 0C21.8877 0 23.0002 1.10382 23.0002 2.47381C23.0002 3.84379 21.8873 4.94761 20.5264 4.94761L20.5269 4.94718ZM20.5269 0.951163C19.6897 0.951163 19.0047 1.63616 19.0047 2.47337C19.0047 3.31059 19.6897 3.99558 20.5269 3.99558C21.3641 3.99558 22.0491 3.31059 22.0491 2.47337C22.0586 1.63616 21.3737 0.951163 20.5269 0.951163Z"
        fill="#8A1538" />
    <path
        d="M2.61263 6.03183C4.12527 5.94615 5.43829 7.09738 5.53353 8.60045L5.85711 12.035L7.10358 12.2255C7.75987 12.3303 8.24524 12.8913 8.24524 13.5572V17.5245C8.24524 17.7815 8.03604 18.0003 7.76944 18.0003C7.50284 18.0003 7.29364 17.7911 7.29364 17.5245V13.5572C7.29364 13.3576 7.15099 13.1958 6.95093 13.1575L5.3239 12.9005C5.086 12.8622 4.91465 12.6626 4.92422 12.4247V12.282L4.5815 8.66699C4.52453 7.66799 3.66818 6.90688 2.65961 6.96386C1.6606 7.02083 0.899497 7.88675 0.956471 8.86662L1.29919 12.4816C1.34659 13.1953 1.80325 13.8229 2.47868 14.0704L2.53565 14.0991C2.66874 14.1656 2.81139 14.1943 2.96361 14.1848H3.01102L5.64618 14.3083C5.90321 14.3179 6.11241 14.5462 6.09327 14.8032C6.0837 15.0603 5.85537 15.2695 5.59834 15.2503L2.98188 15.1268C2.67744 15.1364 2.38256 15.0794 2.11596 14.9459C1.10739 14.5558 0.412824 13.6142 0.346282 12.5486L0.0035677 8.9336C-0.0725431 7.43052 1.08825 6.11751 2.61046 6.03183H2.61263Z"
        fill="#8A1538" />
    <path
        d="M2.94587 4.94718C1.58545 4.94718 0.472066 3.83423 0.472066 2.47337C0.472066 1.11252 1.58502 0 2.94587 0C4.30673 0 5.41968 1.10382 5.41968 2.47381C5.41968 3.84379 4.30673 4.94761 2.94587 4.94761V4.94718ZM2.94587 0.951163C2.10866 0.951163 1.42366 1.63616 1.42366 2.47337C1.42366 3.31059 2.10866 3.99558 2.94587 3.99558C3.78309 3.99558 4.46808 3.31059 4.46808 2.47337C4.46808 1.63616 3.78309 0.951163 2.94587 0.951163Z"
        fill="#8A1538" />
    <path
        d="M6.8844 9.25737C6.8844 8.26794 7.68377 7.46899 8.67277 7.46899H14.7999C15.7893 7.46899 16.5883 8.26837 16.5883 9.25737C16.5883 10.2464 15.7889 11.0457 14.7999 11.0457H8.67277C7.69291 11.0457 6.8844 10.2464 6.8844 9.25737ZM8.67277 10.1042H14.7999C15.2661 10.1042 15.6467 9.7236 15.6467 9.25737C15.6467 8.79114 15.2661 8.41059 14.7999 8.41059H8.67277C8.20654 8.41059 7.82599 8.79114 7.82599 9.25737C7.83556 9.7236 8.20654 10.1042 8.67277 10.1042Z"
        fill="#8A1538" />
    <path
        d="M12.7449 8.75272L13.506 9.49469C13.5821 9.5708 13.5821 9.68518 13.506 9.76086C13.4678 9.79913 13.4203 9.81783 13.3729 9.81783C13.3255 9.81783 13.2777 9.79869 13.2399 9.76086L12.4788 9.01889C12.4026 8.94278 12.4026 8.8284 12.4788 8.75272C12.5549 8.67705 12.6692 8.67661 12.7449 8.75272Z"
        fill="#8A1538" />
    <path
        d="M9.71921 8.75264L10.4707 9.49461C10.5469 9.57072 10.5469 9.6851 10.4707 9.76078C10.4325 9.79905 10.3851 9.81775 10.3377 9.81775C10.2903 9.81775 10.2424 9.79861 10.2046 9.76078L9.45304 9.01881C9.37693 8.9427 9.37693 8.82831 9.45304 8.75264C9.51959 8.67653 9.64354 8.67653 9.71921 8.75264Z"
        fill="#8A1538" />
</svg>