<svg width="32" height="32" viewBox="0 0 32 32" fill="none" xmlns="http://www.w3.org/2000/svg">
<g clip-path="url(#clip0_1_427)">
<path d="M19.5151 11.9521C18.8371 11.9521 18.3351 12.1231 17.9421 12.3391C17.8791 12.1151 17.6721 11.9511 17.4281 12.0001H14.4441C14.1491 11.9511 13.9101 12.1901 14.0011 12.5001V23.5001C13.9101 23.7801 14.1491 24.0201 14.4441 24.0001H17.4281C17.7231 24.0201 17.9621 23.7801 17.9621 23.4851L17.9611 16.8371C17.9601 16.8341 17.9491 16.5161 18.1501 16.2971C18.3111 16.1231 18.5881 16.0341 18.9711 16.0341C19.6091 16.0341 19.8931 16.2951 19.9991 16.8791V23.4851C19.8941 23.7801 20.1331 24.0201 20.4281 24.0001H23.5731C23.8681 24.0201 24.1071 23.7801 24.0011 23.4851V16.6571C24.1061 13.1851 21.6331 11.9521 19.5151 11.9521ZM23.0381 23.0001H20.9621V16.8791C20.9621 15.6981 20.1991 14.9661 18.9721 14.9661C18.2781 14.9661 17.7381 15.1701 17.3661 15.5721C16.8491 16.1321 16.8891 16.8421 17.0001 17.0001V23.0001H14.9781V13.0201H16.8941V13.3561C16.8933 13.4562 16.9208 13.5544 16.9733 13.6396C17.0259 13.7248 17.1014 13.7934 17.1912 13.8376C17.2811 13.8818 17.3815 13.8997 17.4811 13.8894C17.5806 13.879 17.6753 13.8408 17.7541 13.7791L17.8941 13.6711C18.2991 13.3521 18.7181 13.0211 19.5161 13.0211C20.3421 13.0211 23.0391 13.2841 23.0391 16.6581V23.0001H23.0381ZM11.0001 6.96606C9.87806 6.96606 8.96606 7.87806 8.96606 9.00006C8.96606 10.1221 9.87806 11.0341 11.0001 11.0341C12.1221 11.0341 13.0341 10.1221 13.0341 9.00006C13.0341 7.87806 12.1221 6.96606 11.0001 6.96606ZM11.0001 9.96606C10.4681 9.96606 10.0341 9.53206 10.0341 9.00006C10.0341 8.46806 10.4681 8.03406 11.0001 8.03406C11.5321 8.03406 11.9661 8.46806 11.9661 9.00006C11.9661 9.53206 11.5321 9.96606 11.0001 9.96606ZM12.4281 11.9511H9.46006C9.16506 11.9511 8.92606 12.1901 9.00006 12.5001V23.5001C8.92606 23.7801 9.16506 24.0201 9.46006 24.0001H12.4281C12.7231 24.0201 12.9621 23.7801 12.9621 23.4851V12.4851C12.9621 12.3434 12.9058 12.2076 12.8057 12.1075C12.7055 12.0073 12.5697 11.9511 12.4281 11.9511ZM12.0001 23.0001H9.99407V13.0201H12.0001V23.0001Z" fill="#8A1538"/>
<path d="M16.0001 -0.0339355C7.15806 -0.0339355 -0.0339355 7.15806 -0.0339355 16.0001C-0.0339355 24.8421 7.15806 32.0341 16.0001 32.0341C24.8421 32.0341 32.0341 24.8421 32.0341 16.0001C32.0341 7.15806 24.8421 -0.0339355 16.0001 -0.0339355ZM16.0001 30.9661C7.74806 30.9661 1.03406 24.2521 1.03406 16.0001C1.03406 7.74806 7.74806 1.03406 16.0001 1.03406C24.2521 1.03406 30.9661 7.74806 30.9661 16.0001C30.9661 24.2521 24.2521 30.9661 16.0001 30.9661Z" fill="#8A1538"/>
</g>
<defs>
<clipPath id="clip0_1_427">
<rect width="32" height="32" fill="white"/>
</clipPath>
</defs>
</svg>
