<svg width="17" height="24" viewBox="0 0 17 24" fill="none" xmlns="http://www.w3.org/2000/svg">
<path d="M8.4 0C3.76827 0 0 3.74238 0 8.34229C0 14.1239 8.40826 24 8.40826 24C8.40826 24 16.8 13.8396 16.8 8.34229C16.8 3.74238 13.0319 0 8.4 0ZM10.9345 10.7849C10.2356 11.4788 9.31788 11.8258 8.4 11.8258C7.48227 11.8258 6.56424 11.4788 5.86569 10.7849C4.46815 9.39712 4.46815 7.13892 5.86569 5.75098C6.54241 5.07861 7.44259 4.7083 8.4 4.7083C9.35741 4.7083 10.2574 5.07876 10.9345 5.75098C12.332 7.13892 12.332 9.39712 10.9345 10.7849Z" fill="#8A1538"/>
</svg>
