<svg width="57" height="77" viewBox="0 0 57 77" fill="none" xmlns="http://www.w3.org/2000/svg">
    <path
        d="M11.5004 13.5007C11.5004 12.9503 11.6923 12.4337 12.0174 12.0622C12.3406 11.6928 12.7635 11.5007 13.1879 11.5007H35.0629C35.4872 11.5007 35.9102 11.6928 36.2334 12.0622C36.5585 12.4337 36.7504 12.9503 36.7504 13.5007C36.7504 14.0511 36.5585 14.5677 36.2334 14.9392C35.9102 15.3086 35.4872 15.5007 35.0629 15.5007H13.1879C12.7635 15.5007 12.3406 15.3086 12.0174 14.9392C11.6923 14.5677 11.5004 14.0511 11.5004 13.5007Z"
        fill="#8A1538" stroke="#8A1538" />
    <path
        d="M11.5004 24.125C11.5004 23.5295 11.6373 22.9836 11.8537 22.6058C12.0751 22.2194 12.3028 22.125 12.4327 22.125H26.7556C26.8855 22.125 27.1131 22.2194 27.3345 22.6058C27.5509 22.9836 27.6879 23.5295 27.6879 24.125C27.6879 24.7205 27.5509 25.2664 27.3345 25.6442C27.1131 26.0306 26.8855 26.125 26.7556 26.125H12.4327C12.3028 26.125 12.0751 26.0306 11.8537 25.6442C11.6373 25.2664 11.5004 24.7205 11.5004 24.125Z"
        fill="#8A1538" stroke="#8A1538" />
    <rect x="1" y="1" width="55" height="75" rx="1" stroke="black" />
    <path
        d="M32.9166 64.3428L32.9166 36.5325L38.2152 41.7427C39.7372 43.2393 42.02 40.9944 40.4981 39.4978L35.665 34.7527L32.4387 31.5852C31.8106 30.9713 30.7963 30.9713 30.1683 31.5852L22.112 39.4978C21.7974 39.7989 21.6209 40.2133 21.6246 40.645C21.6247 42.0702 23.39 42.7696 24.395 41.7427L29.6936 36.5201L29.6936 64.4248C29.8044 66.6197 33.0278 66.4558 32.9166 64.3428Z"
        fill="black" />
</svg>