<svg width="13" height="17" viewBox="0 0 13 17" fill="none" xmlns="http://www.w3.org/2000/svg">
<mask id="path-1-inside-1_1_276" fill="white">
<path d="M3.12814 3.14645C3.04609 3.24021 3 3.36739 3 3.5C3 3.63261 3.04609 3.75979 3.12814 3.85355C3.21019 3.94732 3.32147 4 3.4375 4H7.8125C7.92853 4 8.03981 3.94732 8.12186 3.85355C8.20391 3.75979 8.25 3.63261 8.25 3.5C8.25 3.36739 8.20391 3.24021 8.12186 3.14645C8.03981 3.05268 7.92853 3 7.8125 3H3.4375C3.32147 3 3.21019 3.05268 3.12814 3.14645Z"/>
</mask>
<path d="M3.12814 3.14645L3.88072 3.80495L3.88072 3.80495L3.12814 3.14645ZM8.12186 3.14645L7.36928 3.80495L8.12186 3.14645ZM4 3.5C4 3.59269 3.96898 3.70408 3.88072 3.80495L2.37556 2.48794C2.12321 2.77635 2 3.1421 2 3.5H4ZM3.88072 3.80495C3.78872 3.91009 3.63305 4 3.4375 4V2C3.00988 2 2.63165 2.19527 2.37556 2.48794L3.88072 3.80495ZM3.4375 4H7.8125V2H3.4375V4ZM7.8125 4C7.61695 4 7.46128 3.91009 7.36928 3.80495L8.87444 2.48794C8.61835 2.19527 8.24012 2 7.8125 2V4ZM7.36928 3.80495C7.28102 3.70408 7.25 3.59268 7.25 3.5H9.25C9.25 3.1421 9.12679 2.77635 8.87444 2.48794L7.36928 3.80495ZM7.25 3.5C7.25 3.40732 7.28102 3.29592 7.36928 3.19505L8.87444 4.51206C9.1268 4.22365 9.25 3.8579 9.25 3.5H7.25ZM7.36928 3.19505C7.46128 3.08991 7.61695 3 7.8125 3V5C8.24012 5 8.61835 4.80473 8.87444 4.51206L7.36928 3.19505ZM7.8125 3H3.4375V5H7.8125V3ZM3.4375 3C3.63305 3 3.78872 3.08991 3.88072 3.19505L2.37556 4.51206C2.63165 4.80473 3.00988 5 3.4375 5V3ZM3.88072 3.19505C3.96898 3.29592 4 3.40731 4 3.5H2C2 3.8579 2.12321 4.22365 2.37556 4.51206L3.88072 3.19505Z" fill="#8A1538" mask="url(#path-1-inside-1_1_276)"/>
<rect x="1" y="1" width="11" height="15" rx="1" stroke="#9E3C59"/>
<path d="M6.91403 13.5722L6.91403 6.39552L8.28138 7.74006C8.67412 8.12626 9.26322 7.54695 8.87048 7.16075L7.62327 5.93624L6.79068 5.11882C6.62861 4.96039 6.36686 4.96039 6.20479 5.11882L4.12581 7.16075C4.04462 7.23844 3.99907 7.34537 4.00001 7.45679C4.00006 7.82456 4.45561 8.00505 4.71496 7.74006L6.0823 6.39233L6.0823 13.5934C6.11088 14.1598 6.9427 14.1175 6.91403 13.5722Z" fill="#9F3D59"/>
</svg>
