<svg width="14" height="18" viewBox="0 0 14 18" fill="none" xmlns="http://www.w3.org/2000/svg">
    <path
        d="M13.1644 5.78057C12.9829 5.78057 12.8356 5.92786 12.8356 6.10934V16.1369C12.8356 16.3984 12.7315 16.6494 12.5467 16.8343C12.3618 17.0191 12.1108 17.1232 11.8493 17.1232H2.64384C2.38232 17.1232 2.13133 17.0191 1.94647 16.8343C1.76161 16.6494 1.65753 16.3984 1.65753 16.1369V3.64377C1.65753 3.38226 1.76161 3.13127 1.94647 2.94641C2.13133 2.76155 2.38232 2.65747 2.64384 2.65747H9.38375C9.56523 2.65747 9.71252 2.51019 9.71252 2.32871C9.71252 2.14723 9.56523 1.99994 9.38375 1.99994H2.64384C2.20798 1.99994 1.78979 2.17315 1.48132 2.48125C1.17321 2.78973 1 3.20792 1 3.64377V16.1369C1 16.5728 1.17321 16.991 1.48132 17.2994C1.78979 17.6075 2.20798 17.7808 2.64384 17.7808H11.8493C12.2852 17.7808 12.7034 17.6075 13.0118 17.2994C13.3199 16.991 13.4932 16.5728 13.4932 16.1369V6.10934C13.4932 6.02217 13.4586 5.93838 13.397 5.87676C13.3353 5.81514 13.2516 5.78057 13.1644 5.78057Z"
        fill="white" stroke="white" stroke-width="0.3" />
    <path
        d="M11.3084 1.80833L11.1147 2.61199C11.0962 2.68653 11.1234 2.76482 11.1833 2.81037C11.2431 2.85554 11.3232 2.85893 11.386 2.8179L12.0587 2.37824L12.7361 2.8179C12.7988 2.86119 12.8811 2.85968 12.942 2.81376C13.003 2.76783 13.0305 2.68766 13.0106 2.61199L12.8202 1.80833L13.4327 1.27457C13.4864 1.2245 13.5067 1.14621 13.4845 1.07506C13.4624 1.00392 13.4015 0.952725 13.3297 0.945197L12.5362 0.887604L12.2378 0.118573C12.2106 0.0470528 12.1439 0 12.0695 0C11.9952 0 11.9288 0.0470528 11.9013 0.118573L11.6014 0.887604L10.8079 0.945197C10.7361 0.952725 10.6756 1.00392 10.6531 1.07506C10.6306 1.14621 10.6509 1.2245 10.7046 1.27457L11.3073 1.80833H11.3084Z"
        fill="white" />
    <path
        d="M7.14922 15.3014C7.23668 15.3014 7.32074 15.2664 7.38257 15.2041C7.44439 15.1417 7.47907 15.0569 7.47907 14.9688V13.7861C7.69131 13.7508 7.89902 13.6903 8.09768 13.6063C8.43545 13.4729 8.72911 13.246 8.94511 12.9517C9.16112 12.6575 9.29042 12.3082 9.31831 11.9432C9.45515 10.5413 8.2349 10.084 7.25515 9.7179C6.246 9.34042 5.63568 9.05266 5.65868 8.35092C5.66245 8.14146 5.72427 7.93695 5.83661 7.76095C5.94895 7.58456 6.10803 7.44353 6.29538 7.35306C6.93548 7.00903 7.84549 7.08012 8.56324 7.53096C8.70837 7.58532 8.87122 7.53096 8.95529 7.39981C9.03935 7.26867 9.02164 7.09646 8.91307 6.98546C8.47993 6.71138 7.98911 6.54374 7.47982 6.49661V5.33262C7.47982 5.14901 7.33205 5 7.14998 5C6.9679 5 6.82013 5.14901 6.82013 5.33262V6.51181C6.52873 6.54944 6.246 6.63878 5.98551 6.77639C5.696 6.9216 5.45134 7.14322 5.27718 7.41768C5.10302 7.69214 5.00576 8.00918 4.99596 8.33457C4.95638 9.57345 6.05487 9.98438 7.02143 10.347C8.09014 10.7462 8.74155 11.0355 8.65937 11.8839C8.64278 12.1295 8.55608 12.3652 8.40981 12.5621C8.26355 12.759 8.06375 12.9095 7.83493 12.9947C7.0448 13.3357 5.96968 13.1612 5.4996 12.7818C5.43174 12.7183 5.34051 12.6868 5.24816 12.6944C5.1558 12.702 5.07098 12.7484 5.01443 12.8221C4.95789 12.8959 4.93452 12.9901 4.94997 13.0821C4.96581 13.1741 5.01896 13.2551 5.09661 13.3056C5.52221 13.6383 6.16872 13.828 6.82013 13.8378V14.9688C6.82013 15.0569 6.85481 15.1417 6.91663 15.2041C6.97845 15.2664 7.06176 15.3014 7.14922 15.3014Z"
        fill="white" stroke="white" stroke-width="0.3" />
</svg>