<svg width="719" height="466" viewBox="0 0 719 466" fill="none" xmlns="http://www.w3.org/2000/svg">
<path d="M459.319 314.021C424.859 388.123 349.798 439.476 262.738 439.476C143.043 439.476 46 342.433 46 222.738C46 103.043 143.043 6 262.738 6C265.042 6 267.345 6 269.553 6.09599L247.668 56.585L247.38 57.3529C163.2 65.6077 97.3529 136.638 97.3529 223.026C97.3529 314.981 171.839 389.467 263.794 389.467C286.927 389.467 306.796 384.188 313.611 381.884C362.948 365.47 389.536 327.843 398.559 313.541C403.838 316.421 414.109 321.028 427.835 321.316C431.962 321.412 444.825 321.604 458.071 314.597C458.551 314.501 458.935 314.213 459.319 314.021Z" fill="#EBD4D8"/>
<path d="M95.34 60.02H26.54V131.74H95.34V60.02Z" fill="#E0E0E0"/>
<path d="M90.68 60.02H21.88V131.74H90.68V60.02Z" fill="#F5F5F5"/>
<path d="M90.7 131.76H21.86V60H90.7V131.76ZM21.9 131.72H90.66V60.04H21.9V131.72Z" fill="#E0E0E0"/>
<path d="M81.43 69.66H31.13V122.09H81.43V69.66Z" fill="white"/>
<path d="M31.13 122.45C31.13 122.45 30.69 123.05 29.89 123.89C29.09 124.73 27.96 125.88 26.69 127.13C25.42 128.38 24.26 129.49 23.4 130.28C22.54 131.07 21.99 131.53 21.95 131.49C21.91 131.45 22.38 130.9 23.18 130.05C23.98 129.2 25.12 128.05 26.38 126.8C27.65 125.55 28.81 124.44 29.67 123.65C30.53 122.86 31.08 122.4 31.12 122.45H31.13Z" fill="#E0E0E0"/>
<path d="M81.43 122.32C81.43 122.32 82.03 122.76 82.87 123.56C83.72 124.36 84.86 125.49 86.11 126.76C87.36 128.03 88.47 129.19 89.26 130.05C90.05 130.91 90.51 131.46 90.47 131.5C90.43 131.54 89.88 131.07 89.03 130.27C88.18 129.47 87.03 128.33 85.78 127.07C84.53 125.8 83.42 124.64 82.63 123.78C81.84 122.92 81.38 122.37 81.43 122.33V122.32Z" fill="#E0E0E0"/>
<path d="M81.29 69.8C81.29 69.8 81.73 69.2 82.53 68.36C83.33 67.51 84.46 66.36 85.73 65.12C87 63.87 88.16 62.76 89.02 61.97C89.88 61.18 90.43 60.72 90.47 60.76C90.51 60.8 90.04 61.35 89.24 62.2C88.44 63.05 87.3 64.2 86.04 65.45C84.77 66.7 83.61 67.81 82.75 68.6C81.89 69.39 81.34 69.85 81.3 69.8H81.29Z" fill="#E0E0E0"/>
<path d="M30.99 69.93C30.99 69.93 30.39 69.49 29.55 68.69C28.71 67.89 27.55 66.76 26.31 65.49C25.06 64.22 23.95 63.06 23.16 62.2C22.37 61.34 21.91 60.79 21.95 60.75C21.99 60.71 22.54 61.18 23.39 61.98C24.24 62.78 25.39 63.92 26.64 65.18C27.89 66.45 29 67.61 29.79 68.47C30.58 69.33 31.04 69.88 30.99 69.92V69.93Z" fill="#E0E0E0"/>
<path d="M81.29 122.1C81.29 122.1 81.29 122.01 81.28 121.85C81.28 121.67 81.28 121.43 81.27 121.12C81.27 120.46 81.26 119.52 81.25 118.29C81.24 115.81 81.22 112.19 81.2 107.6C81.18 98.4199 81.14 85.33 81.1 69.67L81.29 69.86C66.65 69.86 49.45 69.88 31.13 69.89L31.35 69.67C31.34 88.92 31.33 106.92 31.32 122.1L31.13 121.91C46.16 121.95 58.68 121.98 67.45 122.01C71.83 122.03 75.28 122.05 77.65 122.06C78.82 122.06 79.72 122.08 80.35 122.08C80.65 122.08 80.88 122.08 81.05 122.09C81.21 122.09 81.29 122.09 81.29 122.1C81.29 122.1 81.22 122.1 81.07 122.11C80.9 122.11 80.68 122.11 80.39 122.12C79.77 122.12 78.88 122.13 77.73 122.14C75.37 122.15 71.94 122.17 67.57 122.19C58.77 122.21 46.21 122.25 31.13 122.29H30.94V122.1C30.94 106.92 30.92 88.91 30.91 69.67V69.45H31.13C49.45 69.46 66.65 69.47 81.29 69.48H81.48V69.67C81.44 85.39 81.4 98.5099 81.38 107.73C81.36 112.3 81.34 115.9 81.33 118.37C81.33 119.58 81.31 120.51 81.31 121.16C81.31 121.46 81.31 121.7 81.3 121.87C81.3 122.03 81.3 122.11 81.29 122.1Z" fill="#E0E0E0"/>
<path d="M64.67 87.49H47.89V104.27H64.67V87.49Z" fill="#E0E0E0"/>
<path d="M29.49 341.67C25.18 338.97 20.25 337.27 15.19 336.75C12.85 336.51 10.3 336.58 8.43001 337.99C8.03001 338.29 7.64001 338.73 7.73001 339.23C7.80001 339.59 8.10001 339.85 8.39001 340.08C14.21 344.52 23.01 345.08 29.49 341.68" fill="#F29B41" fill-opacity="0.6"/>
<path d="M29.13 341.27C25.89 338.74 22.64 336.2 19.89 333.14C17.15 330.08 14.92 326.45 14.1 322.43C13.85 321.21 13.77 319.81 14.56 318.85C21.92 324.6 27.71 332.04 29.13 341.27Z" fill="#F29B41" fill-opacity="0.6"/>
<path d="M29.42 341.62C28.87 337.59 28.67 333.45 29.59 329.49C30.52 325.53 32.67 321.74 36.05 319.48C37.32 322.45 36.78 325.88 35.88 328.99C34.49 333.79 32.32 338.37 29.47 342.48" fill="#F29B41" fill-opacity="0.6"/>
<path d="M36.64 354.55C32.26 355.08 28.44 357.39 25.17 360.35C21.9 363.31 19.57 367.3 18.61 371.61C22.91 371.34 26.55 368.31 29.2 364.92C31.84 361.52 33.68 357.79 36.58 354.61" fill="#F29B41" fill-opacity="0.6"/>
<path d="M38.2 356.62C34.67 347.93 35.95 337.45 41.47 329.86C43.97 338.74 43.05 348.77 38.2 356.62Z" fill="#F29B41" fill-opacity="0.6"/>
<path d="M47.74 367.98C43.76 367.73 39.72 368.68 36.27 370.67C32.82 372.66 29.97 375.68 28.18 379.24C27.94 379.72 27.72 380.34 28.05 380.77C28.33 381.15 28.88 381.18 29.35 381.15C33.2 380.9 36.62 378.58 39.44 375.94C42.26 373.3 44.71 370.25 47.83 367.96" fill="#F29B41" fill-opacity="0.6"/>
<path d="M47.44 367.36C45.39 360.8 45.26 353.64 47.08 347.01C47.8 344.39 49 341.63 51.42 340.41C51.63 340.31 51.87 340.21 52.08 340.29C52.29 340.37 52.4 340.58 52.5 340.78C53.36 342.58 53.61 344.62 53.52 346.62C53.43 348.61 53.02 350.58 52.61 352.53C51.85 356.14 51.44 360.02 49.46 363.14C48.99 363.88 48.58 364.68 48.2 365.47C47.82 366.26 47.82 366.54 47.48 367.17" fill="#F29B41" fill-opacity="0.6"/>
<path d="M72.68 371.12C70.81 364.01 72.79 355.38 77.28 349.55C77.61 349.12 78.05 348.66 78.59 348.71C79.42 348.79 79.63 349.89 79.59 350.71C79.27 357.98 76.84 365.14 72.68 371.12Z" fill="#F29B41" fill-opacity="0.6"/>
<path d="M74.96 372.68C83.6 374.93 93.52 372.74 100.71 367.44C96.45 365.28 91.43 364.66 86.77 365.73C82.11 366.79 77.86 368.88 74.96 372.68Z" fill="#F29B41" fill-opacity="0.6"/>
<path d="M76.88 367.94C81.72 360.05 91 354.9 100.25 354.43C99.18 358.19 96.09 361.11 92.61 362.88C89.13 364.65 85.23 365.42 81.39 366.16C79.9 366.45 77.85 366.77 76.88 367.94Z" fill="#F29B41" fill-opacity="0.6"/>
<path d="M73.16 344.95C74.47 340.46 75.79 335.93 76.15 331.26C76.51 326.6 75.84 321.73 73.42 317.72C68.9 326.47 68.44 336.69 73.02 345.41" fill="#F29B41" fill-opacity="0.6"/>
<path d="M88.39 337.26C93.68 327.65 104.47 319.97 115.38 318.9C111.17 329.39 99.68 337.49 88.39 337.26Z" fill="#F29B41" fill-opacity="0.6"/>
<path d="M85.06 339.14C92.95 340.34 99.67 345.38 107.04 348.43C108.62 349.08 110.32 349.6 112.01 349.38C113.7 349.16 115.37 348.02 115.75 346.36C116.06 344.98 115.44 343.51 114.44 342.5C113.45 341.49 112.14 340.86 110.83 340.31C102.8 336.97 94.19 336.88 85.74 338.91" fill="#F29B41" fill-opacity="0.6"/>
<path d="M80.5 344.67C82.29 345.18 82.9 346.11 84.31 347.31C89.11 351.4 94.86 354.35 100.97 355.87C101.61 356.03 102.44 356.09 102.76 355.52C103.04 355.02 102.69 354.41 102.33 353.96C99.77 350.75 96.11 348.56 92.27 347.13C88.42 345.7 85.09 343.97 80.5 344.34" fill="#F29B41" fill-opacity="0.6"/>
<path d="M75.35 311.26C81.76 317.25 90.8 320.32 99.53 319.49C99.93 319.45 100.36 319.39 100.63 319.09C101.24 318.43 100.51 317.41 99.8 316.85C92.69 311.31 84.08 309.01 75.35 311.26Z" fill="#F29B41" fill-opacity="0.6"/>
<path d="M81.45 309.03C89.93 302.67 101.55 300.76 111.62 304.05C107.82 307.79 102.55 309.81 97.24 310.36C91.93 310.91 86.62 310.32 81.45 309.03Z" fill="#F29B41" fill-opacity="0.6"/>
<path d="M79.02 293.68C78.32 286.58 78.77 280.98 78.28 273.86C78.24 273.29 78.12 272.61 77.59 272.4C76.85 272.11 76.23 273.03 75.99 273.78C73.88 280.35 75.03 287.89 79.02 293.53" fill="#F29B41" fill-opacity="0.6"/>
<path d="M78.51 294.46C83.32 291.49 86.93 287.6 90.26 283.04C92.58 279.86 94.54 276.06 94.01 272.16C90.75 272.09 87.65 273.89 85.53 276.37C83.41 278.85 82.15 281.94 81.21 285.07C80.27 288.19 79.61 291.4 78.51 294.47" fill="#F29B41" fill-opacity="0.6"/>
<path d="M90.06 291.25C100.61 287.35 110.46 281.54 118.98 274.19C115.52 272.8 111.57 273.63 108.11 275.03C100.22 278.22 93.77 283.59 89.9 291.17" fill="#F29B41" fill-opacity="0.6"/>
<path d="M81.76 298.34C87.1 298.92 92.52 299.3 97.82 298.42C103.03 297.55 107.95 295.49 112.81 293.44C113.21 293.27 113.65 293.07 113.83 292.67C114.02 292.24 113.82 291.71 113.46 291.39C113.11 291.07 112.64 290.92 112.18 290.79C106.89 289.31 101.18 290 95.98 291.76C90.78 293.52 86.51 295.6 81.75 298.35" fill="#F29B41" fill-opacity="0.6"/>
<path d="M51.27 311.51C47.63 304.16 47.86 295.58 51.01 288C53.23 291.38 53.5 295.67 53.09 299.69C52.68 303.71 51.46 307.84 51.38 311.88" fill="#F29B41" fill-opacity="0.6"/>
<path d="M36.72 304.17C27.62 304 18.53 307.87 12.35 314.55C16.89 315.26 21.56 314.09 25.69 312.08C29.82 310.06 33.49 307.23 37.13 304.43" fill="#F29B41" fill-opacity="0.6"/>
<path d="M26.93 300.9C22.48 300.54 18.2 299.99 13.92 301.3C9.64 302.61 5.75 305.59 4 309.71C8.16 310.18 12.38 309.14 16.2 307.41C20.01 305.68 23.48 303.29 26.93 300.91" fill="#F29B41" fill-opacity="0.6"/>
<path d="M41.42 301.04C37.42 298.42 33.31 295.75 28.65 294.66C23.99 293.57 18.59 294.38 15.34 297.89C19.11 300.1 23.69 300.37 28.06 300.36C32.43 300.36 37.8 300.31 41.92 301.77" fill="#F29B41" fill-opacity="0.6"/>
<path d="M41.45 301.26C34.61 294.54 32.01 282.47 34.77 273.28C40.15 281.45 42.56 291.54 41.45 301.26Z" fill="#F29B41" fill-opacity="0.6"/>
<path d="M60.26 282.22C61.55 279.22 62.46 276.07 63.62 273.02C64.78 269.97 66.22 266.96 68.4 264.54C70.59 262.12 73.61 260.31 76.88 260.15C74.84 269.4 68.7 277.66 60.43 282.28" fill="#F29B41" fill-opacity="0.6"/>
<path d="M56.86 286.18C54.72 283.24 52.26 279.25 49.36 277.06C46.46 274.87 42.69 273.54 39.16 274.38C42.75 280.81 49.55 285.34 56.86 286.18Z" fill="#F29B41" fill-opacity="0.6"/>
<path d="M57.54 282.46C56.14 278.9 54.73 275.31 54.16 271.53C53.59 267.75 53.94 263.71 55.87 260.41C59.63 267.51 60.84 275.13 57.73 282.54" fill="#F29B41" fill-opacity="0.6"/>
<path d="M60.3 260.41C62.43 253.37 68.87 248.19 75.83 245.81C76.71 245.51 77.64 245.26 78.55 245.4C79.46 245.54 80.36 246.17 80.56 247.08C80.81 248.28 79.82 249.35 78.89 250.15C73.47 254.78 67.1 258.3 60.29 260.42" fill="#F29B41" fill-opacity="0.6"/>
<path d="M60.37 254.66C60.64 250.12 60.92 245.52 62.4 241.22C63.88 236.92 66.72 232.89 70.86 231C71.56 235.58 69.54 240.14 67.1 244.09C64.66 248.03 61.72 251.76 60.26 256.16" fill="#F29B41" fill-opacity="0.6"/>
<path d="M60.26 257.78C58.5 252.65 58.32 246.13 55.25 241.66C53.1 238.54 49.66 236.41 47.81 233.1C46.58 236.19 46.96 239.75 48.24 242.82C49.53 245.89 51.65 248.53 53.92 250.96C56.19 253.39 58.14 255.21 60.25 257.78" fill="#F29B41" fill-opacity="0.6"/>
<path d="M60.3 408.86C60.16 408.86 60.04 374.64 60.04 332.43C60.04 290.21 60.13 255.99 60.27 255.99C60.41 255.99 60.53 290.21 60.53 332.43C60.53 374.64 60.44 408.86 60.3 408.86Z" fill="#F29B41" fill-opacity="0.6"/>
<path d="M90.2 306.34C90.2 306.34 89.75 306.54 88.91 306.82C87.99 307.13 86.8 307.53 85.37 308.01C82.38 309.03 78.28 310.5 73.83 312.32C69.42 314.21 65.27 315.75 62.9 317.8C61.72 318.81 61.04 319.91 60.7 320.71C60.36 321.51 60.3 322.01 60.25 322C60.23 322 60.24 321.87 60.26 321.64C60.3 321.41 60.36 321.06 60.51 320.64C60.8 319.8 61.46 318.62 62.65 317.54C63.84 316.46 65.5 315.48 67.39 314.59C69.29 313.7 71.39 312.78 73.62 311.86C78.09 310.03 82.22 308.6 85.24 307.67C86.75 307.2 87.98 306.85 88.83 306.62C89.69 306.4 90.16 306.29 90.17 306.32L90.2 306.34Z" fill="#F29B41" fill-opacity="0.6"/>
<path d="M100.01 282.26C100.01 282.26 99.9 282.41 99.65 282.64C99.36 282.91 99 283.25 98.55 283.67C97.53 284.6 96.14 285.86 94.45 287.39C90.91 290.54 86.11 294.82 80.81 299.54C75.48 304.28 70.88 308.81 67.69 312.22C66.09 313.92 64.83 315.33 63.98 316.32C63.58 316.78 63.25 317.15 62.99 317.45C62.76 317.71 62.63 317.84 62.62 317.83C62.61 317.82 62.71 317.67 62.91 317.39C63.12 317.11 63.42 316.7 63.83 316.2C64.64 315.17 65.87 313.73 67.43 311.99C70.56 308.51 75.14 303.93 80.48 299.18C85.82 294.45 90.69 290.2 94.22 287.14C95.95 285.65 97.38 284.43 98.42 283.53C98.89 283.14 99.27 282.82 99.58 282.57C99.85 282.35 100 282.25 100.01 282.26Z" fill="#F29B41" fill-opacity="0.6"/>
<path d="M75.05 304.38C74.91 304.32 76.02 301.75 77.13 298.5C78.25 295.25 78.78 292.51 78.92 292.53C79.05 292.54 78.73 295.37 77.6 298.66C77.04 300.3 76.43 301.75 75.94 302.77C75.46 303.8 75.11 304.41 75.05 304.38Z" fill="#F29B41" fill-opacity="0.6"/>
<path d="M60.33 325.09C60.33 325.09 60.01 324.77 59.51 324.14C58.95 323.43 58.25 322.52 57.41 321.44C55.64 319.16 53.2 316.01 50.47 312.56C47.73 309.11 45.22 306.02 43.39 303.78C42.53 302.72 41.81 301.82 41.24 301.12C40.74 300.49 40.47 300.13 40.5 300.1C40.53 300.08 40.84 300.4 41.39 300.99C41.94 301.58 42.71 302.46 43.66 303.55C45.55 305.73 48.11 308.79 50.86 312.25C53.6 315.7 56 318.89 57.7 321.23C58.55 322.4 59.22 323.35 59.68 324.02C60.13 324.69 60.37 325.07 60.35 325.09H60.33Z" fill="#F29B41" fill-opacity="0.6"/>
<path d="M53.77 316.67C53.69 316.76 51.94 314.68 51.02 311.53C50.34 309.31 50.31 307.27 50.4 306.35L50.62 306.37C50.52 306.77 50.45 306.98 50.41 306.97C50.37 306.97 50.37 306.74 50.41 306.34L50.63 306.36C50.71 307.28 50.85 309.24 51.51 311.4C52.4 314.46 53.92 316.6 53.78 316.68L53.77 316.67Z" fill="#F29B41" fill-opacity="0.6"/>
<path d="M45.31 306.02C45.25 306.09 44.68 305.38 43.39 304.91C42.11 304.41 40.18 304.31 38.06 304.49C35.94 304.65 34.05 305.02 32.7 305.36C31.35 305.7 30.52 305.96 30.49 305.89C30.47 305.83 31.26 305.45 32.6 305.02C33.95 304.6 35.86 304.16 38.02 304C40.16 303.82 42.19 303.98 43.51 304.59C44.85 305.18 45.34 306.02 45.3 306.03L45.31 306.02Z" fill="#F29B41" fill-opacity="0.6"/>
<path d="M43.3 303.44C43.26 303.52 42.18 302.99 40.36 302.37C38.54 301.74 35.95 301.09 33.03 300.86C30.1 300.64 27.44 300.9 25.55 301.24C23.66 301.58 22.51 301.93 22.48 301.85C22.47 301.82 22.75 301.7 23.26 301.52C23.77 301.33 24.53 301.11 25.48 300.9C27.38 300.46 30.08 300.15 33.06 300.37C36.04 300.6 38.66 301.33 40.47 302.04C41.38 302.4 42.09 302.73 42.57 302.99C43.05 303.25 43.31 303.41 43.29 303.44H43.3Z" fill="#F29B41" fill-opacity="0.6"/>
<path d="M60.26 292.53C60.13 292.56 59.17 289.23 58.12 285.09C57.07 280.94 56.32 277.56 56.46 277.52C56.59 277.49 57.55 280.82 58.6 284.96C59.65 289.1 60.4 292.49 60.26 292.53Z" fill="#F29B41" fill-opacity="0.6"/>
<path d="M60.4 292.53C60.25 292.58 59.64 290.35 58.02 288.07C56.45 285.74 54.45 284.58 54.52 284.46C54.55 284.41 55.1 284.61 55.87 285.16C56.64 285.7 57.6 286.61 58.42 287.79C60.09 290.16 60.51 292.52 60.39 292.53H60.4Z" fill="#F29B41" fill-opacity="0.6"/>
<path d="M60.3 390.61C60.25 390.61 60.15 389.79 59.76 388.33C59.38 386.88 58.66 384.82 57.47 382.4C55.11 377.57 50.8 371.44 45.34 365.31C42.63 362.22 40 359.3 37.77 356.5C35.54 353.71 33.7 351.05 32.36 348.7C31.01 346.35 30.14 344.33 29.63 342.91C29.38 342.2 29.19 341.64 29.09 341.25C28.98 340.87 28.93 340.66 28.95 340.66C28.99 340.65 29.24 341.44 29.81 342.84C30.37 344.23 31.29 346.21 32.66 348.52C34.03 350.83 35.88 353.45 38.12 356.22C40.36 358.99 42.99 361.89 45.71 364.99C51.19 371.14 55.48 377.35 57.79 382.26C58.95 384.71 59.62 386.81 59.95 388.29C60.11 389.03 60.22 389.61 60.25 390.01C60.3 390.41 60.32 390.61 60.3 390.62V390.61Z" fill="#F29B41" fill-opacity="0.6"/>
<path d="M87.32 360.09C87.32 360.09 86.82 360.39 85.9 360.88C84.99 361.39 83.7 362.18 82.23 363.31C80.75 364.44 79.1 365.93 77.41 367.71C75.72 369.5 73.97 371.58 72.19 373.8C68.63 378.27 65.3 382.22 63.31 385.37C62.3 386.93 61.56 388.25 61.08 389.18C60.59 390.1 60.34 390.62 60.3 390.61C60.28 390.61 60.33 390.46 60.43 390.21C60.54 389.96 60.68 389.57 60.91 389.1C61.34 388.14 62.04 386.79 63.02 385.19C64.96 381.96 68.26 377.95 71.81 373.49C73.59 371.26 75.36 369.18 77.08 367.39C78.81 365.61 80.5 364.13 82.02 363.02C83.54 361.91 84.87 361.16 85.81 360.7C86.28 360.46 86.66 360.32 86.92 360.21C87.18 360.11 87.31 360.06 87.32 360.07V360.09Z" fill="#F29B41" fill-opacity="0.6"/>
<path d="M87.85 369.99C87.85 370.06 86.71 370.2 84.86 370.42C83.02 370.66 80.45 370.97 77.76 371.82C75.08 372.69 72.85 374.02 71.4 375.16C69.93 376.29 69.24 377.23 69.18 377.17C69.16 377.15 69.3 376.9 69.62 376.48C69.94 376.06 70.46 375.5 71.18 374.88C72.61 373.65 74.86 372.24 77.61 371.34C80.36 370.47 82.97 370.22 84.83 370.06C86.7 369.92 87.85 369.91 87.86 369.97L87.85 369.99Z" fill="#F29B41" fill-opacity="0.6"/>
<path d="M70.05 376.09C69.89 376 71.24 373.94 72.29 371.17C73.27 368.37 73.5 365.92 73.68 365.95C73.74 365.95 73.74 366.57 73.63 367.56C73.51 368.54 73.28 369.91 72.76 371.34C72.24 372.78 71.55 373.98 71.02 374.81C70.49 375.64 70.11 376.13 70.05 376.09Z" fill="#F29B41" fill-opacity="0.6"/>
<path d="M96.07 333.5C96.07 333.5 95.91 333.6 95.59 333.75C95.22 333.92 94.75 334.13 94.18 334.39C93.56 334.65 92.82 334.99 91.97 335.43C91.12 335.87 90.14 336.32 89.11 336.93C88.59 337.23 88.04 337.54 87.48 337.86C86.91 338.19 86.35 338.57 85.76 338.95C84.56 339.68 83.35 340.58 82.06 341.5C79.54 343.41 76.89 345.67 74.34 348.29C71.81 350.93 69.64 353.65 67.82 356.24C66.95 357.56 66.09 358.79 65.4 360.02C65.05 360.63 64.68 361.2 64.37 361.78C64.07 362.36 63.78 362.91 63.5 363.44C62.92 364.49 62.5 365.49 62.1 366.35C61.68 367.21 61.38 367.97 61.13 368.59C60.89 369.17 60.7 369.64 60.54 370.02C60.4 370.34 60.32 370.51 60.3 370.51C60.28 370.51 60.33 370.33 60.44 369.99C60.57 369.6 60.74 369.12 60.95 368.53C61.17 367.89 61.45 367.12 61.84 366.25C62.22 365.38 62.62 364.36 63.19 363.29C63.46 362.75 63.74 362.19 64.04 361.6C64.34 361.01 64.7 360.43 65.05 359.82C65.73 358.57 66.58 357.32 67.45 355.99C69.27 353.37 71.45 350.62 73.99 347.96C76.56 345.33 79.24 343.05 81.79 341.15C83.09 340.24 84.32 339.34 85.54 338.62C86.14 338.25 86.71 337.87 87.29 337.55C87.87 337.24 88.42 336.93 88.95 336.64C89.99 336.04 91 335.61 91.86 335.19C92.72 334.77 93.48 334.46 94.11 334.22C94.7 333.99 95.17 333.81 95.56 333.66C95.89 333.54 96.07 333.48 96.08 333.5H96.07Z" fill="#F29B41" fill-opacity="0.6"/>
<path d="M74.69 347.83C74.69 347.83 74.88 346.99 75.87 346.08C76.83 345.17 78.57 344.32 80.61 344.26C82.64 344.21 84.4 344.77 85.6 345.23C86.81 345.7 87.51 346.09 87.49 346.15C87.46 346.22 86.71 345.95 85.49 345.56C84.27 345.19 82.56 344.7 80.63 344.75C78.72 344.81 77.06 345.55 76.1 346.34C75.12 347.13 74.77 347.87 74.7 347.83H74.69Z" fill="#F29B41" fill-opacity="0.6"/>
<path d="M71.49 351.13C71.35 351.05 72.56 349.29 72.84 346.75C73.16 344.22 72.39 342.22 72.54 342.18C72.59 342.16 72.86 342.62 73.1 343.45C73.33 344.28 73.49 345.48 73.34 346.8C73.18 348.12 72.76 349.25 72.34 350.01C71.92 350.77 71.55 351.16 71.51 351.12L71.49 351.13Z" fill="#F29B41" fill-opacity="0.6"/>
<path d="M36.66 395.52C37.4 408.6 41.34 421.9 47.4 435.35H73.76C79.54 422.04 83.21 408.76 83.86 395.52H36.66Z" fill="#4A535C"/>
<path d="M79.59 416.68C79.59 416.82 70.91 416.93 60.21 416.93C49.51 416.93 40.82 416.82 40.82 416.68C40.82 416.54 49.5 416.43 60.21 416.43C70.92 416.43 79.59 416.54 79.59 416.68Z" fill="#FAFAFA"/>
<path d="M79 421.42C79 421.56 70.86 421.67 60.83 421.67C50.8 421.67 42.66 421.56 42.66 421.42C42.66 421.28 50.79 421.17 60.83 421.17C70.87 421.17 79 421.28 79 421.42Z" fill="#FAFAFA"/>
<path d="M47.83 404.1C47.97 404.1 48.08 406.82 48.08 410.17C48.08 413.52 47.97 416.24 47.83 416.24C47.69 416.24 47.58 413.52 47.58 410.17C47.58 406.82 47.69 404.1 47.83 404.1Z" fill="#FAFAFA"/>
<path d="M61.95 404.1C62.09 404.1 62.2 406.92 62.2 410.39C62.2 413.86 62.09 416.68 61.95 416.68C61.81 416.68 61.7 413.87 61.7 410.39C61.7 406.91 61.81 404.1 61.95 404.1Z" fill="#FAFAFA"/>
<path d="M75.21 404C75.35 404 75.46 406.87 75.46 410.41C75.46 413.95 75.35 416.82 75.21 416.82C75.07 416.82 74.96 413.95 74.96 410.41C74.96 406.87 75.07 404 75.21 404Z" fill="#FAFAFA"/>
<path d="M83.03 404.1C83.03 404.24 72.85 404.35 60.3 404.35C47.75 404.35 37.56 404.24 37.56 404.1C37.56 403.96 47.74 403.85 60.3 403.85C72.86 403.85 83.03 403.96 83.03 404.1Z" fill="#FAFAFA"/>
<g clip-path="url(#clip0_0_1)">
<path d="M479 455.95C479 456.09 390.498 456.21 281.344 456.21C172.191 456.21 83.6699 456.09 83.6699 455.95C83.6699 455.81 172.153 455.69 281.344 455.69C390.535 455.69 479 455.81 479 455.95Z" fill="#263238"/>
<path d="M201.63 196.65C200.62 193.42 197.42 191.02 194.04 190.93C194.91 188.47 193.23 185.61 190.83 184.58C188.43 183.54 185.61 184.01 183.25 185.13C181.58 185.92 180.03 187.03 178.22 187.43C175.85 187.96 173.4 187.22 170.98 187.14C166.03 186.98 161.11 189.84 158.81 194.22C158 195.76 157.5 197.44 156.61 198.93C155.9 200.12 154.95 201.16 154.25 202.36C152.21 205.82 152.55 210.53 155.07 213.67L189.19 205.83C191.97 207.76 195.97 207.7 198.7 205.69C201.43 203.68 202.67 199.88 201.65 196.65H201.63Z" fill="#263238"/>
<path d="M280.16 322.17L247.3 318.91L245.39 335.99L282.51 334.7L280.16 322.17Z" fill="#FEF6F1"/>
<path d="M305.13 332.18C304.7 332.78 303.95 333.1 303.23 332.92C303.09 332.88 302.94 332.83 302.79 332.76C301.81 332.27 302.24 330.18 302.24 330.18L297.42 328.59C297.42 328.59 290.34 331.72 287.62 334.11C284.9 336.5 279.42 333.35 279.42 333.35L279.06 322.49L289.46 315.7C289.46 315.7 288.82 316.1 289.69 314.66C290.56 313.22 293.33 314.25 293.33 314.25C293.9 313.56 295.81 313.58 295.81 313.58L303.65 315.76C305.26 316.21 306.59 317.37 307.25 318.91L309.78 324.79C309.78 324.79 310.95 328.92 310.53 329.77C309.88 331.05 308.5 330.53 308.5 330.53C308.5 330.53 307.71 333 307.03 332.98C306.35 332.96 305.13 332.19 305.13 332.19V332.18Z" fill="#FEF6F1"/>
<path d="M289.64 332.67C289.64 332.67 289.83 332.58 290.17 332.38C290.56 332.16 291.05 331.87 291.68 331.52C293 330.79 294.96 329.77 297.5 328.74H297.38C298.81 329.23 300.43 329.77 302.18 330.36L302.04 330.12C301.97 330.52 301.93 330.92 301.94 331.34C301.96 331.76 302.02 332.21 302.31 332.62C302.46 332.82 302.71 332.96 302.92 333.02C303.13 333.11 303.37 333.17 303.61 333.17C304.09 333.17 304.57 333 304.95 332.68C305.04 332.6 305.13 332.51 305.21 332.42L305.27 332.35L305.3 332.31V332.29H305.32C305.39 332.28 304.74 332.4 305.01 332.35L305.16 332.44C305.36 332.56 305.56 332.66 305.76 332.77C305.97 332.87 306.18 332.97 306.41 333.05C306.53 333.09 306.64 333.13 306.77 333.15C306.89 333.17 307.03 333.2 307.24 333.13C307.55 332.98 307.69 332.76 307.83 332.55C307.96 332.34 308.08 332.13 308.18 331.91C308.39 331.47 308.56 331.03 308.72 330.56L308.4 330.71C309.02 330.92 309.8 330.89 310.34 330.37C310.58 330.13 310.8 329.82 310.84 329.43C310.88 329.08 310.84 328.77 310.82 328.45C310.67 327.18 310.36 325.94 310.02 324.68V324.65C309.59 323.65 309.13 322.59 308.67 321.52C308.38 320.85 308.1 320.19 307.81 319.53C307.52 318.89 307.28 318.19 306.83 317.58C306.4 316.98 305.85 316.48 305.23 316.11C304.62 315.72 303.9 315.54 303.26 315.37C300.66 314.65 298.19 313.97 295.87 313.34H295.84H295.81C295.34 313.34 294.89 313.39 294.44 313.48C294 313.58 293.53 313.7 293.17 314.1L293.46 314.06C292.67 313.58 291.69 313.42 290.87 313.8C290.05 314.17 289.58 314.91 289.28 315.62L289.36 315.53C286.38 317.47 283.94 319.05 282.2 320.18C281.39 320.72 280.75 321.15 280.26 321.47C279.82 321.77 279.59 321.94 279.6 321.95C279.61 321.97 279.86 321.83 280.31 321.56C280.81 321.26 281.47 320.86 282.3 320.36C284.06 319.26 286.53 317.73 289.55 315.86L289.6 315.83L289.63 315.77C289.9 315.14 290.35 314.47 291.03 314.19C291.69 313.88 292.54 314.03 293.21 314.44L293.37 314.54L293.5 314.4C293.71 314.16 294.12 314.02 294.53 313.94C294.94 313.86 295.38 313.82 295.81 313.82H295.75C298.06 314.46 300.53 315.16 303.13 315.89C303.79 316.07 304.41 316.23 304.97 316.59C305.53 316.93 306.03 317.38 306.42 317.93C306.82 318.46 307.04 319.12 307.34 319.78C307.62 320.44 307.91 321.1 308.19 321.77C308.65 322.84 309.11 323.9 309.54 324.9V324.87C309.87 326.11 310.17 327.35 310.32 328.55C310.35 328.85 310.38 329.15 310.35 329.42C310.35 329.65 310.19 329.88 310.01 330.06C309.66 330.42 309.06 330.46 308.59 330.3L308.35 330.22L308.27 330.45C308.12 330.89 307.96 331.33 307.76 331.74C307.58 332.13 307.32 332.6 307.07 332.73C307.06 332.73 306.97 332.75 306.87 332.73C306.77 332.71 306.67 332.68 306.57 332.65C306.37 332.58 306.17 332.5 305.97 332.4C305.77 332.31 305.58 332.2 305.4 332.09L305.26 332.01C305.54 331.96 304.88 332.08 304.95 332.07L304.94 332.09L304.92 332.12L304.88 332.18C304.82 332.25 304.75 332.32 304.68 332.38C304.39 332.63 304.01 332.77 303.64 332.77C303.45 332.77 303.28 332.73 303.1 332.65C302.91 332.59 302.78 332.51 302.68 332.39C302.29 331.83 302.36 330.94 302.47 330.24L302.5 330.06L302.34 330.01C300.58 329.44 298.95 328.92 297.51 328.45L297.45 328.43L297.39 328.45C294.84 329.54 292.91 330.61 291.61 331.39C290.96 331.78 290.47 332.1 290.15 332.33C289.83 332.56 289.66 332.68 289.67 332.7L289.64 332.67Z" fill="#FF9A6C"/>
<path d="M294.25 317.27C294.22 317.32 295.11 317.84 296.69 318.44C298.26 319.04 300.55 319.69 303.2 319.96L302.97 319.74C303.04 320.15 303.12 320.59 303.22 321.03C303.88 323.94 305.16 326.36 306.28 327.95C306.84 328.74 307.35 329.34 307.72 329.74C308.1 330.13 308.32 330.33 308.35 330.3C308.42 330.24 307.62 329.35 306.59 327.74C305.57 326.13 304.38 323.75 303.74 320.91C303.64 320.48 303.56 320.06 303.49 319.65L303.45 319.45L303.25 319.43C300.65 319.18 298.39 318.61 296.81 318.1C295.22 317.6 294.29 317.2 294.25 317.27Z" fill="#FF9A6C"/>
<path d="M301.09 323.12C300.96 323.12 301.13 325.41 302.36 327.91C303.57 330.42 305.25 331.97 305.34 331.87C305.46 331.76 304 330.1 302.84 327.68C301.66 325.27 301.26 323.1 301.1 323.13L301.09 323.12Z" fill="#FF9A6C"/>
<path d="M278.35 329.88C278.35 329.88 278.42 329.96 278.58 330.07C278.74 330.18 278.99 330.33 279.32 330.5C279.99 330.83 281.03 331.24 282.4 331.36C283.76 331.48 285.49 331.31 287.18 330.44C288.86 329.59 290.48 328.06 291.39 325.96L291.07 326.1C292.8 326.72 294.75 327.16 296.8 327.29C297.53 327.34 298.26 327.34 298.98 327.31C299.69 327.27 300.42 327.24 301.12 326.96C301.45 326.83 301.84 326.6 302.03 326.21C302.22 325.84 302.22 325.4 302.08 325.04C301.94 324.67 301.65 324.36 301.29 324.2C300.99 324.07 300.7 323.95 300.41 323.83C298.08 322.86 295.94 322.09 294.12 321.5C292.3 320.91 290.81 320.5 289.78 320.24C288.74 319.98 288.16 319.87 288.16 319.9C288.16 319.94 288.71 320.12 289.73 320.44C290.75 320.76 292.21 321.22 294.01 321.85C295.8 322.48 297.92 323.28 300.23 324.27C300.52 324.4 300.81 324.52 301.1 324.65C301.33 324.76 301.52 324.96 301.61 325.21C301.7 325.46 301.69 325.75 301.57 325.98C301.46 326.21 301.23 326.36 300.93 326.48C300.35 326.71 299.66 326.75 298.96 326.78C298.26 326.81 297.55 326.8 296.84 326.76C294.84 326.64 292.94 326.22 291.25 325.62L291.02 325.54L290.93 325.76C290.09 327.74 288.57 329.21 286.99 330.05C285.4 330.9 283.76 331.11 282.43 331.04C281.1 330.97 280.07 330.62 279.39 330.35C278.71 330.07 278.37 329.86 278.35 329.89V329.88Z" fill="#FF9A6C"/>
<path d="M173.54 279.94C165.54 279.87 159.06 273.23 158.96 265.01L158.34 215.5C157.76 202.21 164.8 190.78 177.74 190.55L178.94 190.6C190.98 191.11 200.63 201.05 201.1 213.43C201.54 224.96 202.01 236.09 201.69 242.25C201.02 255 188.41 256.26 188.41 256.26C188.38 256.26 188.38 261.02 188.38 264.77C188.39 273.19 181.73 280.01 173.54 279.93V279.94Z" fill="#FEF6F1"/>
<path d="M188.41 256.35C188.41 256.35 180.57 256.49 172.46 250.75C172.46 250.75 175.96 260.51 188.38 259.88L188.41 256.34V256.35Z" fill="#EBD4D8"/>
<path d="M196.52 224.78C196.52 225.74 195.72 226.53 194.74 226.55C193.76 226.56 192.97 225.79 192.98 224.83C192.98 223.87 193.78 223.08 194.76 223.06C195.74 223.05 196.53 223.82 196.52 224.78Z" fill="#263238"/>
<path d="M198.24 218.96C198.01 219.19 196.71 218.11 194.8 218.03C192.9 217.93 191.46 218.88 191.26 218.63C191.16 218.52 191.4 218.1 192.03 217.67C192.65 217.24 193.69 216.84 194.88 216.9C196.07 216.96 197.05 217.45 197.6 217.93C198.17 218.42 198.35 218.86 198.24 218.96Z" fill="#263238"/>
<path d="M179.22 224.78C179.22 225.74 178.42 226.53 177.44 226.55C176.46 226.56 175.67 225.79 175.68 224.83C175.68 223.87 176.48 223.08 177.46 223.06C178.44 223.05 179.23 223.82 179.22 224.78Z" fill="#263238"/>
<path d="M179.53 218.62C179.3 218.85 178 217.77 176.09 217.69C174.19 217.59 172.75 218.54 172.55 218.29C172.45 218.18 172.69 217.76 173.32 217.33C173.94 216.9 174.98 216.5 176.17 216.56C177.36 216.62 178.34 217.11 178.89 217.59C179.46 218.08 179.64 218.52 179.53 218.62Z" fill="#263238"/>
<path d="M185.76 233.98C185.76 233.87 186.95 233.71 188.88 233.54C189.37 233.51 189.83 233.43 189.93 233.09C190.06 232.73 189.88 232.18 189.66 231.59C189.25 230.36 188.82 229.07 188.37 227.72C186.59 222.21 185.32 217.68 185.54 217.61C185.76 217.54 187.38 221.95 189.16 227.46C189.59 228.82 190 230.11 190.38 231.35C190.54 231.93 190.83 232.59 190.55 233.33C190.4 233.7 190.04 233.95 189.72 234.03C189.4 234.11 189.13 234.11 188.89 234.11C186.95 234.13 185.75 234.09 185.75 233.98H185.76Z" fill="#263238"/>
<path d="M180.39 212.51C180.11 213 178.28 212.39 176.03 212.25C173.78 212.06 171.89 212.38 171.68 211.86C171.59 211.61 171.99 211.18 172.8 210.8C173.6 210.43 174.82 210.16 176.17 210.26C177.52 210.36 178.69 210.81 179.43 211.3C180.18 211.79 180.51 212.28 180.39 212.51Z" fill="#263238"/>
<path d="M198.55 213.2C198.14 213.63 196.6 213.13 194.73 213.06C192.87 212.93 191.27 213.27 190.92 212.79C190.77 212.56 191.03 212.12 191.73 211.72C192.42 211.32 193.57 211.01 194.85 211.07C196.13 211.14 197.23 211.57 197.87 212.05C198.52 212.53 198.72 212.99 198.54 213.2H198.55Z" fill="#263238"/>
<path d="M158.97 224.99C158.76 224.89 150.55 222.04 150.47 230.77C150.39 239.5 158.93 237.78 158.95 237.53C158.97 237.28 158.97 224.99 158.97 224.99Z" fill="#FEF6F1"/>
<path d="M156.39 234.2C156.39 234.2 156.24 234.3 155.99 234.42C155.75 234.53 155.33 234.61 154.88 234.43C153.99 234.08 153.24 232.61 153.22 231.04C153.21 230.25 153.37 229.49 153.65 228.87C153.92 228.23 154.32 227.79 154.77 227.71C155.22 227.61 155.54 227.89 155.64 228.14C155.75 228.39 155.7 228.56 155.74 228.57C155.76 228.59 155.92 228.43 155.86 228.06C155.83 227.89 155.73 227.68 155.53 227.51C155.33 227.34 155.03 227.25 154.71 227.28C154.05 227.32 153.46 227.93 153.15 228.62C152.81 229.31 152.6 230.16 152.61 231.05C152.65 232.81 153.51 234.47 154.73 234.84C155.33 235.01 155.83 234.83 156.08 234.62C156.35 234.41 156.39 234.21 156.36 234.2H156.39Z" fill="#EBD4D8"/>
<path d="M165.06 203.19C165.42 200.92 167.12 199.08 169.3 198.35C171.14 197.73 173.16 197.74 175.04 198.42C179.82 200.16 187.99 202.77 190.12 201.1C193.19 198.7 193.92 197.13 193.92 197.13L195.61 198.96C196.99 198.18 192.86 193.6 189.49 192.02C184.39 189.64 176.59 188.16 171.88 189.53C166.21 191.18 161.5 194.08 158.66 199.38C155.81 204.68 154.74 210.86 154.9 216.92C154.95 218.77 154.61 224.06 156.4 224.47C157.78 224.79 159.55 225.4 159.45 228.07C159.41 229.04 159.68 230.03 160.33 230.74C161.88 232.44 163.78 230.84 164.66 229.24C166.53 225.82 166.74 221.74 166.9 217.82C167.02 215.03 167.13 212.19 166.37 209.51C166.37 209.51 165.11 206.06 165 204.14C164.98 203.82 165 203.5 165.05 203.18L165.06 203.19Z" fill="#263238"/>
<path d="M186.1 238.7C186.15 238.83 185.76 239.16 184.97 239.33C184.2 239.5 183.01 239.46 181.9 238.85C180.79 238.24 180.11 237.28 179.82 236.54C179.53 235.79 179.57 235.29 179.71 235.25C180 235.15 180.64 236.9 182.43 237.88C184.21 238.87 186.02 238.4 186.1 238.7Z" fill="#263238"/>
<path d="M194.92 355.19L154.3 346.26L128.23 281.57C128.23 281.57 93.3398 289.31 87.5798 308.8C82.5998 325.65 72.3198 400.13 95.6898 446.04C101.7 457.85 113.94 465.18 127.19 465.18H304.92C327.36 465.18 346.22 448.32 348.71 426.02C349.71 417.03 350.41 408.49 350.27 402.93L321.73 381.02L194.92 355.19Z" fill="#811319"/>
<g opacity="0.3">
<path d="M303.57 377.7C316.07 394.04 331.3 408.73 349.5 418.31L350.36 396.13L316.75 372.21L303.57 377.7Z" fill="black"/>
</g>
<path d="M169.39 268.99C169.39 270.17 178.63 273.97 182.8 272.3C189.15 269.76 188.37 264.77 188.37 264.77L191.89 268.49L227.26 322.38L253.55 339.73L211.46 353.06L167.35 302.38L169.37 268.98L169.39 268.99Z" fill="white"/>
<path d="M158.24 250.9L157.31 252.64L153.11 260.47L135.64 271.61L171.57 314.31L187.97 353.07L227.27 365.37C227.27 365.37 208.57 336.61 202.76 321.92C196.95 307.23 196.36 307.91 191.06 297.14C185.99 286.83 181.46 273.79 181.46 273.79L158.25 250.89L158.24 250.9Z" fill="#DCEEFF"/>
<path d="M242.42 327.81L250.13 335L252.31 339.44L223.65 326.11L202.96 297.15C202.96 297.15 195.59 280.8 193.05 274.94C190.39 268.78 188.39 265.29 188.39 265.29L188.36 260.42L198.82 269.84L207.54 272.44L222.1 295.45L242.42 327.81Z" fill="#DCEEFF"/>
<path d="M233.59 300.73C233.59 300.73 230.11 293.31 227.27 287.14C220.87 273.24 205.78 271.92 205.78 271.92L222.46 318.18L242.9 332.67C242.9 332.67 248.71 334.7 249.44 332.67C249.44 332.67 253.7 317.33 253.57 317.27C253.44 317.21 239.03 312.9 239.03 312.9L233.23 299.94" fill="#DCEEFF"/>
<path d="M264.33 286.29L244.48 319.36L265.27 318.74L283.6 288.1C284.3 286.92 283.46 285.43 282.08 285.43H265.84C265.22 285.43 264.65 285.76 264.33 286.29Z" fill="#263238"/>
<path d="M187.98 323.69L237.66 317.78L246.02 303.16L252.56 299.56C253.67 298.95 255.03 299.04 256.05 299.78L256.67 300.23L261.52 299.62C262.35 299.52 263.18 299.68 263.91 300.09L267.35 302.05C267.86 302.35 268.17 302.89 268.17 303.47C268.17 304.5 267.24 305.28 266.22 305.09L262.88 304.47L257.77 306.14C257.77 306.14 261.07 306.49 261.49 309C261.91 311.51 260.24 311.56 260.24 311.56C260.24 311.56 263.71 313.58 261.28 316.52C261.28 316.52 264.17 318.45 260.93 322.11C258.73 324.59 242.91 332.66 242.91 332.66L187.99 353.08V323.69H187.98Z" fill="#FEF6F1"/>
<path d="M261.14 316.57C261.14 316.57 261.51 316.57 261.95 317.02C262.37 317.45 262.77 318.38 262.48 319.47C262.2 320.56 261.33 321.57 260.34 322.53C259.35 323.51 258.17 324.5 256.85 325.41C254.2 327.24 251.58 328.5 249.68 329.37C247.77 330.23 246.57 330.7 246.54 330.64C246.51 330.57 247.66 329.98 249.52 329.04C251.37 328.09 253.95 326.79 256.55 324.99C257.85 324.09 259.01 323.14 260 322.19C261 321.26 261.83 320.33 262.12 319.38C262.42 318.44 262.12 317.59 261.79 317.16C261.45 316.72 261.11 316.62 261.14 316.58V316.57Z" fill="#FF9A6C"/>
<path d="M256.47 300.35C256.51 300.49 255.4 300.91 253.99 301.29C252.58 301.67 251.41 301.87 251.37 301.73C251.33 301.59 252.44 301.17 253.85 300.79C255.26 300.41 256.43 300.21 256.47 300.35Z" fill="#FF9A6C"/>
<path d="M262.87 304.47C262.92 304.61 261.37 305.24 259.42 305.89C257.47 306.54 255.85 306.95 255.81 306.82C255.76 306.68 257.31 306.05 259.26 305.4C261.21 304.75 262.83 304.34 262.87 304.47Z" fill="#FF9A6C"/>
<path d="M256.91 311.11C256.76 311.09 256.69 310.66 256.52 310.18C256.36 309.69 256.15 309.31 256.25 309.2C256.35 309.1 256.8 309.4 257.01 310.01C257.22 310.62 257.04 311.14 256.9 311.11H256.91Z" fill="#FF9A6C"/>
<path d="M258.61 316.84C258.46 316.81 258.52 316.1 258.31 315.28C258.12 314.46 257.74 313.85 257.85 313.76C257.94 313.66 258.58 314.2 258.81 315.16C259.05 316.12 258.73 316.89 258.6 316.84H258.61Z" fill="#FF9A6C"/>
<path d="M137.04 270.72C135.39 271.72 121.34 281.31 123.39 297.03C125.44 312.75 156.54 348.29 163.03 348.97L187.98 353.07V323.68L176.02 323L160.3 292.24L137.05 270.71L137.04 270.72Z" fill="#DCEEFF"/>
<path d="M187.98 322.26C187.98 322.26 187.67 322.32 187.09 322.35C186.42 322.38 185.59 322.41 184.57 322.45C182.3 322.5 179.25 322.57 175.63 322.65H175.5L175.42 322.55C173.54 320.03 171.39 317.13 169.1 314.06C165.33 308.97 161.95 304.34 159.52 300.97C158.36 299.34 157.4 297.99 156.67 296.96C156.01 296.01 155.66 295.47 155.69 295.45C155.72 295.43 156.13 295.92 156.85 296.83C157.62 297.83 158.62 299.14 159.84 300.73C162.35 304.04 165.78 308.63 169.55 313.72C171.82 316.81 173.96 319.72 175.82 322.25L175.62 322.15C179.23 322.15 182.29 322.15 184.56 322.15C185.58 322.17 186.41 322.18 187.08 322.19C187.66 322.21 187.97 322.23 187.97 322.26H187.98Z" fill="#263238"/>
<path d="M181.91 277.68C181.91 277.68 181.71 277.38 181.42 276.79C181.1 276.12 180.69 275.26 180.19 274.21L180.46 274.24C179.71 275.32 178.88 276.71 178.05 278.39C177.22 280.07 176.29 282.01 174.92 283.9L174.72 284.18L174.5 283.91C172.89 281.92 171.04 279.8 169.05 277.63C164.69 272.89 160.54 268.8 157.57 265.8C156.14 264.35 154.96 263.14 154.06 262.23C153.24 261.38 152.8 260.89 152.83 260.86C152.86 260.83 153.35 261.26 154.21 262.07C155.14 262.95 156.36 264.11 157.84 265.51C160.88 268.44 165.09 272.49 169.46 277.24C171.46 279.41 173.3 281.56 174.91 283.57H174.49C175.84 281.74 176.79 279.85 177.65 278.18C178.51 276.5 179.4 275.11 180.2 274.05L180.36 273.83L180.46 274.08C180.91 275.15 181.27 276.03 181.56 276.72C181.81 277.33 181.92 277.67 181.9 277.68H181.91Z" fill="#263238"/>
<path d="M198.93 270.17C198.93 270.17 199.29 270.67 199.68 271.65C200.09 272.62 200.51 274.07 200.99 275.79L201.33 277L200.56 276C199.61 274.77 198.32 273.46 196.89 272.14C195.74 271.07 194.6 270.09 193.57 269.2L193.99 269.04C193.73 271.01 193.89 272.75 193.83 273.98C193.8 275.21 193.64 275.92 193.59 275.91C193.53 275.91 193.58 275.2 193.52 273.98C193.49 272.77 193.25 271.04 193.48 268.97L193.53 268.5L193.9 268.81C194.95 269.68 196.1 270.66 197.26 271.73C198.7 273.07 199.99 274.41 200.94 275.71L200.5 275.92C200.07 274.18 199.72 272.74 199.4 271.75C199.09 270.76 198.87 270.2 198.92 270.17H198.93Z" fill="#263238"/>
<path d="M235.05 318.08C235.05 318.08 234.6 317.72 233.87 316.99C233.07 316.18 232.04 315.13 230.8 313.87C229.51 312.52 227.98 311.01 226.3 309.14C225.53 308.16 224.85 307.08 224.05 306.02C223.22 304.93 222.59 303.68 221.97 302.4C220.78 299.81 219.88 297.27 219.07 294.96C218.26 292.65 217.55 290.56 216.9 288.84C216.24 287.12 215.65 285.74 215.19 284.82C214.73 283.9 214.44 283.41 214.48 283.38C214.5 283.37 214.59 283.48 214.74 283.71C214.89 283.94 215.14 284.26 215.38 284.72C215.91 285.62 216.56 286.98 217.27 288.7C217.98 290.42 218.73 292.49 219.56 294.79C220.4 297.09 221.31 299.62 222.48 302.17C223.09 303.43 223.7 304.66 224.49 305.7C225.3 306.77 225.98 307.87 226.71 308.83C228.28 310.62 229.85 312.24 231.08 313.6C232.27 314.91 233.26 316.01 234.03 316.85C234.72 317.63 235.08 318.07 235.06 318.09L235.05 318.08Z" fill="#263238"/>
<path d="M249.48 334.68L343.8 332.03C345.29 331.99 346.78 332.25 348.16 332.84C351.59 334.3 357.76 338.05 361.99 347.03C368.13 360.07 396.72 415 396.72 415L367.8 429.82L332.33 364.03L223.02 354.75L224.28 346.01L249.49 334.68H249.48Z" fill="#263238"/>
<path d="M359.2 418.26L374.27 444.13L375.27 450.67C375.88 454.67 379.62 457.42 383.62 456.8L429.49 449.76C431.79 449.41 433.29 446.97 432.32 444.86C431.95 444.05 431.29 443.38 430.13 443.08C426.29 442.1 396.69 431.24 396.69 431.24L384.34 406.52L359.17 418.27L359.2 418.26Z" fill="#FEF6F1"/>
<path d="M371.83 424.24C371.71 424.33 370.2 422.46 368.44 420.08C366.69 417.7 365.36 415.7 365.47 415.62C365.59 415.53 367.1 417.4 368.86 419.78C370.61 422.16 371.94 424.16 371.83 424.24Z" fill="#263238"/>
<path d="M380.83 420.62C380.72 420.7 379.17 418.84 377.67 416.26C376.16 413.68 375.31 411.41 375.44 411.36C375.58 411.3 376.63 413.45 378.12 416C379.6 418.55 380.95 420.53 380.83 420.62Z" fill="#263238"/>
<path d="M387.12 455.97C387.02 456 386.78 455.07 386.09 453.73C385.41 452.39 384.21 450.64 382.41 449.23C380.61 447.82 378.62 447.06 377.16 446.72C375.69 446.37 374.74 446.35 374.74 446.25C374.74 446.18 375.7 446.04 377.25 446.29C378.78 446.53 380.9 447.25 382.79 448.74C384.68 450.23 385.89 452.11 386.48 453.54C387.09 454.98 387.18 455.95 387.12 455.96V455.97Z" fill="#263238"/>
<path d="M418.03 451.52C417.97 451.55 417.59 450.93 417.3 449.81C417.01 448.69 416.92 447.01 417.52 445.31C418.11 443.61 419.13 442.33 419.91 441.49C420.7 440.66 421.28 440.24 421.33 440.3C421.4 440.37 420.93 440.89 420.23 441.77C419.55 442.66 418.64 443.92 418.09 445.5C417.53 447.08 417.55 448.63 417.71 449.72C417.88 450.81 418.11 451.48 418.02 451.52H418.03Z" fill="#263238"/>
<path d="M220.59 347.54C220.59 347.54 317.93 337.79 322.66 338.18C331.39 338.9 347.49 352.67 376.05 371.84C399.75 387.75 417.03 406.29 417.03 406.29L407.9 427.13C407.9 427.13 343.88 403.8 333.85 395.41C325.51 388.44 310.29 378.51 310.29 378.51L272.74 378.89L244.84 381.35C230.85 382.58 217.2 376.58 208.66 365.42L197.83 351.27L220.59 347.53V347.54Z" fill="#263238"/>
<path d="M309.84 378.22C309.84 378.22 310 378.31 310.29 378.51C310.6 378.72 311.03 379.02 311.6 379.41C312.76 380.23 314.46 381.41 316.65 382.96C321.04 386.09 327.48 390.59 335.38 396.57C335.88 396.94 336.35 397.37 336.88 397.69C337.41 398.02 337.95 398.36 338.49 398.7C339.65 399.28 340.81 399.91 342.03 400.49C343.26 401.06 344.51 401.64 345.8 402.24C347.09 402.81 348.41 403.39 349.76 403.99C355.16 406.33 361.01 408.77 367.25 411.31C379.72 416.38 393.73 421.89 408.84 427.7L408.5 427.85C411.14 421.16 413.92 414.11 416.78 406.88L416.84 407.18C413.23 403.5 409.38 399.57 405.48 395.6H405.5C402.84 393.3 399.97 390.85 397.05 388.42C378.38 372.87 359.55 359.58 342.49 348.4H342.48L342.46 348.38C339.86 346.14 337.06 344.21 334.2 342.57C331.34 340.94 328.38 339.6 325.37 338.73C324.61 338.53 323.85 338.36 323.1 338.18C322.34 338.06 321.58 337.95 320.83 337.83C320.07 337.79 319.32 337.75 318.57 337.71C317.81 337.71 317.06 337.71 316.31 337.71C313.32 337.71 310.4 337.71 307.58 337.7C296.28 337.68 286.38 337.66 278.19 337.64C270.01 337.61 263.55 337.58 259.11 337.57C256.91 337.55 255.22 337.54 254.06 337.53C253.5 337.53 253.07 337.51 252.76 337.51C252.47 337.51 252.32 337.49 252.32 337.49C252.32 337.49 252.47 337.48 252.76 337.47C253.07 337.47 253.5 337.46 254.06 337.45C255.22 337.45 256.92 337.43 259.11 337.41C263.55 337.39 270.01 337.37 278.18 337.34C286.37 337.32 296.28 337.3 307.57 337.28C310.39 337.28 313.31 337.28 316.3 337.27C317.05 337.27 317.8 337.27 318.56 337.27C319.33 337.31 320.1 337.35 320.87 337.39C321.64 337.51 322.41 337.62 323.19 337.74C323.95 337.93 324.73 338.09 325.49 338.3C328.55 339.17 331.54 340.52 334.43 342.16C337.32 343.81 340.14 345.74 342.79 348.02L342.76 348C359.84 359.16 378.7 372.45 397.39 388.02C400.32 390.45 403.18 392.91 405.85 395.23V395.24C409.75 399.22 413.59 403.14 417.2 406.83L417.33 406.96L417.26 407.13C414.4 414.36 411.61 421.4 408.97 428.09L408.87 428.33L408.63 428.24C393.52 422.42 379.52 416.88 367.06 411.77C360.83 409.22 354.98 406.76 349.59 404.4C348.24 403.8 346.93 403.21 345.63 402.63C344.35 402.03 343.09 401.44 341.86 400.86C340.63 400.28 339.46 399.63 338.31 399.05C337.75 398.7 337.21 398.35 336.66 398.01C336.11 397.67 335.66 397.25 335.16 396.88C327.3 390.87 320.88 386.33 316.53 383.15C314.36 381.58 312.68 380.36 311.53 379.53C310.97 379.12 310.55 378.81 310.25 378.59C309.96 378.38 309.82 378.26 309.82 378.26L309.84 378.22Z" fill="#455A64"/>
<path d="M387.23 421.83L414.2 432.44L418.69 437.3C421.44 440.27 426.07 440.45 429.05 437.7L463.12 406.19C464.82 404.61 464.7 401.75 462.72 400.54C461.96 400.08 461.03 399.89 459.91 400.29C456.18 401.63 425.57 409.2 425.57 409.2L405.07 392.85L387.23 421.84V421.83Z" fill="#FEF6F1"/>
<path d="M387.23 421.83C387.23 421.83 387.32 421.66 387.52 421.32C387.73 420.96 388.03 420.46 388.42 419.82C389.24 418.47 390.42 416.52 391.93 414.02C395.02 408.95 399.45 401.67 404.9 392.73L405.02 392.54L405.19 392.68C411.22 397.47 418.16 402.99 425.72 409L425.51 408.95C431.32 407.49 437.43 405.95 443.77 404.35C446.93 403.53 450.15 402.69 453.42 401.84C455.05 401.4 456.7 400.97 458.34 400.49C458.75 400.38 459.16 400.25 459.56 400.11C459.95 399.98 460.42 399.82 460.88 399.8C461.82 399.73 462.76 400.11 463.44 400.75C464.84 402.04 464.9 404.33 463.8 405.78C463.54 406.16 463.19 406.45 462.89 406.73L461.96 407.59C461.34 408.16 460.72 408.73 460.11 409.3C457.65 411.57 455.23 413.81 452.85 416.01C448.09 420.41 443.5 424.65 439.12 428.69C436.93 430.71 434.8 432.68 432.73 434.59C431.69 435.55 430.67 436.49 429.67 437.41C429.18 437.87 428.64 438.34 428.05 438.71C427.45 439.06 426.83 439.37 426.17 439.54C423.54 440.31 420.67 439.51 418.88 437.73C417.17 435.94 415.61 434.2 414.08 432.55L414.15 432.6C405.82 429.28 399.08 426.58 394.39 424.72C392.09 423.8 390.3 423.07 389.06 422.58C388.47 422.34 388.02 422.15 387.69 422.02C387.38 421.89 387.24 421.82 387.24 421.82C387.24 421.82 387.42 421.88 387.74 422C388.08 422.13 388.55 422.31 389.16 422.54C390.42 423.02 392.23 423.72 394.56 424.62C399.23 426.43 405.97 429.04 414.28 432.27H414.32L414.35 432.32C415.88 433.95 417.48 435.71 419.16 437.47C420.86 439.15 423.58 439.89 426.05 439.16C426.67 439 427.26 438.7 427.82 438.38C428.38 438.03 428.86 437.6 429.36 437.13C430.36 436.2 431.38 435.25 432.41 434.3C434.48 432.38 436.61 430.41 438.79 428.38C443.16 424.33 447.74 420.08 452.5 415.68C454.88 413.48 457.3 411.24 459.76 408.96C460.37 408.39 460.99 407.82 461.61 407.25C462.2 406.67 462.92 406.12 463.38 405.51C464.33 404.25 464.27 402.25 463.08 401.17C462.5 400.62 461.7 400.3 460.91 400.36C460.5 400.38 460.15 400.5 459.72 400.64C459.31 400.77 458.89 400.91 458.48 401.02C456.83 401.5 455.18 401.94 453.55 402.37C450.28 403.22 447.05 404.05 443.89 404.87C437.55 406.46 431.44 407.99 425.62 409.44L425.51 409.47L425.42 409.4C417.88 403.36 410.95 397.82 404.94 393.01L405.23 392.96C399.74 401.8 395.26 409.01 392.14 414.02C390.58 416.51 389.36 418.46 388.52 419.81C388.11 420.46 387.79 420.97 387.56 421.33C387.34 421.67 387.22 421.85 387.22 421.85L387.23 421.83Z" fill="#263238"/>
<path d="M431.48 435.07C431.41 435.15 430.7 434.52 429.37 433.79C428.06 433.06 426.08 432.28 423.8 432.12C421.51 431.96 419.45 432.45 418.05 432.98C416.64 433.51 415.84 434.03 415.78 433.95C415.74 433.9 416.46 433.24 417.88 432.58C419.28 431.92 421.44 431.33 423.84 431.51C426.24 431.68 428.29 432.57 429.59 433.42C430.9 434.27 431.52 435.02 431.48 435.07Z" fill="#263238"/>
<path d="M454.59 414.07C454.56 414.13 453.9 413.83 453.03 413.06C452.16 412.3 451.15 410.95 450.69 409.2C450.23 407.46 450.36 405.83 450.53 404.7C450.72 403.57 450.97 402.9 451.04 402.92C451.13 402.94 451.04 403.64 450.96 404.75C450.9 405.86 450.85 407.42 451.28 409.04C451.7 410.66 452.58 411.94 453.33 412.75C454.09 413.56 454.65 413.98 454.59 414.07Z" fill="#263238"/>
<path d="M293.29 378.23C291.2 368.32 286.93 358.19 278.48 352.61C272.07 348.38 264.14 347.33 256.51 346.39C203.35 339.85 150.18 333.31 97.0198 326.78C95.5898 351.92 106.35 383.2 117.32 405.86C119.02 409.38 121 412.97 124.26 415.12C128.24 417.74 133.33 417.72 138.09 417.6C191.74 416.23 245.42 413.95 298.76 408.08C295.76 398.41 295.37 388.14 293.28 378.24L293.29 378.23Z" fill="#8A1538"/>
<path d="M155.69 334C155.69 334 155.02 334 153.81 333.88C152.51 333.74 150.79 333.55 148.71 333.33C144.41 332.83 138.48 332.1 131.93 331.2C125.39 330.3 119.47 329.39 115.21 328.64C113.08 328.26 111.35 327.95 110.17 327.69C108.99 327.44 108.33 327.28 108.34 327.24C108.35 327.2 109.01 327.29 110.21 327.47C111.5 327.67 113.21 327.93 115.27 328.25C119.55 328.9 125.46 329.74 132.01 330.64C138.51 331.53 144.38 332.34 148.76 332.94C150.83 333.24 152.54 333.48 153.83 333.67C155.03 333.85 155.69 333.97 155.68 334.01L155.69 334Z" fill="#263238"/>
<path d="M156.52 465.17C156.52 465.17 156.46 465.07 156.35 464.86C156.24 464.62 156.1 464.32 155.91 463.94C155.52 463.09 154.98 461.9 154.29 460.37C153.94 459.59 153.55 458.73 153.13 457.79C152.73 456.84 152.33 455.78 151.89 454.66C151.03 452.4 149.95 449.86 149.03 446.96C148.55 445.52 148.04 444 147.51 442.43C146.99 440.85 146.57 439.17 146.06 437.46C145.01 434.03 144.2 430.29 143.28 426.37C141.64 418.49 140.28 409.72 139.6 400.45C139 391.17 139.13 382.3 139.67 374.26C140.04 370.25 140.33 366.43 140.9 362.89C141.16 361.12 141.35 359.4 141.65 357.76C141.96 356.13 142.25 354.56 142.53 353.06C143.03 350.06 143.76 347.39 144.3 345.04C144.59 343.87 144.83 342.77 145.1 341.77C145.39 340.78 145.66 339.87 145.89 339.05C146.37 337.45 146.74 336.19 147.01 335.29C147.14 334.89 147.24 334.57 147.31 334.32C147.38 334.1 147.42 333.99 147.43 333.99C147.43 333.99 147.42 334.11 147.36 334.33C147.3 334.58 147.21 334.91 147.11 335.32C146.87 336.22 146.53 337.49 146.09 339.1C145.86 339.92 145.62 340.83 145.34 341.83C145.09 342.83 144.86 343.93 144.59 345.11C144.08 347.47 143.38 350.13 142.91 353.13C142.64 354.63 142.36 356.19 142.07 357.82C141.78 359.45 141.61 361.17 141.35 362.94C140.81 366.47 140.53 370.28 140.18 374.28C139.67 382.29 139.55 391.14 140.15 400.39C140.83 409.64 142.17 418.38 143.78 426.24C144.68 430.15 145.48 433.89 146.5 437.31C146.99 439.03 147.4 440.7 147.91 442.28C148.42 443.86 148.92 445.37 149.39 446.81C150.28 449.72 151.33 452.26 152.16 454.53C152.59 455.66 152.97 456.72 153.36 457.67C153.77 458.62 154.14 459.49 154.48 460.27C155.13 461.81 155.64 463.02 156.01 463.88C156.17 464.27 156.3 464.58 156.39 464.82C156.47 465.03 156.51 465.15 156.5 465.15L156.52 465.17Z" fill="#263238"/>
<path d="M154.83 414.51C154.83 414.67 152.01 414.66 148.55 414.5C145.09 414.34 142.29 414.08 142.3 413.93C142.3 413.77 145.12 413.78 148.58 413.94C152.04 414.1 154.84 414.36 154.83 414.51Z" fill="#263238"/>
<path d="M153.37 421.79C153.35 421.93 150.36 421.5 146.93 420.11C143.49 418.73 141.05 416.95 141.13 416.84C141.22 416.7 143.76 418.23 147.14 419.59C150.51 420.96 153.4 421.63 153.37 421.79Z" fill="#263238"/>
<path d="M139.41 371.73C139.48 371.86 137.69 372.77 135.26 372.99C132.83 373.23 130.9 372.68 130.94 372.54C130.97 372.37 132.87 372.67 135.2 372.43C137.53 372.22 139.35 371.57 139.41 371.72V371.73Z" fill="#263238"/>
<path d="M142.59 369.32C142.63 369.46 140.44 369.79 138.01 368.74C135.57 367.72 134.29 365.92 134.41 365.85C134.53 365.73 135.93 367.27 138.23 368.22C140.51 369.21 142.59 369.14 142.59 369.31V369.32Z" fill="#263238"/>
<path d="M198.74 198.01C198.04 195.91 196.1 194.37 193.97 193.76C191.84 193.15 189.54 193.39 187.41 194.01L166.69 198.75C169.65 200.72 175.86 202.63 179.4 203.01C184.57 203.56 188.21 203.61 191.3 201.83C191.93 203.95 194.81 204.9 196.74 203.81C198.67 202.72 199.45 200.12 198.74 198.01Z" fill="#263238"/>
<path d="M405.75 415.37C405.71 415.5 402.89 414.83 399.56 413.58C396.22 412.33 393.66 410.97 393.72 410.85C393.78 410.71 396.43 411.85 399.75 413.09C403.06 414.34 405.8 415.23 405.76 415.37H405.75Z" fill="#263238"/>
<path d="M410.32 406.51C410.24 406.64 407.92 405.4 405.01 404C402.09 402.59 399.68 401.56 399.73 401.42C399.78 401.29 402.29 402.12 405.23 403.53C408.17 404.94 410.39 406.39 410.32 406.51Z" fill="#263238"/>
<path d="M245.27 343.76L287.05 344.27L337.49 334.28C339.12 333.96 340.37 332.65 340.62 331L347.48 285.58C347.82 283.34 345.87 281.42 343.64 281.78L292.08 290.17C290.61 290.41 289.48 291.58 289.3 293.06L283.55 339.25L245.35 339.07C244.05 339.07 242.99 340.12 242.99 341.42C242.99 342.7 244.01 343.74 245.28 343.77L245.27 343.76Z" fill="#E0E0E0"/>
<path d="M245.27 343.76C245.27 343.76 244.99 343.81 244.48 343.63C244 343.46 243.22 342.96 242.97 341.9C242.86 341.39 242.91 340.75 243.25 340.18C243.58 339.62 244.2 339.12 244.98 339.01C246.51 338.95 248.25 338.99 250.22 338.98C258.1 339 269.48 339.02 283.54 339.06L283.35 339.22C284.99 325.93 286.94 310.18 289.1 292.74C289.33 291.58 290.18 290.56 291.3 290.14C291.87 289.91 292.44 289.89 292.98 289.78L294.64 289.51C296.86 289.15 299.1 288.78 301.37 288.41C305.9 287.67 310.53 286.92 315.24 286.15C319.95 285.38 324.74 284.6 329.6 283.81C332.03 283.41 334.48 283.02 336.94 282.61C338.17 282.41 339.41 282.21 340.65 282.01L342.51 281.71C343.13 281.63 343.75 281.45 344.45 281.5C345.89 281.61 347.18 282.64 347.6 284.01C347.83 284.68 347.78 285.45 347.66 286.08L347.37 288.02C346.98 290.61 346.59 293.17 346.21 295.72C345.44 300.82 344.68 305.84 343.93 310.77C343.18 315.7 342.45 320.54 341.73 325.27C341.55 326.45 341.37 327.63 341.2 328.8C341.11 329.38 341.02 329.97 340.93 330.55C340.86 331.11 340.74 331.77 340.45 332.31C339.89 333.42 338.82 334.25 337.62 334.5C336.49 334.73 335.36 334.95 334.24 335.17C316.35 338.69 300.34 341.84 287.09 344.45H287.07H287.05C274.08 344.26 263.65 344.1 256.43 343.99C252.84 343.93 250.06 343.88 248.15 343.84C247.22 343.82 246.5 343.8 246 343.79C245.52 343.78 245.27 343.76 245.27 343.76C245.27 343.76 245.52 343.75 246 343.74C246.5 343.74 247.21 343.74 248.15 343.74C250.06 343.75 252.84 343.77 256.43 343.79C263.65 343.86 274.08 343.96 287.05 344.08H287.01C300.25 341.44 316.25 338.25 334.14 334.69C335.26 334.47 336.38 334.24 337.51 334.02C338.57 333.8 339.52 333.07 340.01 332.08C340.27 331.58 340.37 331.06 340.44 330.47C340.53 329.89 340.62 329.31 340.7 328.72C340.88 327.55 341.05 326.37 341.23 325.19C341.94 320.46 342.67 315.62 343.41 310.69C344.15 305.76 344.91 300.74 345.68 295.64C346.06 293.09 346.45 290.52 346.84 287.94L347.13 286C347.25 285.34 347.28 284.76 347.09 284.17C346.74 283 345.63 282.11 344.4 282.02C343.83 281.97 343.21 282.14 342.59 282.22L340.73 282.52C339.49 282.72 338.25 282.92 337.02 283.12C334.56 283.52 332.11 283.92 329.68 284.31C324.82 285.1 320.03 285.88 315.32 286.64C310.61 287.4 305.98 288.15 301.45 288.89C299.18 289.26 296.94 289.62 294.72 289.98L293.06 290.25C292.51 290.36 291.94 290.39 291.48 290.58C290.51 290.95 289.77 291.83 289.57 292.83C287.38 310.25 285.39 325.98 283.72 339.26L283.7 339.43H283.53C269.47 339.33 258.1 339.24 250.21 339.18C248.25 339.18 246.48 339.12 245 339.16C244.27 339.25 243.68 339.71 243.36 340.24C243.04 340.77 242.98 341.37 243.07 341.87C243.28 342.89 244.02 343.4 244.49 343.58C244.98 343.77 245.27 343.74 245.26 343.76H245.27Z" fill="#263238"/>
<path d="M293.75 291.61C293.89 291.63 292.51 303.69 290.66 318.54C288.81 333.4 287.2 345.43 287.05 345.41C286.91 345.39 288.29 333.33 290.14 318.47C291.99 303.61 293.6 291.58 293.75 291.6V291.61Z" fill="#263238"/>
<path d="M316.17 310.37C315.12 312.56 315.7 315.02 317.46 315.86C319.22 316.7 321.5 315.61 322.55 313.42C323.6 311.23 323.02 308.77 321.26 307.93C319.5 307.09 317.22 308.18 316.17 310.37Z" fill="white"/>
</g>
<g clip-path="url(#clip1_0_1)">
<path d="M417.35 0H339.89V112.28H417.35V0Z" fill="#E0E0E0"/>
<path d="M413.47 0H336.01V112.28H413.47V0Z" fill="#F5F5F5"/>
<path d="M403.86 12.16H345.64V100.12H403.86V12.16Z" fill="white"/>
<path d="M403.85 100.12C403.85 100.12 403.85 99.9701 403.84 99.6901C403.84 99.4001 403.84 98.9901 403.83 98.4401C403.83 97.3301 403.82 95.7201 403.81 93.6201C403.8 89.4001 403.78 83.2601 403.76 75.5001C403.74 59.9901 403.7 38.0301 403.66 12.1601L403.85 12.3501C386.06 12.3501 366.36 12.3601 345.64 12.3701L345.85 12.1601C345.83 45.3401 345.82 75.9401 345.81 100.12L345.64 99.9501C363.37 99.9901 377.9 100.02 388.01 100.04C393.07 100.06 397.02 100.07 399.72 100.08C401.06 100.08 402.09 100.09 402.79 100.1C403.49 100.1 403.85 100.12 403.85 100.12C403.85 100.12 403.51 100.13 402.82 100.14C402.12 100.14 401.11 100.15 399.78 100.16C397.09 100.16 393.15 100.18 388.11 100.2C377.97 100.22 363.4 100.25 345.63 100.29H345.46V100.12C345.45 75.9401 345.43 45.3401 345.42 12.1601V11.9501H345.63C366.34 11.9501 386.05 11.9601 403.84 11.9701H404.03V12.1601C403.99 38.0801 403.96 60.0801 403.93 75.6301C403.91 83.3701 403.89 89.5001 403.88 93.7101C403.87 95.7901 403.86 97.4001 403.86 98.5001C403.86 99.0301 403.86 99.4401 403.85 99.7301C403.85 100 403.84 100.14 403.84 100.14L403.85 100.12Z" fill="#E0E0E0"/>
<path d="M413.7 0C413.7 0 413.22 0.8 412.32 2.01C411.42 3.21 410.14 4.85 408.69 6.62C407.23 8.39 405.87 9.96 404.86 11.07C403.85 12.18 403.2 12.85 403.16 12.81C403.12 12.77 403.69 12.04 404.64 10.88C405.68 9.62 406.96 8.07 408.37 6.36C409.78 4.64 411.06 3.09 412.1 1.83C413.06 0.68 413.67 -0.03 413.71 0.01L413.7 0Z" fill="#E0E0E0"/>
<path d="M404.15 99.84C407.04 104.44 410.45 108.71 414.3 112.54L404.15 99.84Z" fill="white"/>
<path d="M414.3 112.54C414.3 112.54 413.57 111.98 412.53 110.93C411.49 109.88 410.11 108.37 408.7 106.61C407.29 104.85 406.12 103.17 405.33 101.92C404.54 100.67 404.1 99.87 404.15 99.84C404.2 99.81 404.72 100.56 405.58 101.75C406.43 102.95 407.63 104.59 409.03 106.34C410.43 108.09 411.77 109.62 412.75 110.72C413.73 111.82 414.35 112.49 414.3 112.53V112.54Z" fill="#E0E0E0"/>
<path d="M336 112.19C339.38 108.02 342.76 103.84 346.15 99.67L336 112.19Z" fill="white"/>
<path d="M346.15 99.68C346.24 99.75 344.04 102.62 341.24 106.07C338.44 109.53 336.09 112.27 336 112.19C335.91 112.12 338.11 109.26 340.91 105.8C343.71 102.34 346.06 99.6 346.15 99.67V99.68Z" fill="#E0E0E0"/>
<path d="M336.01 1.77204e-05C336.11 -0.0699823 338.31 2.57002 340.94 5.89002C343.57 9.21002 345.63 11.97 345.53 12.04C345.44 12.11 343.23 9.48002 340.6 6.15002C337.98 2.83002 335.92 0.0700177 336.01 1.77204e-05Z" fill="#E0E0E0"/>
<path d="M385.71 30.02H366.22V85.37H385.71V30.02Z" fill="#E0E0E0"/>
<path d="M414.74 138.1H347.85V207.82H414.74V138.1Z" fill="#E0E0E0"/>
<path d="M410.21 138.1H343.32V207.82H410.21V138.1Z" fill="#F5F5F5"/>
<path d="M410.22 207.84H343.3V138.08H410.22V207.84ZM343.33 207.8H410.18V138.12H343.34V207.8H343.33Z" fill="#E0E0E0"/>
<path d="M401.21 147.47H352.31V198.45H401.21V147.47Z" fill="white"/>
<path d="M352.31 198.79C352.31 198.79 351.88 199.37 351.1 200.19C350.32 201.01 349.22 202.13 347.99 203.34C346.76 204.55 345.63 205.63 344.8 206.4C343.97 207.17 343.43 207.62 343.39 207.58C343.35 207.54 343.81 207.01 344.59 206.18C345.37 205.36 346.47 204.24 347.71 203.02C348.94 201.8 350.08 200.72 350.91 199.96C351.74 199.19 352.28 198.74 352.32 198.79H352.31Z" fill="#E0E0E0"/>
<path d="M401.21 198.66C401.21 198.66 401.79 199.09 402.61 199.87C403.43 200.65 404.55 201.75 405.76 202.98C406.97 204.21 408.05 205.34 408.82 206.17C409.59 207 410.04 207.54 410 207.58C409.96 207.62 409.43 207.16 408.6 206.38C407.78 205.6 406.66 204.5 405.44 203.26C404.23 202.03 403.14 200.89 402.38 200.06C401.61 199.23 401.16 198.69 401.21 198.65V198.66Z" fill="#E0E0E0"/>
<path d="M401.08 147.61C401.08 147.61 401.51 147.03 402.29 146.21C403.07 145.39 404.17 144.27 405.4 143.06C406.63 141.85 407.76 140.77 408.59 140C409.42 139.23 409.96 138.78 410 138.82C410.04 138.86 409.58 139.39 408.8 140.22C408.02 141.04 406.92 142.16 405.68 143.38C404.45 144.6 403.31 145.68 402.48 146.44C401.65 147.21 401.11 147.66 401.07 147.61H401.08Z" fill="#E0E0E0"/>
<path d="M352.17 147.73C352.17 147.73 351.59 147.3 350.77 146.52C349.95 145.74 348.83 144.64 347.62 143.41C346.41 142.18 345.33 141.05 344.56 140.22C343.79 139.39 343.34 138.85 343.38 138.81C343.42 138.77 343.95 139.23 344.78 140.01C345.6 140.79 346.72 141.89 347.94 143.13C349.16 144.36 350.24 145.5 351 146.33C351.77 147.16 352.22 147.7 352.17 147.74V147.73Z" fill="#E0E0E0"/>
<path d="M401.08 198.45C401.08 198.45 401.08 198.36 401.07 198.2C401.07 198.03 401.07 197.79 401.06 197.49C401.06 196.85 401.05 195.93 401.04 194.74C401.03 192.33 401.01 188.81 400.99 184.35C400.97 175.42 400.93 162.7 400.89 147.47L401.08 147.66C386.84 147.66 370.13 147.68 352.32 147.69L352.54 147.47C352.53 166.18 352.52 183.68 352.51 198.45L352.32 198.26C366.93 198.3 379.1 198.33 387.63 198.35C391.89 198.37 395.24 198.39 397.55 198.4C398.69 198.4 399.56 198.42 400.17 198.42C400.46 198.42 400.68 198.42 400.85 198.43C401 198.43 401.08 198.43 401.09 198.44C401.09 198.44 401.02 198.44 400.87 198.45C400.71 198.45 400.49 198.45 400.21 198.46C399.61 198.46 398.74 198.47 397.62 198.48C395.33 198.49 391.99 198.51 387.74 198.53C379.18 198.55 366.97 198.59 352.31 198.62H352.12V198.43C352.12 183.67 352.1 166.16 352.09 147.45V147.23H352.31C370.12 147.23 386.84 147.25 401.07 147.26H401.26V147.45C401.22 162.73 401.19 175.49 401.16 184.45C401.14 188.89 401.12 192.39 401.11 194.8C401.11 195.98 401.09 196.88 401.09 197.52C401.09 197.81 401.09 198.04 401.08 198.21C401.08 198.36 401.08 198.44 401.07 198.44L401.08 198.45Z" fill="#E0E0E0"/>
<path d="M384.92 164.8H368.6V181.12H384.92V164.8Z" fill="#E0E0E0"/>
</g>
<defs>
<clipPath id="clip0_0_1">
<rect width="637.06" height="281.17" fill="white" transform="translate(81 184)"/>
</clipPath>
<clipPath id="clip1_0_1">
<rect width="81.36" height="207.84" fill="white" transform="translate(336)"/>
</clipPath>
</defs>
</svg>
