<svg width="56" height="66" viewBox="0 0 56 66" fill="none" xmlns="http://www.w3.org/2000/svg">
<path d="M18.5 26C21.8152 26 24.9946 24.683 27.3388 22.3388C29.683 19.9946 31 16.8152 31 13.5C31 10.1848 29.683 7.00537 27.3388 4.66117C24.9946 2.31696 21.8152 1 18.5 1C15.1848 1 12.0054 2.31696 9.66117 4.66117C7.31696 7.00537 6 10.1848 6 13.5C6 16.8152 7.31696 19.9946 9.66117 22.3388C12.0054 24.683 15.1848 26 18.5 26ZM18.5 26C23.5325 26 27.93 27.9 31.0575 31.0575C32.9121 32.9372 34.2993 35.2261 35.1075 37.74M18.5 26C8.5 26 1 33.5 1 43.5V56H26" stroke="black"/>
<circle cx="38.5" cy="48.5001" r="17.5" fill="#8A1538"/>
<path d="M30.9995 50.7068L37.6654 56.0001L43.0825 48.5001L48.4995 41.0001" stroke="white"/>
</svg>
