<svg width="25" height="19" viewBox="0 0 25 19" fill="none" xmlns="http://www.w3.org/2000/svg">
    <path
        d="M15.4459 6.42834C15.2428 6.22522 14.9125 6.22522 14.7094 6.42834C14.5063 6.63147 14.5063 6.96272 14.7094 7.16482C15.299 7.75441 15.625 8.53879 15.625 9.37418C15.625 11.0971 14.2229 12.4992 12.5 12.4992C11.6646 12.4992 10.8803 12.1742 10.2907 11.5836C10.0875 11.3804 9.75732 11.3804 9.5542 11.5836C9.35107 11.7857 9.35107 12.1169 9.5542 12.32C10.3396 13.1075 11.3865 13.5409 12.5 13.5409C14.7979 13.5409 16.6667 11.6721 16.6667 9.37423C16.6667 8.26061 16.2334 7.21374 15.4459 6.42834Z"
        fill="#A4AEB7" />
    <path
        d="M13.2261 5.27939C12.9896 5.23774 12.748 5.20752 12.5001 5.20752C10.2022 5.20752 8.33344 7.07626 8.33344 9.37416C8.33344 9.62206 8.36366 9.86376 8.40634 10.1002C8.45111 10.3523 8.67093 10.5304 8.91781 10.5304C8.94803 10.5304 8.97821 10.5283 9.00946 10.5221C9.29173 10.4721 9.48133 10.2012 9.43133 9.91893C9.39906 9.74183 9.37508 9.56166 9.37508 9.37416C9.37508 7.65126 10.7772 6.24917 12.5001 6.24917C12.6876 6.24917 12.8678 6.27314 13.0448 6.30439C13.3219 6.36064 13.598 6.16479 13.648 5.88252C13.698 5.60024 13.5084 5.32939 13.2261 5.27939Z"
        fill="#A4AEB7" />
    <path
        d="M24.876 9.03774C24.7583 8.89814 21.9406 5.60963 18.0541 3.59611C17.802 3.46383 17.4844 3.56383 17.352 3.82008C17.2198 4.0753 17.3198 4.38985 17.576 4.52218C20.5698 6.07217 22.9614 8.49092 23.7791 9.37426C22.5375 10.719 17.651 15.6242 12.5 15.6242C10.7521 15.6242 8.99065 15.2024 7.26253 14.369C7.00628 14.243 6.69275 14.3524 6.56775 14.6117C6.44173 14.8701 6.5511 15.1815 6.81048 15.3065C8.68025 16.2096 10.5948 16.6659 12.5001 16.6659C18.9178 16.6659 24.6365 9.99506 24.8771 9.71069C25.0416 9.51689 25.0406 9.23252 24.876 9.03774Z"
        fill="#A4AEB7" />
    <path
        d="M15.9177 2.68252C14.7324 2.28354 13.5824 2.08252 12.5 2.08252C6.08233 2.08252 0.363595 8.75335 0.122971 9.03772C-0.0291283 9.21687 -0.0416283 9.47732 0.0938205 9.6721C0.165695 9.77522 1.88757 12.22 4.87193 14.2023C4.96046 14.2617 5.05943 14.2898 5.15943 14.2898C5.32715 14.2898 5.49278 14.2086 5.59278 14.0554C5.75215 13.8169 5.68653 13.4929 5.44693 13.3346C3.25529 11.8773 1.75529 10.1179 1.19382 9.40232C2.39279 8.10023 7.31152 3.12422 12.5 3.12422C13.4698 3.12422 14.5084 3.30756 15.5854 3.66899C15.8583 3.76689 16.1542 3.61586 16.2448 3.34189C16.3365 3.06899 16.1906 2.77422 15.9177 2.68252Z"
        fill="#A4AEB7" />

</svg>