<svg width="33" height="33" viewBox="0 0 33 33" fill="none" xmlns="http://www.w3.org/2000/svg">
<path d="M16.1768 0C7.25763 0 0 7.192 0 16.034C0 24.876 7.25763 32.068 16.1768 32.068C25.096 32.068 32.3536 24.876 32.3536 16.034C32.3536 7.192 25.096 0 16.1768 0ZM16.1768 31C7.85183 31 1.07946 24.286 1.07946 16.034C1.07946 7.782 7.85183 1.068 16.1768 1.068C24.5018 1.068 31.2742 7.782 31.2742 16.034C31.2742 24.286 24.5018 31 16.1768 31Z" fill="#8A1538"/>
<path d="M25.0494 11.08C25.1613 10.8747 25.2535 10.6594 25.3248 10.437C25.3579 10.3338 25.3585 10.2232 25.3268 10.1196C25.295 10.0161 25.2323 9.92452 25.1469 9.85703C25.0616 9.78954 24.9576 9.7493 24.8487 9.74162C24.7398 9.73393 24.6311 9.75917 24.5369 9.814C24.02 10.1184 23.4604 10.3452 22.8764 10.487C22.1674 9.85277 21.2467 9.50118 20.2917 9.5C19.7729 9.5004 19.2595 9.60463 18.7823 9.80646C18.3051 10.0083 17.8739 10.3036 17.5146 10.6746C17.1553 11.0456 16.8753 11.4847 16.6913 11.9655C16.5073 12.4464 16.4232 12.9591 16.444 13.473C14.1751 13.1899 12.1033 12.0518 10.6583 10.295C10.6029 10.2284 10.5322 10.1761 10.452 10.1425C10.3719 10.1088 10.2847 10.0948 10.198 10.1017C10.1112 10.1086 10.0274 10.1361 9.95372 10.1819C9.88 10.2278 9.81853 10.2906 9.77453 10.365C9.44365 10.9279 9.2638 11.5655 9.25215 12.2169C9.24049 12.8683 9.39741 13.5118 9.70794 14.086C9.63178 14.0987 9.55862 14.1252 9.49205 14.164C9.41048 14.2156 9.34332 14.2866 9.29678 14.3707C9.25023 14.4548 9.22579 14.5491 9.22571 14.645C9.22571 15.78 9.73518 16.822 10.5564 17.53L10.5211 17.565C10.4591 17.6345 10.4164 17.7188 10.3973 17.8097C10.3782 17.9005 10.3833 17.9947 10.4121 18.083C10.5834 18.6125 10.8693 19.0986 11.2499 19.5071C11.6305 19.9156 12.0965 20.2367 12.6154 20.448C11.5497 20.9633 10.357 21.1643 9.17931 21.027C9.05825 21.0148 8.93652 21.0427 8.83319 21.1064C8.72986 21.1701 8.65077 21.266 8.6083 21.379C8.56752 21.4929 8.56676 21.6171 8.60613 21.7314C8.6455 21.8458 8.7227 21.9436 8.8252 22.009C10.4262 23.0276 12.2888 23.5687 14.1912 23.568C20.4259 23.568 24.1526 18.548 24.1526 13.695L24.1516 13.531C24.7558 13.0634 25.2806 12.503 25.7062 11.871C25.7706 11.7755 25.8023 11.6619 25.7966 11.5471C25.7908 11.4323 25.7479 11.3224 25.6742 11.2337C25.6006 11.1449 25.5 11.0821 25.3875 11.0544C25.275 11.0267 25.1564 11.0357 25.0494 11.08ZM23.289 12.835C23.2158 12.8872 23.1569 12.9567 23.1178 13.0372C23.0787 13.1178 23.0605 13.2067 23.065 13.296C23.0711 13.428 23.0741 13.562 23.0741 13.694C23.0741 18.022 19.752 22.499 14.1923 22.499C13.2007 22.4995 12.2161 22.3345 11.2797 22.011C12.4011 21.798 13.4546 21.3213 14.3517 20.621C14.439 20.5528 14.5029 20.4594 14.5347 20.3538C14.5665 20.2482 14.5646 20.1354 14.5292 20.0309C14.4939 19.9264 14.4269 19.8352 14.3373 19.7699C14.2477 19.7046 14.14 19.6683 14.0288 19.666C13.5938 19.6578 13.1669 19.5483 12.7824 19.3465C12.3979 19.1446 12.0667 18.856 11.8154 18.504C12.0707 18.487 12.3208 18.445 12.564 18.38C12.6816 18.3488 12.7852 18.279 12.8577 18.1819C12.9301 18.0849 12.9673 17.9664 12.9631 17.8457C12.9589 17.725 12.9135 17.6093 12.8345 17.5175C12.7554 17.4256 12.6472 17.3631 12.5277 17.34C12.0364 17.2409 11.5815 17.0114 11.2117 16.6758C10.8419 16.3402 10.5711 15.9114 10.4283 15.435C10.6966 15.502 10.972 15.541 11.2474 15.55C11.4845 15.549 11.7044 15.405 11.7781 15.179C11.8517 14.953 11.765 14.704 11.5642 14.572C11.0895 14.2585 10.724 13.8074 10.5177 13.2803C10.3113 12.7532 10.2741 12.1758 10.4111 11.627C12.1635 13.4093 14.5298 14.4707 17.0372 14.599C17.2148 14.6 17.3701 14.537 17.4781 14.408C17.586 14.279 17.6274 14.108 17.589 13.944C17.4511 13.355 17.5128 12.7373 17.7646 12.1866C18.0165 11.6359 18.4444 11.1828 18.9823 10.8974C19.5201 10.6121 20.1378 10.5104 20.7398 10.6081C21.3418 10.7059 21.8945 10.9975 22.3124 11.438C22.3751 11.5042 22.4537 11.5536 22.5409 11.5814C22.6281 11.6092 22.721 11.6146 22.8108 11.597C22.9773 11.564 23.1417 11.526 23.3041 11.482C23.2309 11.5363 23.1548 11.5867 23.0761 11.633C22.9715 11.6965 22.8919 11.7935 22.8503 11.9079C22.8087 12.0223 22.8077 12.1473 22.8474 12.2624C22.8871 12.3774 22.9652 12.4757 23.0687 12.5409C23.1723 12.606 23.2952 12.6343 23.4171 12.621L23.6007 12.598C23.4996 12.6806 23.3957 12.7596 23.289 12.835Z" fill="#8A1538"/>
</svg>
