<svg width="64" height="65" viewBox="0 0 64 65" fill="none" xmlns="http://www.w3.org/2000/svg">
<circle cx="30.5" cy="30.5" r="30.5" fill="#C4C4C4"/>
<path d="M30.9369 5.00379C16.8555 4.76368 5.24438 15.9625 5.0038 30.0168C4.86715 37.9857 8.42574 45.1478 14.0918 49.9107C14.4623 49.588 14.8597 49.2921 15.3014 49.052L22.9103 44.9096C23.9082 44.366 24.5299 43.322 24.5299 42.1867V39.0749C24.5299 39.0749 22.2964 36.4086 21.4447 32.7042C20.7384 32.248 20.2649 31.4594 20.2649 30.5614V27.1557C20.2649 26.4065 20.5989 25.7371 21.1175 25.2684V20.3451C21.1175 20.3451 20.1042 12.6836 30.5 12.6836C40.8957 12.6836 39.8824 20.3451 39.8824 20.3451V25.2684C40.4021 25.7371 40.735 26.4065 40.735 27.1557V30.5614C40.735 31.7063 39.9652 32.6696 38.9201 32.9914C38.3379 34.798 37.4978 36.5201 36.3873 38.0856C36.1073 38.4803 35.8456 38.8146 35.6165 39.0749V42.2655C35.6165 43.4401 36.2815 44.5149 37.3342 45.0393L45.482 49.1049C45.9709 49.3488 46.4126 49.6571 46.8196 50C52.3144 45.4263 55.8643 38.5879 55.9961 30.887C56.2386 16.8327 45.0192 5.2439 30.9369 5.00379Z" fill="#4A535C"/>
<g clip-path="url(#clip0_1_353)">
<path d="M50.1895 40.0104C50.6359 40.3064 51.3664 40.3064 51.8121 40.0104L52.991 39.2271C53.4371 38.9307 54.0367 39.0586 54.3236 39.5111L55.0819 40.7069C55.3688 41.1591 56.0357 41.456 56.5637 41.3667L57.9594 41.1302C58.4876 41.0407 58.9839 41.4009 59.0617 41.9308L59.2687 43.329C59.3472 43.859 59.8352 44.4024 60.3542 44.5361L61.7237 44.8893C62.2428 45.0235 62.5492 45.5554 62.4051 46.0713L62.0257 47.4305C61.8817 47.9464 62.107 48.6412 62.5267 48.9743L63.6385 49.8562C64.0581 50.1893 64.1218 50.7991 63.7803 51.2121L62.8777 52.3016C62.5363 52.7142 62.4601 53.4405 62.708 53.9152L63.3634 55.1683C63.6115 55.6433 63.4224 56.2268 62.9425 56.4649L61.6746 57.0942C61.1948 57.3325 60.83 57.9651 60.8634 58.4996L60.951 59.9111C60.985 60.4454 60.574 60.9018 60.0385 60.9247L58.6252 60.9845C58.0901 61.0074 57.4995 61.4369 57.3125 61.9392L56.8208 63.2638C56.6337 63.7662 56.0734 64.0161 55.5754 63.819L54.2586 63.2985C53.7609 63.1013 53.0465 63.253 52.6716 63.6359L51.6827 64.646C51.3076 65.0285 50.6944 65.0285 50.3191 64.6465L49.3286 63.6357C48.9535 63.2532 48.2391 63.1015 47.7411 63.2986L46.425 63.8191C45.9269 64.0164 45.3666 63.7665 45.18 63.2639L44.6871 61.9393C44.5003 61.4371 43.9097 61.0075 43.3744 60.9846L41.9615 60.9247C41.426 60.9018 41.0156 60.4454 41.049 59.9112L41.1375 58.4997C41.1707 57.9653 40.8055 57.3326 40.3257 57.0943L39.0582 56.465C38.5785 56.2268 38.3889 55.6435 38.637 55.1684L39.2925 53.9153C39.5405 53.4406 39.4643 52.7144 39.1224 52.3021L38.2197 51.2112C37.8781 50.7989 37.942 50.189 38.3616 49.856L39.4736 48.974C39.8931 48.641 40.1186 47.9465 39.9747 47.4304L39.5945 46.0706C39.4505 45.5548 39.757 45.0232 40.2755 44.8899L41.6461 44.5359C42.1647 44.4024 42.6534 43.859 42.7316 43.3289L42.9385 41.9308C43.0169 41.4009 43.513 41.0407 44.041 41.1301L45.4368 41.3666C45.965 41.4559 46.6318 41.159 46.9183 40.7069L47.6762 39.511C47.9627 39.0586 48.5627 38.9307 49.0092 39.2271L50.1895 40.0104Z" fill="#27B660"/>
<path d="M59.4119 52.0141C59.4119 56.6599 55.6455 60.426 51 60.426C46.3549 60.426 42.5884 56.6599 42.5884 52.0141C42.5884 47.3697 46.3547 43.6035 51 43.6035C55.6455 43.6035 59.4119 47.3697 59.4119 52.0141Z" fill="#56C674"/>
<path d="M49.5976 55.9437L46.2306 52.5765L47.3523 51.4543L49.5976 53.6991L54.6478 48.6482L55.7696 49.7709L49.5976 55.9437Z" fill="white"/>
</g>
<defs>
<clipPath id="clip0_1_353">
<rect width="26" height="26" fill="white" transform="translate(38 39)"/>
</clipPath>
</defs>
</svg>
